<?xml version="1.0" encoding="UTF-8"?>
<svg width="466px" height="275px" viewBox="0 0 466 275" version="1.1" xmlns="http://www.w3.org/2000/svg" xmlns:xlink="http://www.w3.org/1999/xlink">
    <!-- Generator: Sketch 64 (93537) - https://sketch.com -->
    <title>Group 2</title>
    <desc>Created with Sketch.</desc>
    <g id="About" stroke="none" stroke-width="1" fill="none" fill-rule="evenodd">
        <g transform="translate(-836.000000, -267.000000)" fill-rule="nonzero" id="Banner">
            <g transform="translate(0.000000, -617.000000)">
                <g id="Illustration" transform="translate(836.000000, 770.000000)">
                    <g id="Group-2" transform="translate(0.000000, 114.089432)">
                        <g id="Group-6" transform="translate(0.000000, 75.108296)">
                            <g id="g68804-Clipped" transform="translate(52.000000, 14.652101) scale(-1, 1) rotate(-180.000000) translate(-52.000000, -14.652101) translate(0.000000, 0.152101)" fill="#00BCD4">
                                <path d="M1.19905596,28.8638537 C0.540383943,28.8638537 0.00502495081,28.38573 0.00502495081,27.7944729 L0.00502495081,27.7944729 L0.00502495081,1.89633269 C0.00502495081,1.30642238 0.540383943,0.8269519 1.19905596,0.8269519 L1.19905596,0.8269519 L93.6146501,0.8269519 C94.2733222,0.8269519 94.8086811,1.30642238 94.8086811,1.89633269 L94.8086811,1.89633269 L94.8086811,10.101204 L102.720264,14.192865 C103.282692,14.4824329 103.282692,15.2097195 102.720264,15.4992874 L102.720264,15.4992874 L94.8086811,19.5896016 L94.8086811,27.7944729 C94.8086811,28.38573 94.2733222,28.8638537 93.6146501,28.8638537 L93.6146501,28.8638537 L1.19905596,28.8638537 Z" id="path68822"></path>
                            </g>
                            <g id="g68832" transform="translate(75.410502, 15.510524) scale(-1, 1) rotate(180.000000) translate(-75.410502, -15.510524) translate(65.410502, 5.510524)" fill="#FFFFFF">
                                <path d="M1.92717317,0 L17.7872104,0 C18.771464,0 19.5700649,0.800550682 19.5700649,1.78903101 L19.5700649,17.7186578 C19.5700649,18.7056584 18.771464,19.5076888 17.7872104,19.5076888 L1.92717317,19.5076888 C0.942919652,19.5076888 0.145792175,18.7056584 0.145792175,17.7186578 L0.145792175,1.78903101 C0.145792175,0.800550682 0.942919652,0 1.92717317,0" id="path68834"></path>
                            </g>
                            <g id="g68836" transform="translate(33.018483, 7.764569) scale(-1, 1) rotate(180.000000) translate(-33.018483, -7.764569) translate(7.018483, 4.264569)" fill="#FFFFFF">
                                <path d="M1.92717317,0 L49.7710295,0 C50.7980126,0 51.6305025,1.42023856 51.6305025,3.17228508 C51.6305025,4.92684528 50.7980126,6.34708385 49.7710295,6.34708385 L1.92717317,6.34708385 C0.900190083,6.34708385 0.0677002046,4.92684528 0.0677002046,3.17228508 C0.0677002046,1.42023856 0.900190083,0 1.92717317,0" id="path68838"></path>
                            </g>
                            <g id="g68840" transform="translate(33.018483, 14.983287) scale(-1, 1) rotate(180.000000) translate(-33.018483, -14.983287) translate(7.018483, 11.483287)" fill="#FFFFFF">
                                <path d="M1.92717317,0 L49.7710295,0 C50.7980126,0 51.6305025,1.42023856 51.6305025,3.17228508 C51.6305025,4.92684528 50.7980126,6.34708385 49.7710295,6.34708385 L1.92717317,6.34708385 C0.900190083,6.34708385 0.0677002046,4.92684528 0.0677002046,3.17228508 C0.0677002046,1.42023856 0.900190083,0 1.92717317,0" id="path68842"></path>
                            </g>
                            <g id="g68844" transform="translate(41.017465, 22.202005) scale(-1, 1) rotate(180.000000) translate(-41.017465, -22.202005) translate(23.017465, 18.702005)" fill="#FFFFFF">
                                <path d="M1.92717317,0 L33.7710161,0 C34.7979992,0 35.6319625,1.42023856 35.6319625,3.17228508 C35.6319625,4.92684528 34.7979992,6.34708385 33.7710161,6.34708385 L1.92717317,6.34708385 C0.900190083,6.34708385 0.0677002046,4.92684528 0.0677002046,3.17228508 C0.0677002046,1.42023856 0.900190083,0 1.92717317,0" id="path68846"></path>
                            </g>
                        </g>
                        <g id="Group-5" transform="translate(24.103845, 120.030592)">
                            <path d="M14.9706524,43.6815225 C12.6735163,42.5387387 11.4216067,39.69344 11.5677612,37.0222798 L11.5677612,37.0222798 C11.6519108,35.5047872 12.1184243,34.0292744 12.1494268,32.510227 L12.1494268,32.510227 C12.1951924,30.2448717 11.2769285,28.5128156 8.93845572,28.7693589 L8.93845572,28.7693589 C7.95080531,28.8766407 7.01039677,29.2668975 6.03898575,29.4845706 L6.03898575,29.4845706 C5.06757473,29.7053533 3.98839319,29.7333399 3.14837363,29.1751638 L3.14837363,29.1751638 C2.67447859,28.8595378 2.3142593,28.3806569 2.05147638,27.8597962 L2.05147638,27.8597962 C1.19078851,26.1417334 1.37680338,23.9898791 2.20353616,22.2562682 L2.20353616,22.2562682 C3.03174526,20.5211024 4.42685683,19.155981 5.93269154,18.038074 L5.93269154,18.038074 C7.13440669,17.1487239 8.207683,16.5687805 9.35182211,15.5628197 L9.35182211,15.5628197 C9.84638548,15.1290282 10.3911433,14.451132 10.0722607,13.8618597 L10.0722607,13.8618597 C9.87443534,13.4933702 9.39758768,13.3783144 9.00931853,13.4887058 L9.00931853,13.4887058 C8.61957308,13.5990972 8.30069043,13.883627 8.00247611,14.1666021 L8.00247611,14.1666021 C7.29975324,14.8351695 6.60293561,15.5612649 5.7186268,15.9219803 L5.7186268,15.9219803 C4.83579429,16.281141 3.69017886,16.1614208 3.13213424,15.3544754 L3.13213424,15.3544754 C2.72614939,14.7683128 2.72024415,13.9784703 2.80439374,13.2554846 L2.80439374,13.2554846 C3.17642349,10.0416964 4.96423313,7.1419795 7.27022707,4.99789926 L7.27022707,4.99789926 C9.0905155,3.30471333 11.2208287,2.03599 13.4190521,0.967836895 L13.4190521,0.967836895 C15.8047667,-0.19204988 17.1053946,-0.397284537 19.5531141,0.835678214 L19.5531141,0.835678214 C19.6328348,0.874548415 19.7110791,0.914973423 19.7893235,0.955398431 L19.7893235,0.955398431 C22.8334717,2.53663818 24.3496406,4.93881655 26.6585871,7.46071514 L26.6585871,7.46071514 C27.7791053,8.68590386 28.9276734,9.95307238 29.524102,11.5343121 L29.524102,11.5343121 C29.9005607,12.5371633 30.0289995,13.7001597 29.5949648,14.6765791 L29.5949648,14.6765791 C29.1624064,15.6514437 28.0522224,16.32934 27.083764,15.9826178 L27.083764,15.9826178 C26.2998442,15.7043072 25.75361,14.8538272 24.9372114,14.7170041 L24.9372114,14.7170041 C22.7611326,14.3531791 22.5824992,17.9432307 22.992913,19.382983 L22.992913,19.382983 C23.648394,21.7027565 26.327894,22.459948 27.8735891,23.9401252 L27.8735891,23.9401252 C29.2406508,25.2508284 29.8976081,27.3342711 29.5447703,29.246685 L29.5447703,29.246685 C29.4990048,29.4985639 29.4296183,29.7628812 29.2568902,29.9463486 L29.2568902,29.9463486 C29.0251097,30.1982275 28.6648904,30.2448717 28.332721,30.2619746 L28.332721,30.2619746 C27.7850105,30.2868515 27.1885819,30.1717957 26.5921532,30.05674 L26.5921532,30.05674 C25.5602136,29.8561697 24.5223687,29.6571543 23.7118753,30.185789 L23.7118753,30.185789 C22.9338607,30.6926564 21.940305,31.8727557 21.5003651,32.7294549 L21.5003651,32.7294549 C20.1510191,35.3586353 22.1898012,38.446484 21.2966345,41.1969393 L21.2966345,41.1969393 C20.6957769,43.0502705 18.8164362,44.1324169 16.9518585,44.1324169 L16.9518585,44.1324169 C16.2683276,44.1324169 15.5862731,43.9878197 14.9706524,43.6815225" id="path69280" fill="#623FE9" transform="translate(15.678208, 22.066208) scale(-1, 1) rotate(-180.000000) translate(-15.678208, -22.066208) "></path>
                            <polygon id="path69290" fill="#FFFFFF" transform="translate(17.077525, 27.355068) scale(-1, 1) rotate(-180.000000) translate(-17.077525, -27.355068) " points="17.8079764 11.5355956 16.3470728 11.5355956 16.3470728 43.1745403 17.8079764 43.1745403"></polygon>
                            <polygon id="path69294" fill="#FFFFFF" transform="translate(17.076940, 24.025140) scale(-1, 1) rotate(-180.000000) translate(-17.076940, -24.025140) " points="17.0769402 20.1791854 10.4619688 26.8322826 11.4948276 27.8710944 17.0769402 22.256809 22.6590528 27.8710944 23.6919116 26.8322826"></polygon>
                            <polygon id="path69298" fill="#FFFFFF" transform="translate(17.076940, 36.344390) scale(-1, 1) rotate(-180.000000) translate(-17.076940, -36.344390) " points="17.0769402 32.4991698 10.4619688 39.1507977 11.4948276 40.1896095 17.0769402 34.5767934 22.6590528 40.1896095 23.6919116 39.1507977"></polygon>
                            <path d="M17.3058638,43.2309624 L17.3058638,43.2309624 C7.7486326,43.2309624 4.97379915e-14,51.0227853 4.97379915e-14,60.6351002 L4.97379915e-14,69.7713543 L34.6102667,69.7713543 L34.6102667,60.6351002 C34.6102667,51.0227853 26.8630951,43.2309624 17.3058638,43.2309624" id="path69302" fill="#BBDEFB" transform="translate(17.305133, 56.501158) scale(-1, 1) rotate(-180.000000) translate(-17.305133, -56.501158) "></path>
                        </g>
                        <g id="Group-8" transform="translate(195.021927, 0.000000)">
                            <g id="g69406" transform="translate(26.607549, 22.500000) scale(-1, 1) rotate(-180.000000) translate(-26.607549, -22.500000) translate(0.107549, 0.000000)" fill="#2196F3">
                                <path d="M1.79092779,44.9696635 C1.22026867,44.9696635 0.757646948,44.4976335 0.757646948,43.917107 L0.757646948,43.917107 L0.757646948,13.7748216 C0.757646948,13.1928861 1.22026867,12.7236742 1.79092779,12.7236742 L1.79092779,12.7236742 L8.02247006,12.7236742 L8.02247006,7.56234322 L8.02247006,0.711567603 C8.02247006,0.178948684 8.67761998,-0.0648160589 9.01419806,0.345215966 L9.01419806,0.345215966 L21.6199474,12.7236742 L51.5172223,12.7236742 C52.0878814,12.7236742 52.5518882,13.1928861 52.5518882,13.7748216 L52.5518882,13.7748216 L52.5518882,43.917107 C52.5518882,44.4976335 52.0878814,44.9696635 51.5172223,44.9696635 L51.5172223,44.9696635 L1.79092779,44.9696635 Z" id="path69426"></path>
                            </g>
                            <path d="M5.10966883,5.74860986 L47.9935031,5.74860986 C48.7630145,5.74860986 49.3865086,7.36068231 49.3865086,9.3502893 C49.3865086,11.3436716 48.7630145,12.9557441 47.9935031,12.9557441 L5.10966883,12.9557441 C4.34015742,12.9557441 3.71666335,11.3436716 3.71666335,9.3502893 C3.71666335,7.36068231 4.34015742,5.74860986 5.10966883,5.74860986" id="path69438" fill="#FFFFFF" transform="translate(26.551586, 9.352177) scale(-1, 1) rotate(-180.000000) translate(-26.551586, -9.352177) "></path>
                            <path d="M5.10966883,12.7336449 L47.9935031,12.7336449 C48.7630145,12.7336449 49.3865086,14.3457173 49.3865086,16.3390996 C49.3865086,18.3287066 48.7630145,19.9407791 47.9935031,19.9407791 L5.10966883,19.9407791 C4.34015742,19.9407791 3.71666335,18.3287066 3.71666335,16.3390996 C3.71666335,14.3457173 4.34015742,12.7336449 5.10966883,12.7336449" id="path69442" fill="#FFFFFF" transform="translate(26.551586, 16.337212) scale(-1, 1) rotate(-180.000000) translate(-26.551586, -16.337212) "></path>
                            <path d="M5.10966883,19.7188269 L39.0645424,19.7188269 C39.8340538,19.7188269 40.4575479,21.3308993 40.4575479,23.3205063 C40.4575479,25.3138887 39.8340538,26.9259611 39.0645424,26.9259611 L5.10966883,26.9259611 C4.34015742,26.9259611 3.71666335,25.3138887 3.71666335,23.3205063 C3.71666335,21.3308993 4.34015742,19.7188269 5.10966883,19.7188269" id="path69446" fill="#FFFFFF" transform="translate(22.087106, 23.322394) scale(-1, 1) rotate(-180.000000) translate(-22.087106, -23.322394) "></path>
                        </g>
                        <g id="Group-7" transform="translate(147.261362, 51.407367)">
                            <g id="g68848" transform="translate(61.000000, 91.222978) scale(-1, 1) rotate(180.000000) translate(-61.000000, -91.222978) translate(0.000000, 41.722978)" fill="#2196F3">
                                <path d="M35.5520888,91.7451798 L17.3934954,84.278306 C10.5670784,81.4711994 6.10699544,74.7989572 6.10699544,67.3897941 L0.0835996509,1.33178487 L121.671325,0.773914985 L121.671325,23.5503958 C121.671325,41.0367311 116.943077,58.1960392 107.991969,73.1948964 L102.248526,82.8192617 C98.6032514,88.9262352 92.3470531,92.9940981 85.3069883,93.8331225 L69.491154,95.718338 L65.2609267,98.8909455 L35.5520888,91.7451798 Z" id="path68850"></path>
                            </g>
                            <g id="g68852" transform="translate(51.859050, 91.233609) scale(-1, 1) rotate(180.000000) translate(-51.859050, -91.233609) translate(34.359050, 42.733609)" fill="#FFFFFF">
                                <polygon id="path68854" points="0 90.2654188 1.19348106 81.6398922 1.19348106 57.6500074 12.680368 0.145016575 26.0193606 52.056511 34.8776423 93.5386501 30.7151929 96.7985635 1.19348106 90.7552197"></polygon>
                            </g>
                            <g id="g68856" transform="translate(47.570097, 104.705938) scale(-1, 1) rotate(180.000000) translate(-47.570097, -104.705938) translate(41.070097, 69.705938)" fill="#623FE9">
                                <polygon id="path68858" points="2.94686683 69.5487653 0.503914227 24.3095131 5.72870911 0.850862555 10.9166682 22.8756248 12.5536527 69.5487653"></polygon>
                            </g>
                            <path d="M71.4616004,23.679135 C71.4645234,24.8585044 71.1948851,26.0955846 70.4242794,26.9775221 C69.8982637,27.5797849 69.1748079,28.0459096 68.8771743,28.7887496 C68.7460387,29.1157767 68.7106763,29.4709194 68.6561593,29.820143 C68.5264972,30.6473293 68.2774869,31.4774752 67.7603118,32.1344891 C66.5093668,33.7163536 64.3861493,33.540262 62.8935612,34.6826375 C62.3380768,35.1073289 61.8872062,35.7243892 61.4333887,36.2526639 C60.8852715,36.8904408 60.530174,38.152677 59.7846167,38.5536922 C59.2011371,38.8674015 58.4924156,38.5596112 57.9045157,38.2518209 C56.6624113,37.6022059 55.3201135,36.4139578 53.8835159,36.8282909 C52.5913148,37.2026704 51.5613848,38.2103876 50.219087,38.456028 C47.1646595,39.0168574 44.7379147,35.3411311 41.6333905,35.3455704 C40.7007071,35.3470502 39.751816,35.6888749 38.8515482,35.4417549 C37.7538403,35.1413634 37.0628,34.0566986 36.6310841,33.0001493 C36.1978946,31.9421202 35.8943674,30.7879066 35.1267085,29.9444429 C34.3988324,29.1424124 33.3364869,28.717721 32.5688281,27.9526846 C31.2412646,26.6297783 31.0364574,24.5803094 30.9082687,22.7054522 C30.800708,21.1383854 30.6946208,19.5668792 30.7373504,17.9953731 C30.8508048,13.9067935 32.00745,9.85076874 34.0658365,6.32005908 L34.1822377,6.26826745 C34.4371417,6.81429924 35.094293,7.01406697 35.6762992,7.15464426 C37.0436454,7.48611072 38.4095182,7.81757718 39.7768644,8.14904363 C40.9423502,8.43167798 42.1240438,8.71727184 43.3234186,8.71283256 C44.5463684,8.70987304 45.7457432,8.4080018 46.9303836,8.10613056 C49.7932647,7.37956793 52.6561459,6.64560649 55.5175535,5.90572601 C57.5685729,5.37449182 59.6431671,4.83141955 61.4996932,3.80890472 C63.1838276,2.88257436 64.6557876,1.57002638 65.7711767,-2.87769808e-13 C66.5344152,3.13413372 67.8207225,6.13952824 69.5623208,8.85193009 C69.8953168,9.37132619 70.2504142,9.89516157 70.3859701,10.4974243 C70.5907774,11.4104368 70.2577814,12.3530445 70.2459939,13.2882535 C70.2253659,14.8582798 71.1020588,16.3291622 71.1167931,17.8977089 C71.1256337,18.8462356 70.8029518,19.7799648 70.8913578,20.7299714 C70.9620826,21.4846494 71.3481221,22.1594204 71.4217938,22.9140985 C71.4468422,23.1641781 71.4616004,23.4201768 71.4616004,23.679135" id="path68862" fill="#000000" transform="translate(51.094629, 19.342512) scale(-1, 1) rotate(180.000000) translate(-51.094629, -19.342512) "></path>
                            <polygon id="path68874" fill="#623FE9" transform="translate(49.051244, 67.141716) scale(-1, 1) rotate(180.000000) translate(-49.051244, -67.141716) " points="49.4210755 70.8914299 39.662526 63.3920013 58.3191398 63.3920013 58.4399614 64.0578938"></polygon>
                            <g id="g68876" transform="translate(34.507200, 31.466771) scale(-1, 1) rotate(180.000000) translate(-34.507200, -31.466771) translate(30.507200, 23.966771)" fill="#FFFFFF">
                                <path d="M1.50789278,14.7976096 L1.50789278,14.7976096 C0.429749442,13.5442521 -0.096505138,11.9209543 0.048252569,10.2872982 L0.538317723,4.77074935 C0.639346539,3.61505604 1.08115912,2.51411388 1.81550291,1.60406089 C1.84867655,1.56262758 1.88335808,1.52119427 1.91803962,1.4782812 C3.18617745,-0.042913068 5.58825064,0.0281154583 6.8292464,1.57150614 L7.23185378,2.07314511 L6.09188683,12.6993086 L1.50789278,14.7976096 Z" id="path68878"></path>
                            </g>
                            <g id="g68880" transform="translate(66.148446, 34.138923) scale(-1, 1) rotate(180.000000) translate(-66.148446, -34.138923) translate(62.148446, 26.638923)" fill="#FFFFFF">
                                <path d="M6.03157112,14.7976096 L6.03157112,14.7976096 C7.10971446,13.5442521 7.63596904,11.9209543 7.49121133,10.2872982 L7.00114618,4.77074935 C6.90011736,3.61505604 6.45830478,2.51411388 5.723961,1.60406089 C5.69078735,1.56262758 5.65610582,1.52119427 5.62142429,1.4782812 C4.35328646,-0.042913068 1.95272115,0.0295952193 0.7102175,1.57150614 L0.307610127,2.07314511 L1.44757707,12.7007884 L6.03157112,14.7976096 Z" id="path68882"></path>
                            </g>
                            <g id="g68900" transform="translate(50.232187, 41.694498) scale(-1, 1) rotate(180.000000) translate(-50.232187, -41.694498) translate(34.232187, 18.194498)" fill="#FFFFFF">
                                <path d="M0,42.913068 L0,23.5134017 C0,19.7370517 1.02108936,16.0332101 2.95570743,12.7954931 L7.36716707,5.41000609 C9.01593905,2.65173165 11.9849074,0.963324388 15.1896251,0.963324388 C18.3412991,0.963324388 21.2704848,2.59846025 22.9354645,5.28718593 L27.7152825,13.0100584 C29.1356723,15.3036879 30.0978243,17.8547958 30.5472215,20.5198453 L31.7451229,27.6019813 L31.7451229,46.0590398 L0,46.8980643 L0,42.913068 Z" id="path68902"></path>
                            </g>
                            <g id="g68904" transform="translate(51.016741, 42.689712) scale(-1, 1) rotate(180.000000) translate(-51.016741, -42.689712) translate(47.516741, 36.189712)" fill="#E6E7E8">
                                <path d="M6.51977025,12.2957899 L4.66506213,2.94370056 C4.59569906,2.17126534 3.78294485,1.68442398 3.05010896,1.97593689 L0.765651398,2.88451012 L0.108210146,1.8087239 L3.90508417,0.297887957 C4.63942795,0.00637504692 5.45067427,0.493216404 5.52003734,1.26565163 L6.51977025,12.2957899 Z" id="path68906"></path>
                            </g>
                            <g id="g68908" transform="translate(50.581122, 24.170989) scale(-1, 1) rotate(180.000000) translate(-50.581122, -24.170989) translate(32.081122, 8.670989)" fill="#000000">
                                <path d="M33.8889685,1.47976096 C32.8236761,5.72963446 32.2505105,10.1023281 32.1856795,14.4839003 C32.1650514,15.8275233 32.2357762,17.3501973 31.6935527,18.6109537 C31.1999525,19.7577684 29.5747555,19.06672 28.4770476,19.3227187 C27.030136,19.6601042 25.7394083,20.6175095 24.2571343,20.7062952 C22.7719134,20.7950808 21.9158486,20.1277086 20.7901455,19.2975627 C20.203719,18.8669523 19.6261331,18.4023074 18.9513006,18.1344706 C18.0318781,17.7689697 16.9975279,17.7970851 16.0353758,18.0175695 C13.9887768,18.4881335 12.2265505,19.7770053 10.2492028,20.4798918 C8.27038175,21.1827782 5.69924044,21.0999116 4.50133908,19.370071 C3.67032263,18.1685051 3.76904267,16.560005 4.07256995,15.1290761 C4.37609724,13.6981473 4.85348966,12.2568601 4.66636362,10.8066943 C4.47776414,9.35652858 3.60549156,0.907093471 2.15121278,0.985520802 L0.719035506,26.2450405 L20.0121726,30.4401628 L36.2317276,26.5942641 L33.8889685,1.47976096 Z" id="path68910"></path>
                            </g>
                        </g>
                        <g id="Group-3" transform="translate(62.710382, 71.144534)">
                            <g id="g68912" transform="translate(109.554856, 108.355728) scale(-1, 1) rotate(180.000000) translate(-109.554856, -108.355728) translate(94.554856, 96.855728)" fill="#FFFFFF">
                                <path d="M29.6583551,10.5498182 L29.6583551,14.5052193 C29.6583551,14.93435 29.5272195,15.3531223 29.284103,15.7053054 L26.3166081,19.9892134 L16.5005947,22.9250592 L10.6967405,20.0114098 C10.133889,19.7272957 9.70217297,19.2345353 9.49441886,18.6367119 L7.02789133,11.535339 L2.9258527,7.82261877 C2.9258527,7.82261877 0.728963486,6.28662688 0.144010421,3.02819324 C-0.308333637,0.511119839 3.06730231,0.305433065 3.06730231,0.305433065 L7.52001809,0.147098642 L11.6972018,0.147098642 L11.6972018,1.7408012 L15.719675,1.55731084 C16.0924537,1.53955371 16.460812,1.63721793 16.7761268,1.83698566 C17.9239314,2.5635483 18.3335459,4.39845189 17.1724804,5.10577763 L12.8833157,7.95579725 C12.5797884,8.14076737 11.8194968,8.27838514 11.9771542,8.59801351 C12.1628068,8.96943351 12.632832,9.09225367 12.9746686,8.85697168 L18.7844165,4.85125875 C19.5388144,4.33038289 20.5422226,4.35997811 21.2656784,4.92376704 C22.1467916,5.60889636 22.3442317,6.86669318 21.7136022,7.79006402 L20.2593234,9.92091981 L14.7604699,12.7872168 C15.1155673,13.3436069 15.8331294,13.5389354 16.4210293,13.2400237 L20.4037199,10.7703026 L22.3294973,8.46483502 C23.100103,7.54146418 24.4792367,7.44823924 25.367717,8.25618873 C26.1515836,8.96943351 26.7704256,10.1754387 26.1736851,11.0499774 L23.8176651,14.7508596 L17.2667801,18.1705872 C17.6292447,18.6973821 18.3158647,18.8882713 18.894924,18.623394 L23.3623741,15.9790612 L25.898153,13.7771769 L25.9585638,13.4471902 C26.2841926,11.6803556 27.8725538,10.4373564 29.6583551,10.5498182" id="path68914"></path>
                            </g>
                            <polygon id="path68920" fill="#2B2046" transform="translate(55.106827, 45.240103) scale(-1, 1) rotate(180.000000) translate(-55.106827, -45.240103) " points="67.8019291 21.8110477 42.4117246 21.8110477 42.4117246 68.6691584 67.8019291 68.6691584"></polygon>
                            <g id="g68922" transform="translate(100.417780, 54.087091) scale(-1, 1) rotate(180.000000) translate(-100.417780, -54.087091) translate(92.917780, 44.087091)" fill="#E6E7E8">
                                <polygon id="path68924" points="14.7343341 10.8160289 0.711668339 0.043369071 0.232802479 10.0613508 10.168164 19.7937387"></polygon>
                            </g>
                            <g id="g68926" transform="translate(53.106627, 79.155688) scale(-1, 1) rotate(180.000000) translate(-53.106627, -79.155688) translate(14.106627, 37.155688)" fill="#00BCD4">
                                <polygon id="path68928" points="60.4107699 73.9880482 77.613105 66.0772461 59.0051145 0.942607735 0.493600193 0.942607735 18.8997304 76.3083134 28.4284243 77.2168867 36.4630567 83.5591422"></polygon>
                            </g>
                            <g id="g68930" transform="translate(58.344318, 63.026412) scale(-1, 1) rotate(180.000000) translate(-58.344318, -63.026412) translate(46.344318, 35.526412)" fill="#FFFFFF">
                                <path d="M4.42030024,54.7511557 C4.42030024,54.7511557 3.96058901,48.6101477 2.522518,47.0208844 L0.508334528,40.3737982 L0.508334528,2.08202368 L16.3344828,0.924850603 L21.3706782,38.3509649 C21.3706782,38.3509649 21.3706782,41.6848664 23.2404652,42.6185955 C25.1117257,43.5523247 15.6508097,54.7511557 15.6508097,54.7511557 L4.42030024,54.7511557 Z" id="path68932"></path>
                            </g>
                            <g id="g68934" transform="translate(55.858002, 84.017287) scale(-1, 1) rotate(180.000000) translate(-55.858002, -84.017287) translate(45.358002, 55.517287)" fill="#E6E7E8">
                                <path d="M2.94686683,56.2309167 L1.49406148,46.1152707 L0.558431264,3.19776344 L9.74970889,0.884897057 L20.3436951,52.0757479 C14.9627163,48.7403667 7.9506467,49.9582099 3.99742485,54.9154092 L2.94686683,56.2309167 Z" id="path68936"></path>
                            </g>
                            <g id="g68938" transform="translate(43.141907, 73.069115) scale(-1, 1) rotate(180.000000) translate(-43.141907, -73.069115) translate(36.641907, 38.569115)" fill="#00BCD4">
                                <polygon id="path68940" points="5.89373365 63.6297215 0.857538246 47.8791458 6.90156211 43.1113559 0.857538246 39.9313496 3.87955018 0.698447175 12.0865743 0.547511557 11.8036751 68.2954078"></polygon>
                            </g>
                            <polygon id="path68944" fill="#00BCD4" transform="translate(63.617820, 78.435877) scale(-1, 1) rotate(180.000000) translate(-63.617820, -78.435877) " points="73.4699328 108.964085 78.5061282 95.5929653 70.8796368 93.1365621 76.8573562 86.9230458 57.0367299 45.2396592 48.7295123 46.1067991 70.7367138 111.632094"></polygon>
                            <g id="g68946" transform="translate(60.358681, 14.000000) scale(-1, 1) rotate(180.000000) translate(-60.358681, -14.000000) translate(42.358681, 0.000000)" fill="#2B2046">
                                <path d="M35.3624019,14.7976096 C35.0323528,16.764212 34.6536804,18.8343976 33.2509718,20.373349 C32.4612115,21.2390091 31.4032863,21.8679075 30.3630423,22.4834881 C28.1396313,23.7989956 25.9176937,25.1145031 23.6942827,26.4285308 C22.4787002,27.1476947 21.0170542,27.8979335 19.649708,27.4466064 C18.9822427,27.2276018 18.4414926,26.7392806 17.7504523,26.5898248 C16.8015612,26.3826582 15.8541435,26.854702 14.8964118,27.0204352 C12.724571,27.3962945 10.6455564,26.1888096 8.84796765,25.0331162 C7.19330192,23.9676883 5.52390187,22.8815438 4.22580703,21.4742911 C1.98618824,19.0445236 1.03287682,15.854159 0.652731002,12.7185455 C0.272585181,9.58441177 0.109034073,1.24743849 0.109034073,1.24743849 C5.28373222,-1.35990033 11.7226362,1.15717307 17.3865143,2.74791611 C23.0503923,4.33865915 28.0924815,7.31001917 32.9651258,10.3509279 C33.9744276,10.9798264 35.0470872,11.6960307 35.3800831,12.7570193 C35.5878372,13.4169927 35.4758563,14.1198791 35.3624019,14.7976096" id="path68948"></path>
                            </g>
                            <g id="g68966" transform="translate(63.610696, 27.977229) scale(-1, 1) rotate(180.000000) translate(-63.610696, -27.977229) translate(45.610696, 7.977229)" fill="#FFFFFF">
                                <path d="M32.4155351,35.9719653 C32.4155351,35.9719653 33.3040154,29.7244145 33.9095966,27.8170026 C34.0451524,27.3923112 34.1055632,26.9513425 34.0584133,26.5074142 L33.8300312,24.3395644 C33.8300312,24.3395644 35.0529809,20.7274678 35.2695756,18.7046346 C35.2695756,18.7046346 35.8442146,15.3085832 34.4061436,11.5514701 C34.4061436,11.5514701 31.3841317,2.80904231 29.6572677,1.29228733 C29.6572677,1.29228733 27.0684452,-1.0190993 22.1044481,0.715180549 L14.4101788,3.40242646 C11.9510184,4.26068782 10.0105066,6.19029612 9.12939343,8.6511386 L7.85929383,12.2025649 L5.15407008,12.2025649 C4.54112178,12.2025649 3.95911558,12.4659624 3.55244796,12.926168 L2.34128569,14.2993862 C1.02992996,15.7880257 0.30647415,17.7057959 0.30647415,19.6931149 L0.30647415,21.3770829 C0.30647415,21.3770829 1.16990613,24.8456426 4.26264286,23.1113627 L6.78074057,20.4389144 L7.35685303,20.509943 L7.35685303,26.1463525 C7.35685303,26.1463525 12.9588469,36.6245399 20.6914254,37.7521177 C21.4546639,37.8630998 22.0322498,38.4964375 22.0322498,39.2718322 L22.0322498,39.7290784 C22.0322498,39.7290784 28.3385448,41.1733251 32.4155351,35.9719653" id="path68968"></path>
                            </g>
                            <g id="g68970" transform="translate(76.734119, 28.521717) scale(-1, 1) rotate(180.000000) translate(-76.734119, -28.521717) translate(73.734119, 24.021717)" fill="#D1D3D4">
                                <path d="M5.02630927,2.95952193 L0.776564782,8.44499583 L3.0635355,2.95952193 C4.06125789,1.67212989 2.46289154,0.208646296 0.0578025566,0.208646296 L2.02308948,0.208646296 C4.42566531,0.208646296 6.02403166,1.67212989 5.02630927,2.95952193" id="path68972"></path>
                            </g>
                            <g id="g68974" transform="translate(54.897522, 27.286240) scale(-1, 1) rotate(180.000000) translate(-54.897522, -27.286240) translate(50.897522, 17.286240)" fill="#2B2046">
                                <path d="M7.36716707,1.47976096 C4.60300598,6.91936227 1.01666906,12.7111467 3.35942818,18.9527784 C3.68358353,19.8169588 2.30444986,20.1898586 1.98324137,19.333077 C1.11391566,17.0187309 1.01666906,14.7502573 1.36881964,12.5291361 C1.1463312,12.4299921 0.969519186,12.2302244 0.960678585,11.9150353 C0.848697646,7.38548697 2.68312225,3.40936926 6.24588424,0.611141278 C6.86619971,0.124299921 7.75615349,0.713244785 7.36716707,1.47976096" id="path68976"></path>
                            </g>
                            <path d="M39.7816459,116.794388 L42.535493,120.212636 L28.926862,118.916366 C23.4118007,118.389571 18.7660651,114.55551 17.1821242,109.223931 L0.274475807,52.3078854 C-0.964681693,48.1349595 2.14720968,43.9398371 6.48499764,43.9398371 L52.1761678,43.9398371 L52.1761678,57.0667967 L20.8097173,57.6453832 L26.4205517,81.6323084 L32.1757826,109.9135 L39.7816459,116.794388 Z" id="path68980" fill="#00BCD4" transform="translate(26.088084, 82.076237) scale(-1, 1) rotate(180.000000) translate(-26.088084, -82.076237) "></path>
                            <g id="g68982" transform="translate(66.675726, 100.511060) scale(-1, 1) rotate(180.000000) translate(-66.675726, -100.511060) translate(52.175726, 83.011060)" fill="#FFFFFF">
                                <path d="M-5.79628735e-14,9.33626793 L3.79556447,9.33626793 C6.17073913,9.33626793 8.36910179,10.592585 9.58321092,12.6435337 L20.2877047,30.7217734 L28.8174107,34.2598819 L27.9186163,31.7354097 L22.1250761,29.2775267 L20.7179472,26.6761069 L23.3082432,28.4103868 L26.7339758,28.4103868 L18.8231119,6.20805325 L17.0697261,4.69573754 C15.3296012,3.19525993 13.2093305,2.20825936 10.9446634,1.84423817 L-5.79628735e-14,0.0877619 L-5.79628735e-14,9.33626793 Z" id="path68984"></path>
                            </g>
                            <g id="g69018" transform="translate(82.002611, 99.212636) scale(-1, 1) rotate(180.000000) translate(-82.002611, -99.212636) translate(68.002611, 78.212636)" fill="#00BCD4">
                                <polygon id="path69020" points="0 0 14.7181264 41.3075273 27.1936871 40.2924113 19.8559887 0"></polygon>
                            </g>
                            <g id="g69022" transform="translate(101.899920, 44.799804) scale(-1, 1) rotate(180.000000) translate(-101.899920, -44.799804) translate(98.899920, 41.799804)" fill="#FFFFFF">
                                <path d="M3.76973195,0.597002936 L5.39448642,2.14669687 C6.12204469,2.83859186 6.14843281,3.98672277 5.456687,4.71443792 L5.25312147,4.92747371 C4.56137566,5.65330359 3.41349228,5.68158268 2.68593402,4.9896877 L1.06117954,3.43999376 C0.335506144,2.74809878 0.307233154,1.5980826 0.998978967,0.872252711 L1.20254449,0.659216926 C1.89429031,-0.0666129592 3.04405855,-0.0948920456 3.76973195,0.597002936" id="path69024"></path>
                            </g>
                            <g id="g69026" transform="translate(103.402656, 49.110361) scale(-1, 1) rotate(180.000000) translate(-103.402656, -49.110361) translate(99.402656, 45.610361)" fill="#FFFFFF">
                                <path d="M2.94686683,0.48615912 L7.00912275,3.35177321 C7.65596001,3.80725503 7.81803769,4.7121858 7.3730608,5.37278526 L7.24192523,5.56734537 C6.79842177,6.22794483 5.91436172,6.39384881 5.26752445,5.93836699 L1.20526853,3.07275289 C0.559904697,2.61727108 0.396353588,1.71234031 0.841330479,1.05174085 L0.972466053,0.858688953 C1.41744294,0.198089493 2.30150299,0.0306773014 2.94686683,0.48615912" id="path69028"></path>
                            </g>
                            <g id="g69030" transform="translate(105.118616, 52.094434) scale(-1, 1) rotate(180.000000) translate(-105.118616, -52.094434) translate(101.118616, 49.094434)" fill="#FFFFFF">
                                <path d="M2.94686683,0.21994845 L7.12110369,2.91211748 C7.78562215,3.33894316 7.98453567,4.23633284 7.56608058,4.91653913 L7.4437856,5.1156239 C7.02533051,5.79432197 6.14863763,5.99793139 5.4855926,5.5695975 L1.31135574,2.87893669 C0.648356363,2.45060279 0.449397191,1.55321311 0.866378847,0.874515038 L0.98867382,0.675430269 C1.40712891,-0.00326780555 2.28382179,-0.208385446 2.94686683,0.21994845" id="path69032"></path>
                            </g>
                            <g id="g69034" transform="translate(96.460631, 64.301116) scale(-1, 1) rotate(180.000000) translate(-96.460631, -64.301116) translate(83.960631, 48.801116)" fill="#FFFFFF">
                                <path d="M23.5749346,27.0933995 L10.2300482,17.7679459 C12.4298843,19.7079125 11.2349298,22.5727298 11.2349298,22.5727298 L11.2349298,25.6151183 L13.7117713,27.2680113 C14.4543818,27.7622515 14.6621359,28.7640496 14.1817966,29.5157682 C13.7029307,30.2630475 12.7201507,30.4909307 11.9657527,30.030725 L6.99144155,27.0046138 L0.579059331,14.4813968 L0.579059331,0.895711387 L9.67603722,0.00785480789 L13.7058776,12.554748 C21.6683118,14.9623191 24.0655879,24.7228224 24.0655879,24.7228224 L23.5749346,27.0933995 Z" id="path69036"></path>
                            </g>
                            <path d="M49.5637703,43.8475554 L48.9095659,45.8097184 L44.9990736,49.5194792 L43.4018718,62.347527 C41.682375,60.1101284 42.7093581,57.3311373 42.0433662,54.8244222 C41.5247176,52.8785366 39.9776126,51.1057829 39.6917665,49.1347413 C39.2865723,46.3483514 41.4348382,43.416945 39.9569845,40.8199645 C38.5085994,38.2747756 33.8908591,36.7624599 33.8186609,34.0175033 C33.7685642,32.150045 35.9713471,30.534146 35.9227238,28.6666877 C35.8829411,27.0937018 34.2326957,25.5932241 34.7896535,24.0705501 C35.0283497,23.4179755 35.6619261,22.8349497 35.6781339,22.1601787 C35.6958151,21.4780089 35.066659,20.8180355 35.2699928,20.1491835 C35.5926747,19.0881949 37.9265932,18.9387391 38.9314748,19.7585267 C39.9363564,20.5783142 39.8287958,21.8331515 39.2895192,22.8512271 C38.7502425,23.8678228 37.8514481,24.7793556 37.3946838,25.816668 C37.2222921,26.2058452 37.1176783,26.6408949 37.344587,27.0167542 C37.9059652,27.9445643 39.8450035,27.8261834 40.9810207,28.4314057 C42.8729092,29.4406026 41.5748144,31.5596203 40.1617917,32.9076826 C41.2005623,33.7955392 42.9863636,33.9523938 44.5644108,34.2231901 C46.142458,34.4939863 47.9076312,35.158399 48.0387668,36.3081733 C48.1625352,37.3943178 46.7229907,38.3606017 46.9454792,39.436388 C47.1281849,40.321285 48.3260863,40.8761954 49.2027792,41.5154521 C50.079472,42.1561886 50.5981206,43.3414771 49.5637703,43.8475554" id="path69056" fill="#000000" transform="translate(41.977023, 40.790785) scale(-1, 1) rotate(180.000000) translate(-41.977023, -40.790785) "></path>
                            <g id="g69058" transform="translate(102.189086, 54.402484) scale(-1, 1) rotate(180.000000) translate(-102.189086, -54.402484) translate(94.689086, 41.902484)" fill="#623FE9">
                                <path d="M14.924021,1.93746311 L13.2590412,0.151391621 L0.176425956,22.7813761 C-0.272971235,23.5582506 0.285460028,24.533413 1.18130754,24.533413 C1.59534233,24.533413 1.97843502,24.3114489 2.18618913,23.9533467 L14.924021,1.93746311 Z" id="path69060"></path>
                            </g>
                        </g>
                        <g id="Group-9" transform="translate(0.000000, 188.900323)">
                            <path d="M445.709187,56.5067502 L189.723255,14.0073256 C175.467158,11.6404926 160.857303,12.5924868 147.028903,16.7893362 L16.1620911,56.5067502 L16.1620911,56.5067502 L16.1620911,87.8998791 L445.709187,87.8998791 L445.709187,56.5067502 Z" id="path69240" fill="#F8F8F8" transform="translate(230.935639, 49.154560) scale(-1, 1) rotate(180.000000) translate(-230.935639, -49.154560) "></path>
                            <path d="M454.62538,2.14939178e-13 L5.68434189e-14,2.14939178e-13 L5.68434189e-14,2.14939178e-13 L5.68434189e-14,10.5773314 L465.202711,10.5773314 C465.202711,4.73563256 460.467079,2.14798834e-13 454.62538,2.14939178e-13 Z" id="path69246" fill="#E6E7E8" transform="translate(232.601356, 5.288666) scale(-1, 1) rotate(180.000000) translate(-232.601356, -5.288666) "></path>
                        </g>
                        <g id="Group-4" transform="translate(195.634610, 120.504271)">
                            <g id="g69248" transform="translate(53.500000, 65.008684) scale(-1, 1) rotate(180.000000) translate(-53.500000, -65.008684) translate(0.000000, 60.508684)" fill="#DFE2EC">
                                <path d="M97.700345,-4.64778542e-13 L8.70496687,-4.64778542e-13 C5.92607146,-4.64778542e-13 3.39765972,1.61293945 2.21596612,4.14037118 L0.0131831683,8.85193009 L106.393602,8.85193009 L104.189346,4.14037118 C103.009126,1.61293945 100.47924,-4.64778542e-13 97.700345,-4.64778542e-13" id="path69250"></path>
                            </g>
                            <g id="g69252" transform="translate(53.269977, 32.500000) scale(-1, 1) rotate(180.000000) translate(-53.269977, -32.500000) translate(2.769977, 0.000000)" fill="#FFFFFF">
                                <path d="M95.7731719,0 L5.09218588,0 C2.49304933,0 0.386039554,2.11605818 0.386039554,4.72635652 L0.386039554,60.0339023 C0.386039554,62.6442007 2.49304933,64.7602589 5.09365931,64.7602589 L95.7731719,64.7602589 C98.3723084,64.7602589 100.479318,62.6442007 100.479318,60.0339023 L100.479318,4.72635652 C100.479318,2.11605818 98.3723084,0 95.7731719,0" id="path69254"></path>
                            </g>
                            <g id="g69256" transform="translate(53.082353, 34.597148) scale(-1, 1) rotate(180.000000) translate(-53.082353, -34.597148) translate(45.582353, 27.097148)" fill="#E6E7E8">
                                <path d="M14.7343341,7.39880482 C14.7343341,3.45376209 11.5502445,0.254518886 7.62059761,0.254518886 C3.69242413,0.254518886 0.506861094,3.45376209 0.506861094,7.39880482 C0.506861094,11.3453273 3.69242413,14.5430908 7.62059761,14.5430908 C11.5502445,14.5430908 14.7343341,11.3453273 14.7343341,7.39880482" id="path69258"></path>
                            </g>
                        </g>
                    </g>
                </g>
            </g>
        </g>
    </g>
</svg>