<?xml version="1.0" encoding="UTF-8"?>
<svg width="347px" height="249px" viewBox="0 0 347 249" version="1.1" xmlns="http://www.w3.org/2000/svg" xmlns:xlink="http://www.w3.org/1999/xlink">
    <!-- Generator: Sketch 64 (93537) - https://sketch.com -->
    <title>illustration</title>
    <desc>Created with Sketch.</desc>
    <g id="Utilities" stroke="none" stroke-width="1" fill="none" fill-rule="evenodd">
        <g id="404" transform="translate(-131.000000, -271.000000)">
            <g id="Container" transform="translate(131.000000, 205.000000)">
                <g id="Artwork">
                    <g id="illustration" transform="translate(0.000000, 66.000000)">
                        <g id="Group-4" transform="translate(268.938047, 60.143622)">
                            <g id="Group" transform="translate(30.061953, 61.856378)" fill="#424242">
                                <rect id="Rectangle" x="0.454321351" y="0.0328628664" width="2.76049604" height="120.926606"></rect>
                            </g>
                            <g id="Group" transform="translate(31.000000, 77.500000) scale(-1, 1) rotate(-89.736113) translate(-31.000000, -77.500000) translate(-46.000000, 47.000000)" fill="#006064">
                                <path d="M77.1949706,0.203896257 C34.9288311,0.203896257 0.663722967,30.1637553 0.663722967,30.1637553 C0.663722967,30.1637553 34.9274625,60.1249859 77.1949706,60.1249859 C119.46111,60.1249859 153.72485,30.1651269 153.72485,30.1651269 C153.72485,30.1651269 119.46111,0.203896257 77.1949706,0.203896257" id="Path"></path>
                            </g>
                        </g>
                        <g id="Group-5" transform="translate(223.021197, 145.953497)">
                            <g id="Group" transform="translate(15.978803, 33.046503)" fill="#424242">
                                <rect id="Rectangle" x="0.923457529" y="0.236062567" width="1.41975422" height="61.9807513"></rect>
                            </g>
                            <g id="Group" transform="translate(17.000000, 41.000000) scale(-1, 1) rotate(-89.735555) translate(-17.000000, -41.000000) translate(-23.000000, 25.000000)" fill="#006064">
                                <path d="M40.0723188,0.719479879 C18.3329434,0.719479879 0.710417747,16.1301122 0.710417747,16.1301122 C0.710417747,16.1301122 18.334312,31.5393728 40.0723188,31.5393728 C61.8103255,31.5393728 79.4328512,16.1287405 79.4328512,16.1287405 C79.4328512,16.1287405 61.8103255,0.719479879 40.0723188,0.719479879" id="Path"></path>
                            </g>
                        </g>
                        <g id="Group-2" transform="translate(211.860054, 75.614810)">
                            <g id="Group" transform="translate(92.639946, 166.885190) scale(-1, 1) rotate(-90.000000) translate(-92.639946, -166.885190) translate(86.139946, 124.385190)" fill="#E0E0E0">
                                <path d="M6.41747982,0.1728713 C9.92346553,0.1728713 12.7660129,19.1601293 12.7660129,42.5821487 C12.7660129,66.004168 9.92346553,84.991426 6.41747982,84.991426 C2.91016457,84.991426 0.0676171884,66.004168 0.0676171884,42.5821487 C0.0676171884,19.1601293 2.91016457,0.1728713 6.41747982,0.1728713" id="Path"></path>
                            </g>
                            <g id="Group" transform="translate(35.139946, 8.385190)" fill="#212121">
                                <path d="M27.8868838,6.52018565 C24.2784153,0.378680265 17.1407553,0.0922602827 17.1407553,0.0922602827 C17.1407553,0.0922602827 10.1862523,-0.802802162 5.72350626,8.54991187 C1.56419958,17.2691971 -4.17517891,25.6869151 4.79951963,27.7276575 L6.42059677,22.6450798 L7.42386035,28.1063378 C8.25900212,28.1669266 9.10371179,28.197221 9.94295408,28.197221 C10.3803442,28.197221 10.8300359,28.1848279 11.2633255,28.1710577 C20.8749734,27.8584743 30.0273617,28.263318 29.7334902,24.7877216 C29.3425728,20.1705764 31.3586679,12.4303518 27.8868838,6.52018565" id="Path"></path>
                            </g>
                            <g id="Group" transform="translate(50.139946, 24.385190)" fill="#FBBEBE">
                                <path d="M0.878683831,2.71605156 C0.878683831,2.71605156 5.65128024,9.1250744 2.7885619,14.3129476 C-0.075555616,19.5008208 9.46963721,24.9946523 9.46963721,24.9946523 L16.4697251,10.3462241 C16.4697251,10.3462241 8.19778434,5.15835088 10.4252758,0.275094155 L0.878683831,2.71605156 Z" id="Path"></path>
                            </g>
                            <g id="Group" transform="translate(53.139946, 21.385190) scale(-1, 1) rotate(-90.000000) translate(-53.139946, -21.385190) translate(44.639946, 12.885190)" fill="#FBBEBE">
                                <path d="M8.52379373,0.0555564 C13.0935093,0.0555564 16.7971337,3.73194823 16.7971337,8.26806297 C16.7971337,12.8027888 13.0935093,16.4791806 8.52379373,16.4791806 C3.95547732,16.4791806 0.25185296,12.8027888 0.25185296,8.26806297 C0.25185296,3.73194823 3.95547732,0.0555564 8.52379373,0.0555564" id="Path"></path>
                            </g>
                            <g id="Group" transform="translate(25.139946, 13.385190)" fill="#FBBEBE">
                                <path d="M0.580688295,17.3744787 L7.11773056,8.67564135 C7.11773056,8.67564135 9.4193197,-0.442104733 12.7526557,0.0191042133 C16.0859917,0.481677683 11.4351943,10.9543956 11.4351943,10.9543956 L4.9418029,20.583838 L0.580688295,17.3744787 Z" id="Path"></path>
                            </g>
                            <g id="Group" transform="translate(63.952700, 153.072030) scale(-1, 1) rotate(100.713672) translate(-63.952700, -153.072030) translate(56.452700, 150.072030)" fill="#FBBEBE">
                                <polygon id="Path" points="0.335197914 0.0654802875 12.0561742 0.0654802875 14.1474461 4.43148266 0.459743552 5.75650882"></polygon>
                            </g>
                            <g id="Group" transform="translate(106.139946, 131.385190)" fill="#FBBEBE">
                                <polygon id="Path" points="0.106749857 3.34123724 8.69770323 15.1153207 12.1970476 16.7061862 15.0611651 11.9335898 6.47021174 0.796132324"></polygon>
                            </g>
                            <g id="Group" transform="translate(41.139946, 31.385190)" fill="#00BED6">
                                <path d="M16.4130996,12.6143386 L11.2621078,5.70157583 C11.2621078,5.70157583 1.28061831,7.57718526 0.353086702,8.52260315 C-0.573086878,9.46663683 2.82469362,26.7803806 2.82469362,26.7803806 C2.82469362,26.7803806 3.44259535,31.5019332 6.22247411,34.0198177 L9.00099486,35.9092693 L31.8552107,31.1863325 L32.714841,20.821341 C32.7773102,20.062792 32.8085448,19.2959376 32.8085448,18.5318517 C32.8085448,11.6675365 30.2581724,5.04822701 25.6775514,0.020763204 L21.7012519,0.574448645 L16.4130996,12.6143386 Z" id="Path"></path>
                            </g>
                            <g id="Group" transform="translate(19.139946, 26.385190)" fill="#00BED6">
                                <path d="M23.0408129,14.5859631 L21.5150467,13.9661244 L14.496791,13.3462857 C14.496791,13.3462857 12.0544917,12.726447 12.6650665,11.4881318 C13.2756413,10.2484543 13.8862162,9.93785384 12.6650665,9.62861562 C11.4439168,9.3193774 11.1393004,9.0087769 11.4439168,8.07969995 C11.7498752,7.150623 13.5802578,5.29110683 13.5802578,5.29110683 L8.3923846,0.953598038 C8.3923846,0.953598038 8.11192275,1.15521591 7.65835288,1.52848143 C5.08320321,3.64546907 -3.0676353,11.2851516 2.89989497,18.9234719 C9.91815071,27.9077277 18.158898,33.1743135 24.8725373,31.3147973 L23.0408129,14.5859631 Z" id="Path"></path>
                            </g>
                            <g id="Group" transform="translate(46.139946, 62.385190)" fill="#0445A2">
                                <path d="M2.980798,3.37575452 L2.980798,7.70978774 C2.980798,7.70978774 0.174211388,12.9721535 1.10974026,17.9255287 C2.04526913,22.878904 2.35802658,25.3549111 2.35802658,25.3549111 C2.4540486,29.5582699 3.19753342,33.7480169 4.53909828,37.7363075 C6.72291347,43.9270057 -0.451303516,84.4796181 8.59534295,85.0975989 C17.6419894,85.716941 22.6323912,86.3362831 25.4403496,83.240934 C28.2483079,80.1455849 20.7613335,26.9012244 20.7613335,26.9012244 C20.7613335,26.9012244 46.3416009,79.8365944 51.6447601,77.6695778 C56.9479194,75.5025612 70.3621962,70.5491859 68.8025242,67.7628272 C67.2428521,64.9764686 27.9355505,3.0654029 27.9355505,3.0654029 L26.6886359,0.279044225 L2.980798,3.37575452 Z" id="Path"></path>
                            </g>
                            <g id="Group" transform="translate(57.139946, 155.385190)" fill="#00A1E9">
                                <path d="M8.20067996,0.210067506 C8.20067996,0.210067506 3.30101274,-0.0930666393 3.30101274,1.41994502 C3.30101274,2.93162714 0.84983233,8.07161226 0.84983233,8.07161226 C0.84983233,8.07161226 -0.987206177,14.1183407 3.91246104,13.513402 C8.81347506,12.9084632 11.8761038,7.4666735 11.8761038,7.4666735 L10.6518604,1.72174963 L8.20067996,0.210067506 Z" id="Path"></path>
                            </g>
                            <g id="Group" transform="translate(113.139946, 141.385190)" fill="#00A1E9">
                                <path d="M4.20850817,3.71472282 C4.20850817,3.71472282 -0.159122212,0.993163188 0.152263496,2.80664992 C0.465020948,4.62146619 0.776406657,9.45831716 2.96022185,9.7614513 C5.14403704,10.0632559 11.6954826,11.8780722 12.0068683,12.4830109 C12.3196258,13.0866202 19.8052285,15.5063752 19.8052285,11.574938 C19.8052285,7.64483043 15.1262124,4.62146619 15.1262124,4.62146619 L9.82305313,0.690029042 C9.82305313,0.690029042 6.39232336,0.388224432 5.7681802,2.50484531 C5.14403704,4.62146619 4.20850817,3.71472282 4.20850817,3.71472282" id="Path"></path>
                            </g>
                            <g id="Group" transform="translate(53.639946, 8.885190) scale(-1, 1) rotate(-90.000000) translate(-53.639946, -8.885190) translate(48.139946, 3.385190)" fill="#212121">
                                <path d="M5.31123882,0.101851933 C8.14408059,0.101851933 10.4391442,2.39827352 10.4391442,5.22975727 C10.4391442,8.06124102 8.14408059,10.3576626 5.31123882,10.3576626 C2.47975507,10.3576626 0.18333348,8.06124102 0.18333348,5.22975727 C0.18333348,2.39827352 2.47975507,0.101851933 5.31123882,0.101851933" id="Path"></path>
                            </g>
                            <g id="Group" transform="translate(46.139946, 1.385190)" fill="#212121">
                                <path d="M1.33662752,5.22160912 C1.33662752,2.59926134 3.4366292,0.397901553 6.20206351,0.12222232 C6.01338023,0.103209959 5.82037596,0.0937037787 5.63025235,0.0937037787 C2.62716353,0.0937037787 0.191564873,2.39012537 0.191564873,5.22160912 C0.191564873,8.05309286 2.62716353,10.3495145 5.63025235,10.3495145 C5.82037596,10.3495145 6.01338023,10.3386502 6.20206351,10.3196379 C3.4366292,10.0439587 1.33662752,7.84395689 1.33662752,5.22160912 Z" id="Path"></path>
                            </g>
                            <g id="Group" transform="translate(42.139946, 9.385190)" fill="#212121">
                                <polygon id="Path" points="19.1591374 4.6127983 12.0823142 0.97239135 2.30864382 2.46195483 0.286694331 11.2296386 5.31962017 11.0397395 6.72565696 7.81818807 6.72565696 10.9872142 9.04938996 10.899672 10.3964418 5.77104839 11.2400639 11.2296386 19.4965862 11.0639819"></polygon>
                            </g>
                            <g id="Group" transform="translate(41.139946, 60.385190)" fill="#FBBEBE">
                                <path d="M20.0011856,6.02202128 L9.14367203,6.33169231 C9.14367203,6.33169231 -0.120078069,8.23436873 0.399805388,4.28786351 C0.919688845,0.341358298 9.95692804,1.72119479 9.95692804,1.72119479 L19.8497235,0.128189403 L20.0011856,6.02202128 Z" id="Path"></path>
                            </g>
                            <g id="Group" transform="translate(58.139946, 30.385190)" fill="#00BED6">
                                <path d="M12.281217,0.173857242 C12.3964434,0.157299495 12.5130416,0.147640809 12.6296397,0.147640809 C13.6461015,0.147640809 14.5445933,0.809950707 14.850492,1.78409818 C16.9876679,8.55621689 23.5706636,31.2210135 17.030192,34.3311104 C9.32648208,37.9931322 3.70507841,37.8316942 3.70507841,37.8316942 L0.696845551,30.3807078 L3.434845,27.7949396 L6.35940152,8.88047278 L7.76132308,0.863763386 L12.281217,0.173857242 Z" id="Path"></path>
                            </g>
                            <g id="Group" transform="translate(63.038982, 52.020001) scale(-1, 1) rotate(84.289846) translate(-63.038982, -52.020001) translate(53.538982, 45.520001)" fill="#000000" fill-opacity="0.4">
                                <polygon id="Path" points="0.515688437 10.5902188 13.02911 10.5902188 18.7582123 0.193010154 14.7631694 12.0181204"></polygon>
                            </g>
                            <g id="Group" transform="translate(5.139946, 1.385190)" fill="#651FFF">
                                <path d="M4.82370756,0.136452351 C8.30432763,1.06159929 11.3164288,3.26394023 13.2706279,6.30136956 L14.2796411,7.87330065 L14.331246,7.93879777 L32.0534824,13.1499131 C32.6048409,13.3109268 32.9837301,13.8185296 32.9837301,14.395723 C32.9837301,14.510343 32.9674338,14.624963 32.9375572,14.7368539 L31.5618771,19.8060587 C31.4084202,20.3696069 30.8978025,20.7625897 30.3152094,20.7625897 C30.1970612,20.7625897 30.080271,20.7462154 29.9675548,20.7148314 L12.2398863,15.7356851 L12.2398863,15.7356851 L10.4595145,16.4124888 C8.66420446,17.0947505 6.75482022,17.4454331 4.83321374,17.4454331 C3.27555818,17.4454331 1.71926063,17.2148286 0.229506356,16.7618068 L0.230864382,16.7618068 L4.82370756,0.136452351 Z" id="Path"></path>
                            </g>
                            <g id="Group" transform="translate(26.048164, 16.792276) scale(-1, 1) rotate(-16.311842) translate(-26.048164, -16.792276) translate(23.548164, 15.292276)" fill="#E0E0E0">
                                <path d="M2.54771504,0.0904399598 C3.6768378,0.0904399598 4.59245372,0.58012364 4.59245372,1.18365535 C4.59245372,1.78718705 3.6768378,2.27687073 2.54771504,2.27550195 C1.41722364,2.27687073 0.501607718,1.78718705 0.501607718,1.18365535 C0.502976352,0.578751977 1.41722364,0.0904399598 2.54771504,0.0904399598" id="Path"></path>
                            </g>
                            <g id="Group" transform="translate(27.139946, 16.385190) scale(-1, 1) rotate(-90.000000) translate(-27.139946, -16.385190) translate(26.139946, 15.385190)" fill="#3E3938">
                                <path d="M0.775309262,0.0654321511 C1.14938364,0.0654321511 1.45185301,0.367901529 1.45185301,0.741975902 C1.45185301,1.11481571 1.14938364,1.41851965 0.775309262,1.41851965 C0.402469458,1.41851965 0.0987655111,1.11481571 0.0987655111,0.741975902 C0.0987655111,0.367901529 0.402469458,0.0654321511 0.775309262,0.0654321511" id="Path"></path>
                            </g>
                            <g id="Group" transform="translate(7.000000, 10.500000) scale(-1, 1) rotate(-17.966145) translate(-7.000000, -10.500000) translate(3.000000, 1.000000)" fill="#0445A2">
                                <path d="M3.95907062,0.937233669 C6.14341067,0.937233669 7.91305458,4.86019108 7.91305458,9.69941966 C7.91305458,14.5400199 6.14341067,18.4629773 3.95907062,18.4629773 C1.7760992,18.4629773 0.00645529312,14.5386482 0.00645529312,9.69941966 C0.00645529312,4.86019108 1.7760992,0.937233669 3.95907062,0.937233669" id="Path"></path>
                            </g>
                            <g id="Group" transform="translate(3.139946, 1.385190)" fill="#000000" fill-opacity="0.4">
                                <path d="M6.27361693,10.2847305 C7.72917365,5.79306019 7.33334,1.60694573 5.4166718,0.69722278 C5.53194967,0.71111168 5.64583865,0.7361117 5.75694985,0.77222284 C7.86528487,1.45555672 8.34861859,5.78889352 6.83750627,10.4500084 C5.32500506,15.1111232 2.39166938,18.3347369 0.28333436,17.651403 C0.20694541,17.626403 0.13194535,17.5972363 0.05972307,17.5625141 C2.13333584,17.8264032 4.84167134,14.7000118 6.27361693,10.2847305" id="Path"></path>
                            </g>
                        </g>
                        <g id="Group-3">
                            <g id="Group" fill="#00A1E9">
                                <path d="M221.620585,77.8124285 L181.032923,46.1404279 C173.880954,40.5460612 166.929059,34.4429905 160.403351,28.1414011 C148.827823,17.0533058 133.120625,8.18338103 114.834388,3.46029083 C70.4055748,-8.01243439 35.2089541,12.3315942 19.201645,42.2045194 C-5.26085606,87.8541649 -24.0075377,161.930582 84.4573639,122.49981 C108.178494,113.876655 132.190143,112.959885 150.396898,108.417391 L216.322729,94.7430388 L221.620585,77.8124285 Z" id="Path"></path>
                            </g>
                            <g id="Group" transform="translate(99.000000, 23.000000) scale(-1, 1) rotate(-90.000000) translate(-99.000000, -23.000000) translate(96.000000, 21.000000)" fill="#BDE0FB">
                                <path d="M2.67111325,0.06666752 C3.97481799,0.06666752 5.02963365,0.946915138 5.02963365,2.03210119 C5.02963365,3.11728724 3.97481799,3.99753486 2.67111325,3.99753486 C1.36888998,3.99753486 0.312592843,3.11728724 0.312592843,2.03210119 C0.312592843,0.946915138 1.36888998,0.06666752 2.67111325,0.06666752" id="Path"></path>
                            </g>
                            <g id="Group" transform="translate(139.000000, 27.000000)" fill="#F2F2F2">
                                <polygon id="Path" points="2.13333504 0.859259947 1.62098895 0.859259947 1.62098895 0.348148427 1.52098887 0.348148427 1.52098887 0.859259947 1.00987735 0.859259947 1.00987735 0.959260027 1.52098887 0.959260027 1.52098887 1.47037155 1.62098895 1.47037155 1.62098895 0.959260027 2.13333504 0.959260027"></polygon>
                            </g>
                            <g id="Group" transform="translate(197.000000, 74.000000)" fill="#F2F2F2">
                                <polygon id="Path" points="1.66049516 1.39382828 1.14814907 1.39382828 1.14814907 0.881482187 1.04814899 0.881482187 1.04814899 1.39382828 0.537037467 1.39382828 0.537037467 1.49382836 1.04814899 1.49382836 1.04814899 2.00493988 1.14814907 2.00493988 1.14814907 1.49382836 1.66049516 1.49382836"></polygon>
                            </g>
                            <g id="Group" transform="translate(193.000000, 89.000000)" fill="#F2F2F2">
                                <polygon id="Path" points="1.71358162 0.7777792 1.2024701 0.7777792 1.2024701 0.26666768 1.10247002 0.26666768 1.10247002 0.7777792 0.591358498 0.7777792 0.591358498 0.87777928 1.10247002 0.87777928 1.10247002 1.39012537 1.2024701 1.39012537 1.2024701 0.87777928 1.71358162 0.87777928"></polygon>
                            </g>
                            <g id="Group" transform="translate(44.000000, 33.000000)" fill="#F2F2F2">
                                <polygon id="Path" points="1.7975323 1.13580338 1.28642078 1.13580338 1.28642078 0.624691858 1.1864207 0.624691858 1.1864207 1.13580338 0.674074613 1.13580338 0.674074613 1.23580346 1.1864207 1.23580346 1.1864207 1.74691498 1.28642078 1.74691498 1.28642078 1.23580346 1.7975323 1.23580346"></polygon>
                            </g>
                            <g id="Group" transform="translate(142.000000, 92.000000)" fill="#F2F2F2">
                                <polygon id="Path" points="1.45926043 0.76666728 0.948148907 0.76666728 0.948148907 0.254321191 0.848148827 0.254321191 0.848148827 0.76666728 0.337037307 0.76666728 0.337037307 0.86666736 0.848148827 0.86666736 0.848148827 1.37777888 0.948148907 1.37777888 0.948148907 0.86666736 1.45926043 0.86666736"></polygon>
                            </g>
                            <g id="Group" transform="translate(81.000000, 13.000000)" fill="#F2F2F2">
                                <polygon id="Path" points="2.15555728 0.586420222 1.64321119 0.586420222 1.64321119 0.0753087022 1.54444568 0.0753087022 1.54444568 0.586420222 1.03209959 0.586420222 1.03209959 0.686420302 1.54444568 0.686420302 1.54444568 1.19753182 1.64321119 1.19753182 1.64321119 0.686420302 2.15555728 0.686420302"></polygon>
                            </g>
                            <g id="Group" transform="translate(83.409326, 61.395354) scale(-1, 1) rotate(8.766148) translate(-83.409326, -61.395354) translate(82.409326, 58.395354)" fill="#E6E6E6">
                                <path d="M0.724676501,0.860624031 L1.43910376,0.860624031 C1.43636649,2.29264115 1.4842687,3.75071988 1.57459858,5.18548032 L0.86153996,5.2321169 C0.767104173,3.77952482 0.720570597,2.30910111 0.724676501,0.860624031" id="Path"></path>
                            </g>
                            <g id="Group" transform="translate(81.610206, 53.203125) scale(-1, 1) rotate(16.952091) translate(-81.610206, -53.203125) translate(80.610206, 50.703125)" fill="#E6E6E6">
                                <path d="M0.452790393,0.0604895136 L1.16858607,0.0604895136 C1.17269197,1.49387787 1.22743734,2.94784118 1.33419081,4.3784862 L0.618395129,4.43198108 C0.513010297,2.98350443 0.459633564,1.51308116 0.452790393,0.0604895136" id="Path"></path>
                            </g>
                            <g id="Group" transform="translate(78.828441, 44.993689) scale(-1, 1) rotate(24.677927) translate(-78.828441, -44.993689) translate(77.828441, 42.493689)" fill="#E6E6E6">
                                <path d="M0.418069935,0.0567506301 L1.13386546,0.0567506301 C1.13523409,1.49562533 1.18587355,2.94821667 1.28304656,4.37886139 L0.569988297,4.42961293 C0.471446657,2.98113659 0.416701301,1.51071363 0.418069935,0.0567506301" id="Path"></path>
                            </g>
                            <g id="Group" transform="translate(75.105229, 36.998959) scale(-1, 1) rotate(32.376133) translate(-75.105229, -36.998959) translate(74.105229, 33.998959)" fill="#E6E6E6">
                                <path d="M0.651159169,0.694395558 L1.36558609,0.694395558 C1.36284882,2.12915532 1.41075101,3.58311837 1.50381811,5.01239148 L0.789391197,5.0603997 C0.693586821,3.61466663 0.647053267,2.14424362 0.651159169,0.694395558" id="Path"></path>
                            </g>
                            <g id="Group" transform="translate(70.064204, 29.554484) scale(-1, 1) rotate(40.397984) translate(-70.064204, -29.554484) translate(68.564204, 26.554484)" fill="#E6E6E6">
                                <path d="M1.212213,0.988525308 L1.92800849,0.988525308 C1.92663986,2.42328495 1.97727931,3.87861954 2.07445231,5.31200751 L1.36276272,5.3572724 C1.26285245,3.91153945 1.21084437,2.43974491 1.212213,0.988525308" id="Path"></path>
                            </g>
                            <g id="Group" transform="translate(64.245160, 22.991612) scale(-1, 1) rotate(48.193202) translate(-64.245160, -22.991612) translate(63.245160, 20.491612)" fill="#E6E6E6">
                                <path d="M0.854853186,0.543308601 L1.56928024,0.543308601 C1.5679116,1.98218363 1.61718243,3.43751862 1.71435546,4.86816366 L0.998559777,4.91617188 C0.901386748,3.46906688 0.852115917,1.99727193 0.854853186,0.543308601" id="Path"></path>
                            </g>
                            <g id="Group" transform="translate(57.295814, 17.633137) scale(-1, 1) rotate(55.826062) translate(-57.295814, -17.633137) translate(55.795814, 15.133137)" fill="#E6E6E6">
                                <path d="M1.04781936,0.62598645 L1.76361482,0.62598645 C1.75677165,2.06211769 1.80193656,3.51745222 1.89637229,4.94946847 L1.18194547,4.99884835 C1.08887837,3.54900047 1.04371346,2.07720599 1.04781936,0.62598645" id="Path"></path>
                            </g>
                            <g id="Group" transform="translate(51.500000, 13.500000) scale(-1, 1) rotate(90.000000) translate(-51.500000, -13.500000) translate(50.000000, 12.000000)" fill="#E6E6E6">
                                <path d="M0.665432631,0.283950844 L1.39506284,0.283950844 C1.74568041,0.954321751 2.11358194,1.61975438 2.49012545,2.27160676 L1.93086574,2.59382924 C1.49259379,1.83580394 1.07037123,1.06666752 0.665432631,0.283950844" id="Path"></path>
                            </g>
                            <g id="Group" transform="translate(83.604990, 68.826680) scale(-1, 1) rotate(-178.937463) translate(-83.604990, -68.826680) translate(82.104990, 67.326680)" fill="#E6E6E6">
                                <path d="M1.31430609,2.26244691 L2.03010165,2.26244691 C2.03010165,1.5382087 2.01641531,0.811227166 1.99314853,0.0993339257 L1.27735297,0.124023865 C1.30198838,0.827687125 1.31293745,1.54643868 1.31430609,2.26244691" id="Path"></path>
                            </g>
                            <g id="Group" transform="translate(41.351841, 123.183424) scale(-1, 1) rotate(8.776990) translate(-41.351841, -123.183424) translate(39.851841, 120.683424)" fill="#E6E6E6">
                                <path d="M1.13359315,0.0341017874 L1.8480203,0.0341017874 C1.84528303,1.4661187 1.89455387,2.92419722 1.98625237,4.35895746 L1.27182522,4.40559402 C1.17738945,2.95300216 1.12948724,1.48257866 1.13359315,0.0341017874" id="Path"></path>
                            </g>
                            <g id="Group" transform="translate(39.987945, 114.526965) scale(-1, 1) rotate(16.952091) translate(-39.987945, -114.526965) translate(38.987945, 112.026965)" fill="#E6E6E6">
                                <path d="M0.868958962,0.0679237068 L1.58475464,0.0679237068 C1.58886054,1.50131206 1.64360591,2.95527537 1.75035938,4.3859204 L1.0345637,4.43941527 C0.929178866,2.99093862 0.874433498,1.52051535 0.868958962,0.0679237068" id="Path"></path>
                            </g>
                            <g id="Group" transform="translate(37.182805, 106.266213) scale(-1, 1) rotate(24.677927) translate(-37.182805, -106.266213) translate(36.182805, 103.766213)" fill="#E6E6E6">
                                <path d="M0.832238089,0.0642136673 L1.54803361,0.0642136673 C1.54940225,1.50171671 1.59867307,2.95567971 1.69721471,4.38632443 L0.984156451,4.43707597 C0.885614811,2.98859962 0.830869455,1.51817667 0.832238089,0.0642136673" id="Path"></path>
                            </g>
                            <g id="Group" transform="translate(32.862388, 98.265389) scale(-1, 1) rotate(32.365960) translate(-32.862388, -98.265389) translate(31.362388, 95.265389)" fill="#E6E6E6">
                                <path d="M1.06043646,0.970615074 L1.77486333,0.970615074 C1.77349469,2.40537473 1.81865961,3.85933768 1.91172671,5.28861068 L1.19866848,5.33661889 C1.10286411,3.89088593 1.05633056,2.42046303 1.06043646,0.970615074" id="Path"></path>
                            </g>
                            <g id="Group" transform="translate(27.991058, 91.489806) scale(-1, 1) rotate(40.397984) translate(-27.991058, -91.489806) translate(26.991058, 88.989806)" fill="#E6E6E6">
                                <path d="M0.358448422,0.155842824 L1.07424391,0.155842824 C1.07287528,1.59060246 1.12351473,3.04593705 1.22068773,4.47932503 L0.508998143,4.52458991 C0.40771924,3.07885697 0.357079788,1.60706242 0.358448422,0.155842824" id="Path"></path>
                            </g>
                            <g id="Group" transform="translate(21.998957, 85.033379) scale(-1, 1) rotate(48.168654) translate(-21.998957, -85.033379) translate(20.998957, 82.033379)" fill="#E6E6E6">
                                <path d="M0.26387079,0.819374566 L0.978297528,0.819374566 C0.975560261,2.25824896 1.02483107,3.71358331 1.12200406,5.14422772 L0.406208684,5.19223593 C0.307667065,3.74375989 0.259764889,2.27333725 0.26387079,0.819374566" id="Path"></path>
                            </g>
                            <g id="Group" transform="translate(15.344007, 79.376768) scale(-1, 1) rotate(55.816940) translate(-15.344007, -79.376768) translate(14.344007, 76.376768)" fill="#E6E6E6">
                                <path d="M0.344839328,0.907621221 L1.06063516,0.907621221 C1.05379199,2.34375322 1.09895693,3.79908851 1.19202407,5.23247718 L0.477596873,5.28048541 C0.384529728,3.83063678 0.33936479,2.35884152 0.344839328,0.907621221" id="Path"></path>
                            </g>
                            <g id="Group" transform="translate(8.000000, 75.500000) scale(-1, 1) rotate(90.000000) translate(-8.000000, -75.500000) translate(7.000000, 74.000000)" fill="#E6E6E6">
                                <path d="M0.0345687289,0.529630053 L0.764198942,0.529630053 C1.11481651,1.20000096 1.48271804,1.86543359 1.85926155,2.51728596 L1.30000184,2.84074301 C0.861729884,2.08148315 0.440741893,1.31111216 0.0345687289,0.529630053" id="Path"></path>
                            </g>
                            <g id="Group" transform="translate(41.553393, 130.291863) scale(-1, 1) rotate(-178.970323) translate(-41.553393, -130.291863) translate(40.053393, 128.791863)" fill="#E6E6E6">
                                <path d="M1.34660938,2.27513793 L2.06240532,2.27513793 C2.06240532,1.55089933 2.0500876,0.823917411 2.02682081,0.112023794 L1.31102487,0.136713746 C1.3356603,0.840377379 1.34660938,1.55912932 1.34660938,2.27513793" id="Path"></path>
                            </g>
                            <g id="Group" transform="translate(185.176060, 91.852014) scale(-1, 1) rotate(8.776990) translate(-185.176060, -91.852014) translate(183.676060, 89.352014)" fill="#E6E6E6">
                                <path d="M1.22963649,0.473629264 L1.94543227,0.473629264 C1.94132637,1.90701784 1.99059721,3.3637247 2.08229571,4.79848493 L1.36786856,4.84649316 C1.27343279,3.39252963 1.22689922,1.9234778 1.22963649,0.473629264" id="Path"></path>
                            </g>
                            <g id="Group" transform="translate(183.323096, 83.562720) scale(-1, 1) rotate(16.948919) translate(-183.323096, -83.562720) translate(181.823096, 80.562720)" fill="#E6E6E6">
                                <path d="M0.951108351,0.781328292 L1.66827256,0.781328292 C1.67100983,2.21471644 1.72575519,3.66867953 1.83250864,5.10069601 L1.11671306,5.15281921 C1.01132825,3.70434277 0.957951521,2.23391972 0.951108351,0.781328292" id="Path"></path>
                            </g>
                            <g id="Group" transform="translate(180.513823, 75.365429) scale(-1, 1) rotate(24.697848) translate(-180.513823, -75.365429) translate(179.013823, 72.365429)" fill="#E6E6E6">
                                <path d="M0.916631243,0.776618299 L1.63242694,0.776618299 C1.63379557,2.21412168 1.68443504,3.66671337 1.78160807,5.0987301 L1.06854964,5.14948165 C0.970007977,3.70100495 0.913893974,2.22920998 0.916631243,0.776618299" id="Path"></path>
                            </g>
                            <g id="Group" transform="translate(176.827560, 67.474810) scale(-1, 1) rotate(32.360111) translate(-176.827560, -67.474810) translate(175.327560, 64.974810)" fill="#E6E6E6">
                                <path d="M1.15393523,0.303966829 L1.86973104,0.303966829 C1.86699377,1.7387271 1.9121587,3.19269065 2.00522584,4.62196427 L1.29216731,4.6699725 C1.19499427,3.22423892 1.14982933,1.7538154 1.15393523,0.303966829" id="Path"></path>
                            </g>
                            <g id="Group" transform="translate(171.496190, 60.284012) scale(-1, 1) rotate(40.422979) translate(-171.496190, -60.284012) translate(170.496190, 57.784012)" fill="#E6E6E6">
                                <path d="M0.345328675,0.591207688 L1.06112398,0.591207688 C1.06112398,2.02596696 1.11313205,3.48130116 1.21030503,4.91468877 L0.49724699,4.9613253 C0.397336747,3.51422107 0.343960042,2.04379857 0.345328675,0.591207688" id="Path"></path>
                            </g>
                            <g id="Group" transform="translate(165.980436, 54.193261) scale(-1, 1) rotate(48.168654) translate(-165.980436, -54.193261) translate(164.980436, 51.693261)" fill="#E6E6E6">
                                <path d="M0.35567239,0.154115888 L1.07009913,0.154115888 C1.06736186,1.59161862 1.11663267,3.04695297 1.21380566,4.47759738 L0.498010285,4.52697725 C0.399468666,3.07850121 0.35156649,1.60670691 0.35567239,0.154115888" id="Path"></path>
                            </g>
                            <g id="Group" transform="translate(159.332008, 48.507555) scale(-1, 1) rotate(55.816940) translate(-159.332008, -48.507555) translate(158.332008, 46.007555)" fill="#E6E6E6">
                                <path d="M0.443666746,0.24094179 L1.15809395,0.24094179 C1.15125077,1.67707379 1.19641571,3.13240908 1.28948286,4.56579775 L0.575055657,4.61517765 C0.483357146,3.16395735 0.438192209,1.69216209 0.443666746,0.24094179" id="Path"></path>
                            </g>
                            <g id="Group" transform="translate(153.000000, 44.500000) scale(-1, 1) rotate(90.000000) translate(-153.000000, -44.500000) translate(152.000000, 43.000000)" fill="#E6E6E6">
                                <path d="M0.116050276,0.164198462 L0.845680489,0.164198462 C1.19629805,0.834569369 1.56419958,1.500002 1.94074309,2.15185437 L1.38148339,2.47531142 C0.944446,1.71728612 0.52222344,0.946915138 0.116050276,0.164198462" id="Path"></path>
                            </g>
                            <g id="Group" transform="translate(185.780499, 100.004568) scale(-1, 1) rotate(-178.948421) translate(-185.780499, -100.004568) translate(184.780499, 98.504568)" fill="#E6E6E6">
                                <path d="M0.428687969,2.87827685 L1.14448387,2.87827685 C1.14448387,2.1540383 1.13079752,1.42568476 1.10753073,0.713791182 L0.391734834,0.738481133 C0.416370257,1.44214473 0.428687969,2.16089662 0.428687969,2.87827685" id="Path"></path>
                            </g>
                            <g id="Group" transform="translate(45.000000, 62.000000)" fill="#F2F2F2">
                                <polygon id="Path" points="1.50247034 1.182717 1.02592675 1.182717 1.02592675 0.707407973 0.93333408 0.707407973 0.93333408 1.182717 0.456790489 1.182717 0.456790489 1.27654423 0.93333408 1.27654423 0.93333408 1.75185325 1.02592675 1.75185325 1.02592675 1.27654423 1.50247034 1.27654423"></polygon>
                            </g>
                            <g id="Group" transform="translate(66.000000, 28.000000)" fill="#BDE0FB">
                                <path d="M6.79963507,59.7696116 C2.59654529,53.4793679 0.34086447,46.0537652 0.34086447,38.4696769 C0.34086447,17.3992732 17.3256929,0.311506422 38.2691664,0.311506422 C59.213998,0.311506422 76.1974684,17.3992732 76.1974684,38.4696769 C76.1974684,59.5414468 59.213998,76.6292136 38.2691664,76.6292136 C33.5228663,76.6292136 28.814591,75.7288507 24.3969331,73.986874 C22.9139689,79.3125408 18.0834713,82.9973339 12.5834669,82.9973339 C5.80827625,82.9973339 0.31506198,77.4708274 0.31506198,70.654575 C0.31506198,66.100843 2.80703928,61.9146339 6.79827704,59.7696116 L6.79963507,59.7696116 Z" id="Path"></path>
                            </g>
                            <g id="Group" transform="translate(89.000000, 44.000000)" fill="#651FFF">
                                <path d="M15.1207254,0.00135501463 C23.9039972,0.00135501463 29.946526,4.81301198 29.946526,11.7303617 C29.946526,16.3116662 27.6982389,19.4810454 23.3649021,22.0027276 C19.2908248,24.3387729 17.9081076,26.0515114 17.9081076,29.0122183 C17.9081076,30.0217042 17.0795747,30.8401331 16.0589978,30.8401331 L11.5679105,30.8401331 L11.5679105,30.8401331 C10.5720249,30.8401331 9.75446597,30.0596446 9.71880064,29.075904 L9.71194193,28.8509716 C9.31276465,24.0840301 10.9986371,21.1233231 15.2386953,18.6707466 C19.1961745,16.3347014 20.860099,14.8536704 20.860099,11.9851044 C20.860099,9.11653846 18.0493972,7.01084572 14.5596824,7.01084572 C11.9067311,7.01084572 9.80796395,8.28591449 8.84500022,10.368572 C8.16050036,11.7940474 6.70645255,12.7032622 5.10974346,12.7032622 L5.06721942,12.7032622 L5.06721942,12.7019072 C2.02469298,12.7019072 0.0150891753,9.50678267 1.43758688,6.84959898 C3.68724575,2.64905361 8.43622074,0.00135501463 15.1207254,0.00135501463 Z M8.96159839,39.6545033 C8.96159839,36.9946095 11.2098855,34.8889168 13.9739481,34.8889168 C16.7613303,34.8889168 19.0096174,36.9715743 19.0096174,39.6545033 C19.0096174,42.3387873 16.7613303,44.4200897 13.9739481,44.4200897 C11.1865659,44.4200897 8.96159839,42.3387873 8.96159839,39.6545033" id="Shape"></path>
                            </g>
                        </g>
                    </g>
                </g>
            </g>
        </g>
    </g>
</svg>