<?xml version="1.0" encoding="UTF-8"?>
<svg width="371px" height="330px" viewBox="0 0 371 330" version="1.1" xmlns="http://www.w3.org/2000/svg" xmlns:xlink="http://www.w3.org/1999/xlink">
    <!-- Generator: Sketch 64 (93537) - https://sketch.com -->
    <title>register</title>
    <desc>Created with Sketch.</desc>
    <g id="Forms" stroke="none" stroke-width="1" fill="none" fill-rule="evenodd">
        <g id="Register" transform="translate(-895.000000, -428.000000)">
            <g id="Right-Side" transform="translate(835.000000, 216.000000)">
                <g id="Illustration" transform="translate(59.000000, 80.000000)">
                    <g id="register" transform="translate(0.000000, 131.000000)">
                        <g id="Group" transform="translate(10.655279, 114.222142)" fill="#757575">
                            <path d="M56.3770821,96.903075 C56.3770821,99.5081775 54.2602333,101.622052 51.6496899,101.622052 C49.0391465,101.622052 46.9240736,99.5081775 46.9240736,96.903075 C46.9240736,94.2944257 49.0391465,92.1823242 51.6496899,92.1823242 C54.2602333,92.1823242 56.3770821,94.2944257 56.3770821,96.903075 Z M56.3770821,39.60678 C56.3770821,42.2136559 54.2602333,44.3275308 51.6496899,44.3275308 C49.0391465,44.3275308 46.9240736,42.2136559 46.9240736,39.60678 C46.9240736,36.9999041 49.0391465,34.8878025 51.6496899,34.8878025 C54.2602333,34.8878025 56.3770821,37.0016774 56.3770821,39.60678 Z M91.7170914,60.7685828 L11.5822885,60.7685828 L11.5822885,18.4467505 L91.7170914,18.4467505 L91.7170914,60.7685828 Z M91.7170914,117.832564 L11.5822885,117.832564 L11.5822885,75.5107321 L91.7170914,75.5107321 L91.7170914,117.832564 Z M91.7170914,174.896546 L11.5822885,174.896546 L11.5822885,132.574714 L91.7170914,132.574714 L91.7170914,174.896546 Z M0.282364898,0.226993276 L0.282364898,212.627085 L103.017015,212.627085 L103.017015,0.226993276 L0.282364898,0.226993276 Z" id="Shape"></path>
                        </g>
                        <g id="Group-6" transform="translate(302.899577, 0.787383)">
                            <g id="Group" transform="translate(7.103519, 0.000000)" fill="#D7CCC8">
                                <path d="M8.60573418,172.55764 C8.60573418,172.55764 0.370979254,165.850698 8.45656027,157.701995 C13.0791756,153.041539 13.752234,147.240797 8.45656027,138.826085 C-2.2519953,121.808683 0.980106048,119.441214 3.9476013,113.661752 C6.91509655,107.88229 7.97707271,103.280356 4.61000449,94.1811182 C1.24116039,85.0836533 -5.9831189,70.843372 11.5661259,54.6842881 C29.1153707,38.5269776 2.26406719,0.220088861 2.26406719,0.220088861 C2.26406719,0.220088861 37.0624331,30.7524579 36.2171143,51.8628326 C35.3717955,72.9732073 14.7982273,70.6199255 24.2494599,91.8207428 C30.2235198,105.222213 25.1391757,113.931307 18.2381066,120.462683 C8.09072902,130.065563 13.0827273,132.211359 16.5883142,141.294637 C20.9871686,152.693955 15.7785129,159.663358 10.4739598,162.48304 C5.16940664,165.302722 8.60573418,172.55764 8.60573418,172.55764" id="Path"></path>
                            </g>
                            <g id="Group" transform="translate(0.000000, 188.719195)" fill="#4527A0">
                                <path d="M29.4669949,0.225409015 L1.64961276,0.225409015 C0.790086902,0.225409015 0.0921661159,0.922349309 0.0921661159,1.78244102 C0.0921661159,2.64253273 0.790086902,3.33947303 1.64961276,3.33947303 L29.4669949,3.33947303 C30.3282967,3.33947303 31.0262175,2.64253273 31.0262175,1.78244102 C31.0262175,0.922349309 30.3282967,0.225409015 29.4669949,0.225409015" id="Path"></path>
                            </g>
                            <g id="Group" transform="translate(5.327640, 172.714751)" fill="#4527A0">
                                <path d="M0.0850625964,7.20190549 L0.0850625964,0.759197892 L20.3780418,0.759197892 L20.3780418,2.66381335 L21.3245858,2.66381335 C23.0276545,2.66381335 24.4128408,4.04882701 24.4128408,5.74772982 L24.4128408,6.89865666 C24.4128408,8.59933285 23.0258787,9.98079975 21.3245858,9.98079975 L19.8736919,9.98079975 C18.7389047,13.0611694 15.7820647,15.2637136 12.3031161,15.2637136 L8.15821245,15.2637136 C3.69897812,15.2637136 0.0850625964,11.6531018 0.0850625964,7.20190549" id="Path"></path>
                            </g>
                        </g>
                        <g id="Group-7" transform="translate(0.000000, 47.294404)">
                            <g id="Group" transform="translate(195.346785, 260.428866)" fill="#00BED6">
                                <polygon id="Path" points="0.348072453 19.1259569 23.1983187 19.1259569 14.9085115 0.226993276"></polygon>
                            </g>
                            <g id="Group" transform="translate(241.519661, 184.645553)" fill="#00BED6">
                                <polygon id="Path" points="0.639316751 0.195261471 1.69063763 2.57337072 5.45372706 11.0838452 8.21344437 17.3226135 13.1592698 28.5073525 14.9333738 19.936583 16.1818173 13.9053007 19.0569668 0.0126028189"></polygon>
                            </g>
                            <g id="Group" transform="translate(267.381979, 33.239098)" fill="#4527A0">
                                <path d="M8.73359753,0.700487064 C7.85808876,0.0549749341 6.62207637,0.239406971 5.97388022,1.11191238 L0.0335620804,9.12406568 C1.42585189,9.3457388 2.71514067,9.86356721 3.82861735,10.6278961 L9.14560166,3.45810069 C9.79379781,2.5838219 9.61088218,1.34954596 8.73359753,0.700487064" id="Path"></path>
                            </g>
                            <g id="Group" transform="translate(254.950820, 55.311168)" fill="#4527A0">
                                <path d="M2.58727732,0.372599968 L0.385186293,3.34124641 C-0.263009857,4.2155252 -0.078318351,5.44980114 0.797190422,6.09708666 C1.67269919,6.74614556 2.90871158,6.56171352 3.55868361,5.68743473 L5.14454433,3.54873245 C4.07368877,2.69218751 3.19818,1.61042268 2.58727732,0.372599968" id="Path"></path>
                            </g>
                            <g id="Group" transform="translate(196.346785, 0.000000)" fill="#212121">
                                <path d="M8.99642775,4.38931693 C2.17704908,10.2680881 5.51570322,15.9109991 5.51570322,15.9109991 C5.32213231,16.458975 2.74355475,17.8014275 2.61391552,18.3742308 C-3.23405687,24.036649 3.43082026,30.7630982 3.43082026,30.7630982 L3.43792378,30.7719652 L8.05876318,38.8781079 L6.71087037,23.3308418 L6.71087037,23.3219749 C9.50965703,22.1958754 11.9514918,20.6548039 13.9014079,18.8193504 L13.9014079,18.8228972 L13.9085115,18.8317641 L15.1764897,18.425659 C19.399532,22.5221783 26.3378946,24.8914206 33.9652986,24.2476818 C34.7502375,24.1820666 35.5156417,24.0756635 36.2703907,23.9497532 L37.3252633,36.409556 L40.5182953,27.6454874 L40.523623,27.6313004 L39.8807545,20.498746 C40.4738983,19.6883091 40.6053134,19.3460458 41.9674133,17.4893117 C47.2843976,10.230847 23.8001623,-8.36841456 8.99642775,4.38931693" id="Path"></path>
                            </g>
                            <g id="Group" transform="translate(221.984983, 30.749963)" fill="#212121">
                                <path d="M4.33669863,0.500283686 C2.64961276,0.757424507 1.62848183,2.07859631 1.03888972,3.58065338 C0.685489627,4.47089264 2.13105584,4.8291164 2.47557653,3.95129084 C3.35286118,1.72746609 5.54607281,1.34618832 7.04313954,3.24725701 C7.62562813,3.98853193 8.90426163,3.22952316 8.31289364,2.47760793 C7.34681499,1.24865214 5.9882669,0.24846302 4.33669863,0.500283686" id="Path"></path>
                            </g>
                            <g id="Group" transform="translate(206.002064, 32.362869)" fill="#212121">
                                <path d="M7.65049045,3.07504954 C8.05894282,3.94223479 6.64356657,4.39267458 6.24044184,3.5396764 C5.21931092,1.37614674 3.00656461,1.13851315 1.63913711,3.13357125 C1.10459727,3.91031386 -0.221984983,3.23642757 0.319658375,2.44727126 C1.20582243,1.156247 2.49511121,0.0709353989 4.15911064,0.216352967 C5.86040355,0.365317304 6.96322494,1.61378032 7.65049045,3.07504954" id="Path"></path>
                            </g>
                            <g id="Group" transform="translate(328.537775, 129.924213)" fill="#006064">
                                <path d="M0.0674834348,0.636834329 L0.0674834348,4.57552235 L1.0140274,4.57729574 C1.78475926,4.57729574 2.41164485,3.95129084 2.41164485,3.18341515 L2.41164485,2.03071492 C2.41164485,1.26106584 1.78475926,0.636834329 1.0140274,0.636834329 L0.0674834348,0.636834329 Z" id="Path"></path>
                            </g>
                            <g id="Group" transform="translate(0.000000, 279.320736)" fill="#424242">
                                <path d="M2.69578563,3.77376322 C0.412004128,3.77376322 0.412004128,0.234086816 2.69578563,0.234086816 L370.23721,0.234086816 C372.522767,0.234086816 372.522767,3.77376322 370.23721,3.77376322 L2.69578563,3.77376322 Z" id="Path"></path>
                            </g>
                            <g id="Group" transform="translate(195.346785, 18.042951)" fill="#FFF3E0">
                                <path d="M41.5182953,9.59952198 L38.3252633,18.3635905 L37.2703907,5.90556108 C36.5138659,6.02969803 35.7502375,6.13610113 34.9652986,6.20171637 C27.3378946,6.8472285 20.3977561,4.47621279 16.1764897,0.379693508 L14.9085115,0.785798667 L14.9014079,0.776931742 C12.949716,2.61238519 10.5114329,4.16055027 7.71087037,5.28487634 L9.0569873,20.8321424 L4.4361479,12.7277731 C2.67269919,12.7862948 1.04599324,13.9053007 0.429762927,15.6680453 C-0.174036227,17.4041892 2.08488296,20.8888907 3.13620384,21.254208 L7.32195268,22.7083837 L7.40719491,23.7227599 C7.76769852,27.9646967 9.95735839,31.9956008 13.1912356,34.8791247 C13.6653955,35.299417 14.1626419,35.6966552 14.6758712,36.0477854 C15.0825477,36.3492609 15.4927759,36.6205888 15.9243147,36.8741828 L15.5833458,42.776008 C15.5833458,42.7777814 15.5833458,42.7795548 15.5851217,42.7795548 L15.3169638,47.4063162 L15.093203,51.2315076 L14.9102873,54.4111868 C16.8655311,56.8265372 19.630576,58.6105624 22.9088502,59.303956 C26.0415023,59.9654286 29.1528438,59.5203089 31.8379742,58.239925 C34.3863618,57.0251563 36.5493835,55.0602457 37.9789668,52.5579995 L37.6273425,50.993874 L36.8175413,47.4063162 L35.4518897,41.3519799 L34.8338835,38.6138735 L34.8338835,38.6156469 L34.1519457,35.5902521 C34.1519457,35.5902521 34.1537215,35.5884787 34.1537215,35.5884787 C34.5071216,35.2905501 34.8445388,34.9802077 35.1659731,34.6556782 C35.7200476,34.1041555 36.2190698,33.5153917 36.6736951,32.9035739 C38.0109326,31.1071349 38.9272866,29.1049833 39.5008958,27.1453929 C39.9324346,26.7712087 40.1668507,26.1452038 40.0087974,24.9676761 C40.1260055,24.2937899 40.1952648,23.6429576 40.2325583,23.0169527 C40.2769553,22.2845447 40.2716277,21.5876044 40.2183513,20.954506 L40.1260055,19.8461403 L43.8003009,17.8227081 C45.9242533,16.652274 46.6985369,13.9868764 45.5264562,11.8641346 C44.6971203,10.3656243 43.1219148,9.54454704 41.5182953,9.59952198 Z M12.2926404,17.4520706 C11.7581006,18.2288132 10.4332942,17.5567003 10.9749376,16.7657706 C11.8593257,15.4765198 13.1486145,14.3912082 14.8143898,14.5348524 C16.5156827,14.6838167 17.6185041,15.9340531 18.3057696,17.3953223 C18.714222,18.2607342 17.2988457,18.711174 16.895721,17.8581758 C15.8745901,15.6964195 13.6618438,15.4587859 12.2926404,17.4520706 Z M33.6813375,15.9553337 C32.1842708,14.0524916 29.9910591,14.4337694 29.1137745,16.6593675 C28.7692538,17.5354197 27.3236876,17.177196 27.6770877,16.2869567 C28.2666798,14.786673 29.2878107,13.4655012 30.9748966,13.2083604 C32.6264648,12.9565397 33.9850129,13.9567289 34.9510916,15.1856846 C35.5424596,15.9375999 34.2638261,16.6948352 33.6813375,15.9553337 Z M79.9394562,33.5331256 C79.9394562,36.7979273 78.2612497,39.6672642 75.7217415,41.3377928 C74.2477612,42.306061 72.4843125,42.8735442 70.5876728,42.8735442 C69.8702173,42.8735442 69.1758483,42.7866483 68.5045657,42.6341372 C67.1069483,42.3167013 65.8318665,41.6800561 64.7503557,40.8164176 C63.6795001,39.9616461 62.8039914,38.8798812 62.1948646,37.6402851 C61.582186,36.4006891 61.2323377,35.0103552 61.2323377,33.5331256 C61.2323377,28.3743487 65.4216383,24.1927069 70.5876728,24.1927069 C71.0937986,24.1927069 71.5857173,24.2441351 72.0705325,24.3203906 C73.4628223,24.5438371 74.7521111,25.0616655 75.8655878,25.8259945 C78.3251814,27.5071634 79.9394562,30.3303923 79.9394562,33.5331256" id="Shape"></path>
                            </g>
                            <g id="Group" transform="translate(169.708587, 58.857938)" fill="#00BED6">
                                <path d="M127.72998,44.7781597 C125.849323,40.201053 110.626481,11.4704431 101.358164,0.521564306 C99.8841833,1.4898325 98.1225104,2.05908908 96.2240949,2.05908908 C95.5066394,2.05908908 94.8140463,1.97041983 94.1427637,1.81790872 C94.3469899,8.00879566 96.6041332,18.4824073 99.1702796,28.4346438 C93.0079764,19.7095897 87.13159,12.1248222 85.4320729,10.2787284 C85.4054347,10.2485809 85.3752448,10.2237535 85.3468307,10.1953793 C83.7147971,8.02475612 80.9284416,6.59186106 77.7638237,6.59186106 L62.4539634,6.59186106 L63.2637646,10.1794189 L63.6153888,11.7435444 C62.1858055,14.247564 60.0227839,16.2107012 57.4743963,17.4254699 C54.7892659,18.7058538 51.6797003,19.1509734 48.5452723,18.4895008 C45.2669981,17.7961073 42.5019531,16.012082 40.5467094,13.5967317 L40.729625,10.4170524 L40.9533859,6.59186106 L28.7548671,6.59186106 C28.5914862,6.59186106 28.431657,6.60604814 28.2718278,6.61314168 C24.9704671,6.42161611 21.6122783,7.65589205 19.1988576,10.276955 C17.0251806,12.6408772 8.00726267,24.4019663 0.305271699,35.9271953 L41.0475075,35.9271953 C45.3504644,35.9271953 48.8365166,39.4101234 48.8365166,43.7052618 L48.8365166,80.6040829 C48.8365166,84.2909502 46.2632667,87.3730933 42.8162839,88.1711165 L71.9691277,88.1711165 C75.3077818,86.9758551 77.6661503,84.0834642 77.6661503,80.6980723 L83.4608463,39.1175148 C95.3912072,49.2630503 110.656671,61.0950748 114.941869,60.2828645 C117.072924,60.7084769 119.344275,60.5346851 121.505521,59.649766 C127.33751,57.2610165 130.123866,50.6001825 127.72998,44.7781597" id="Path"></path>
                            </g>
                            <g id="Group" transform="translate(81.690474, 146.572041)" fill="#424242">
                                <path d="M128.444063,49.1247262 C128.387235,51.0417554 128.339286,53.0155329 128.298441,55.0354183 L101.573225,55.0354183 C84.4164493,55.0354183 70.4580336,78.5735571 70.4580336,107.506333 L70.4580336,133.523664 L64.539026,133.523664 L64.539026,107.506333 C64.539026,92.1630061 68.2381837,77.6957315 74.9563373,66.7681333 C81.951528,55.3900953 91.4045366,49.1247262 101.573225,49.1247262 L128.444063,49.1247262 Z M191.066914,66.7681333 C186.824337,59.866119 181.674286,54.8598532 176.009229,51.9781026 L174.760786,58.0093849 C186.863407,65.2022344 195.565218,84.6669078 195.565218,107.506333 L195.565218,133.523664 L201.486002,133.523664 L201.486002,107.506333 C201.486002,92.1630061 197.786844,77.6939581 191.066914,66.7681333 Z M164.450027,49.1247262 L156.721398,49.1247262 C156.00927,50.9796869 155.227883,52.9605579 154.393219,55.0354183 L164.450027,55.0354183 C165.666505,55.0354183 166.863448,55.1666488 168.040856,55.3971889 L165.282915,49.1566472 C165.005877,49.1495536 164.72884,49.1247262 164.450027,49.1247262 Z M261.702536,0.459495832 L0.0745869543,0.459495832 L0.0745869543,62.3435378 C1.08861436,61.8168425 2.0635724,61.3965502 2.97282289,61.1287691 C7.05201894,59.9228673 10.9287647,60.1498606 14.013468,61.2954673 L14.013468,20.4278106 L248.836286,20.4278106 L248.836286,132.13865 L261.702536,132.13865 L261.702536,0.459495832 Z M10.5203123,66.0871535 C6.74301584,68.7206302 3.4043617,71.8364676 0.0745869543,74.9718122 L0.0745869543,78.5185821 C3.85188342,74.9558517 7.63983517,71.3718407 11.8806363,68.4138346 C13.2995643,67.4296059 11.9498956,65.0905111 10.5203123,66.0871535 Z M0.0745869543,93.8619089 L14.013468,93.8619089 L14.013468,79.4637963 C9.52226783,83.5940099 4.9742395,86.5662031 0.0745869543,90.0597715 L0.0745869543,93.8619089 Z" id="Shape"></path>
                            </g>
                            <g id="Group" transform="translate(161.605068, 166.607745)" fill="#1C98F3">
                                <path d="M81.6052315,20.6122427 C81.0440534,20.683178 80.429599,20.7594336 79.7671958,20.8410093 C79.0373092,23.1109421 78.0232818,25.9164371 76.8068041,29.0890228 C76.0946763,30.9439835 75.3132891,32.9266279 74.4786256,34.9997149 C65.0167377,58.5130263 48.6502289,94.0481143 48.6502289,94.0481143 C48.6502289,94.0481143 47.8599623,61.022366 48.382071,34.9997149 C48.4229162,32.9798294 48.470865,31.006052 48.529469,29.0890228 C48.5756419,27.528444 48.6289183,26.0068797 48.6875223,24.5367436 C32.5998266,26.3385027 16.5458727,27.9132686 12.8982154,27.4805626 C5.08611993,26.5513089 -0.412004128,18.7430949 0.623333832,10.0393214 C1.07795908,6.2212236 2.71887207,2.87484616 5.07191289,0.392107203 L77.3715339,0.392107203 C77.3981721,0.672302028 77.4390173,0.947176699 77.4532244,1.23091829 C80.6054111,5.27246265 82.0438738,10.9951759 80.8753449,16.9182818 C80.8060855,17.2711854 80.695981,17.716305 80.5539106,18.23236 L81.6052315,20.6122427 Z" id="Path"></path>
                            </g>
                            <g id="Group-4" transform="translate(139.518629, 94.474779)">
                                <g id="Group" transform="translate(-0.000000, 0.000000)" fill="#B3ECF3">
                                    <path d="M71.2392411,0.312304879 L8.23635117,0.312304879 C3.93339426,0.312304879 0.447342089,3.79345958 0.447342089,8.09037137 L0.447342089,44.9874191 C0.447342089,49.2825575 3.93339426,52.7654856 8.23635117,52.7654856 L71.2392411,52.7654856 C75.5404221,52.7654856 79.0282502,49.2825575 79.0282502,44.9874191 L79.0282502,8.09037137 C79.0282502,3.79345958 75.5404221,0.312304879 71.2392411,0.312304879" id="Path"></path>
                                </g>
                                <g id="Group" transform="translate(33.741717, 21.280620)" fill="#4527A0">
                                    <polygon id="Path" points="9.27524089 10.2946889 5.99696666 8.57450546 2.71691655 10.2946889 3.34380215 6.65038277 0.69241351 4.06833425 4.35605367 3.53631876 5.99519078 0.220088861 7.6343279 3.53631876 11.2979681 4.06833425 8.64657942 6.65038277"></polygon>
                                </g>
                            </g>
                        </g>
                        <g id="Group-5" transform="translate(1.775880, 232.508504)">
                            <g id="Group" transform="translate(60.379915, 20.908398)" fill="#006064">
                                <path d="M33.5712329,1.72550358 C30.4883055,0.578123501 26.6097839,0.351130224 22.5323637,1.55880539 C21.6231132,1.82658652 20.6481552,2.24687876 19.6341278,2.7735741 C14.3491093,5.50990711 7.87780307,11.4135057 2.8840289,17.39868 C2.3370579,22.7915437 2.05646888,28.0975115 0.813352977,33.3431842 C4.93161838,28.5302174 9.70518345,24.3858167 14.4663174,20.1740274 C16.2262143,18.6187688 17.9275072,17.0085353 19.6323519,15.4018485 C22.9621266,12.2647305 26.3007808,9.15066645 30.0780772,6.51718977 C31.5094364,5.52054742 32.8573292,7.85786881 31.4401771,8.84387085 C27.1976001,11.801877 23.4096484,15.385888 19.6323519,18.9486184 C18.1193022,20.3744199 16.6080285,21.7984481 15.0701165,23.1763682 C11.0832662,26.7479655 7.06089834,30.2894153 3.53044917,34.2919452 L14.5107144,34.2919452 C16.2670595,32.9193452 17.9683525,31.674429 19.6323519,30.4898078 C24.5320044,26.9962394 29.0818086,24.0240462 33.5712329,19.8938326 C34.915574,18.6577833 36.2545874,17.3188776 37.5971526,15.8292343 C42.764963,10.0923339 39.7832607,4.03445081 33.5712329,1.72550358" id="Path"></path>
                            </g>
                            <g id="Group" transform="translate(0.000000, 20.801806)" fill="#006064">
                                <path d="M38.6928705,34.4003108 C36.3131914,31.9619065 33.9086501,29.5447828 31.4899017,27.150713 C29.904041,25.9412645 28.2986456,24.746003 26.785596,23.4443385 C21.1098839,18.5657564 15.3134121,13.8556459 10.0905494,8.48228944 C8.87584756,7.23559981 10.7831425,5.32921096 11.9960685,6.57767398 C17.5083996,12.2489591 23.5890122,17.6169954 29.8418852,22.4689767 C32.9425715,24.8719134 36.1888799,27.1489397 38.9166313,29.9136468 C37.8883969,25.6734834 37.0750439,21.392532 36.6364016,17.0548324 C30.6818764,9.92050466 23.6635992,2.88016632 18.0287324,1.21495783 C5.73964372,-2.42225475 -4.77001331,6.89688328 2.96216761,15.4836133 C10.4776912,23.829163 17.8955414,27.4716957 26.6275427,34.3985374 L38.6928705,34.3985374 L38.6928705,34.4003108 Z" id="Path"></path>
                            </g>
                            <g id="Group" transform="translate(40.069357, 0.000000)" fill="#006064">
                                <path d="M7.60236206,55.2003431 L8.43169795,55.2003431 C7.50113691,48.3781312 7.62900026,41.4282354 8.11381546,34.5634622 C8.69985581,26.2179125 9.33384492,17.6861574 12.3226507,9.79636771 C12.9317775,8.18613415 15.540545,8.88307445 14.9260906,10.5128152 C13.6989576,13.7474694 12.8785011,17.0973936 12.2800296,20.498746 C11.7508174,24.0987175 11.3334857,27.7146495 11.0227067,31.3429951 C10.9463438,32.4176664 10.8753086,33.4941111 10.8131529,34.5634622 C10.4011487,41.4566096 10.2040261,48.3781312 11.1665529,55.2003431 L18.3073659,55.2003431 C18.3340041,52.6821365 18.541782,47.6918312 19.5522577,40.0609556 C21.0777385,28.5162195 24.1322518,20.6672176 23.8268005,9.12070803 C23.5213492,-2.42225475 9.47236355,-1.95940127 3.06143725,9.12070803 C-3.35126494,20.2061375 3.06143725,54.3757191 3.06143725,54.3757191 L7.60236206,55.2003431 Z" id="Path"></path>
                            </g>
                            <g id="Group" transform="translate(6.327640, 54.955616)" fill="#0445A2">
                                <polygon id="Path" points="87.6235087 0.246500511 87.6235087 39.3655996 0.660447672 39.3655996 0.660447672 0.246500511"></polygon>
                            </g>
                        </g>
                        <g id="Group-3" transform="translate(14.207039, 19.299938)">
                            <g id="Group" transform="translate(67.423647, 80.843306) scale(-1, 1) rotate(-82.071456) translate(-67.423647, -80.843306) translate(59.423647, 72.843306)" fill="#54A7B8">
                                <polygon id="Path" points="0.0708815659 15.7014018 6.13906387 15.7014018 15.0486543 0.946836875 9.77961807 0.836886992"></polygon>
                            </g>
                            <g id="Group" transform="translate(66.397581, 75.193838) scale(-1, 1) rotate(-141.514456) translate(-66.397581, -75.193838) translate(56.897581, 73.193838)" fill="#54A7B8">
                                <polygon id="Path" points="1.52751827 3.25836544 18.9151536 3.25836544 17.393225 0.972472795 0.0890559465 0.940551873"></polygon>
                            </g>
                            <g id="Group" transform="translate(67.303932, 79.575615) scale(-1, 1) rotate(97.828189) translate(-67.303932, -79.575615) translate(53.303932, 70.575615)" fill="#4527A0">
                                <polygon id="Path" points="0.136578579 0.218690853 24.7662576 0.218690853 27.0820051 17.0498885 2.45232604 17.0498885"></polygon>
                            </g>
                            <g id="Group" transform="translate(8.103519, 53.172643)" fill="#0445A2">
                                <path d="M31.1931502,14.5754511 C31.9017262,26.5493464 31.210909,34.9924323 31.210909,34.9924323 C31.210909,34.9924323 40.9178683,32.475999 45.7891068,25.5225565 L45.9702465,26.8313146 L45.3593438,32.9548129 C44.3257817,34.0525382 43.1856669,35.0686878 41.9407751,35.9748875 L43.0737864,39.7433306 L8.5861995,39.7433306 L9.71743497,35.9748875 C4.00620533,31.8162998 0.358548095,25.4941824 0.358548095,18.4130562 C0.358548095,11.000307 4.35427779,4.41927535 10.530788,0.281968211 L41.129198,0.280194826 C45.2581187,3.04667538 48.4085296,6.90733446 50.0458908,11.3762646 L47.5330208,11.3762646 C43.8587253,1.90461546 30.530747,3.37829837 31.1931502,14.5754511" id="Path"></path>
                            </g>
                            <g id="Group" transform="translate(51.500516, 64.268535)" fill="#4527A0">
                                <polygon id="Path" points="1.28573702 28.6472608 6.25109712 28.6472608 2.3459373 0.280194826 0.445745846 0.280194826 2.57324992 15.7352449"></polygon>
                            </g>
                            <g id="Group" fill="#00BED6">
                                <polygon id="Path" points="0.229088502 50.36768 21.8823917 50.36768 27.6770877 0.267781131 13.8980358 0.267781131"></polygon>
                            </g>
                            <g id="Group" transform="translate(66.780004, 75.780457) scale(-1, 1) rotate(-82.171641) translate(-66.780004, -75.780457) translate(52.780004, 66.780457)" fill="#0091A2">
                                <polygon id="Path" points="0.139263162 0.531054031 24.7671764 0.531054031 27.0847007 17.3622585 2.45678745 17.3622585"></polygon>
                            </g>
                            <g id="Group" transform="translate(66.858564, 75.372491) scale(-1, 1) translate(-66.858564, -75.372491) translate(53.358564, 60.872491)" fill="#4527A0">
                                <polygon id="Path" points="0.570057436 28.9595657 22.6087265 28.9595657 26.5121105 0.592499705 4.47521726 0.592499705"></polygon>
                            </g>
                            <g id="Group" transform="translate(49.983885, 25.985158) scale(-1, 1) rotate(-76.421643) translate(-49.983885, -25.985158) translate(25.983885, 19.985158)" fill="#0091A2">
                                <polygon id="Path" points="0.45295247 0.360762518 46.1907499 0.360762518 47.9701819 7.71144507 3.2464122 11.9108217"></polygon>
                            </g>
                            <g id="Group" transform="translate(44.707994, 25.500000) scale(-1, 1) translate(-44.707994, -25.500000) translate(21.207994, 0.000000)" fill="#00BED6">
                                <polygon id="Path" points="0.571833316 50.36768 46.327378 50.36768 40.532682 0.267781131 14.2390047 0.267781131"></polygon>
                            </g>
                            <g id="Group" transform="translate(49.724636, 85.847616)" fill="#4527A0">
                                <path d="M1.45266973,7.0687125 L3.06161688,7.0687125 L3.73822711,0.280194826 C2.70644091,1.37792012 1.56632604,2.39406971 0.321434255,3.30026943 L1.45266973,7.0687125 Z" id="Path"></path>
                            </g>
                        </g>
                        <g id="Group-2" transform="translate(246.071421, 183.467682)">
                            <g id="Group" transform="translate(18.534678, 5.213385)" fill="#4527A0">
                                <polygon id="Path" points="3.75953767 0.0143762038 0.733438384 0.0143762038 0.733438384 4.37690323 2.24648803 3.17986838 3.75953767 4.37690323"></polygon>
                            </g>
                            <g id="Group" transform="translate(35.517597, 1.143290)" fill="#0445A2">
                                <path d="M0.0175791616,9.62612275 L3.96713598,9.62612275 C5.06995737,9.62612275 5.96322494,7.60801065 5.96322494,5.11817815 C5.96322494,2.62657227 5.06995737,0.608460169 3.96713598,0.608460169 L0.0175791616,0.608460169 C1.02627892,0.608460169 1.8573907,2.29849605 1.99235757,4.49217326 C2.00478873,4.69788591 2.01366813,4.90537196 2.01366813,5.11817815 C2.01366813,5.32921096 2.00478873,5.53669701 1.99235757,5.74240966 C1.8573907,7.93608687 1.02627892,9.62612275 0.0175791616,9.62612275" id="Path"></path>
                            </g>
                            <g id="Group" transform="translate(25.638198, 0.000000)" fill="#04334C">
                                <path d="M1.14899427,1.75919789 C1.17385659,1.75742451 1.19694303,1.75210435 1.22002947,1.75210435 L1.14899427,1.75210435 L1.14899427,1.75919789 Z" id="Path"></path>
                            </g>
                            <g id="Group" transform="translate(26.638198, 1.143822)" fill="#0445A2">
                                <path d="M4.72721256,5.11640477 C4.72721256,2.62657227 3.83394499,0.608460169 2.73112359,0.608460169 L0.220029466,0.608460169 C1.32285086,0.608460169 2.21789431,2.62657227 2.21789431,5.11640477 C2.21789431,7.60801065 1.32285086,9.62612275 0.220029466,9.62612275 L2.73112359,9.62612275 C3.83394499,9.62612275 4.72721256,7.60801065 4.72721256,5.11640477" id="Path"></path>
                            </g>
                            <g id="Group" transform="translate(30.189958, 1.143822)" fill="#1C98F3">
                                <path d="M2.6867266,5.11640477 C2.6867266,7.60801065 1.79345902,9.62612275 0.69063763,9.62612275 L1.76149319,9.62612275 C2.8625387,9.62612275 3.75758215,7.60801065 3.75758215,5.11640477 C3.75758215,2.62657227 2.86431458,0.608460169 1.76149319,0.608460169 L0.69063763,0.608460169 C1.79345902,0.608460169 2.6867266,2.62657227 2.6867266,5.11640477" id="Path"></path>
                            </g>
                            <g id="Group" transform="translate(25.638198, 9.154568)" fill="#04334C">
                                <path d="M1.14899427,1.61555371 L1.22002947,1.61555371 C1.19694303,1.61555371 1.17385659,1.61023355 1.14899427,1.60846017 L1.14899427,1.61555371 Z" id="Path"></path>
                            </g>
                            <g id="Group" transform="translate(-0.000000, 1.143290)" fill="#0445A2">
                                <path d="M26.8582274,9.62612275 C27.9610488,9.62612275 28.8543164,7.60801065 28.8543164,5.11817815 C28.8543164,2.62657227 27.9610488,0.608460169 26.8582274,0.608460169 C26.835141,0.608460169 26.8120545,0.613780324 26.7871922,0.615553709 L26.7871922,0.608460169 L0.711948188,0.608460169 C0.536136082,0.608460169 0.394065693,0.812399441 0.394065693,1.06599349 C0.394065693,1.31958754 0.536136082,1.52352681 0.711948188,1.52352681 L25.8708382,1.52352681 C25.9205628,1.52352681 25.9702875,1.53062035 26.0182362,1.54126066 C26.0253398,1.54303405 26.0342192,1.54303405 26.0413227,1.54480743 C26.0874956,1.55544774 26.1318926,1.57318159 26.1762895,1.59268883 C26.1869448,1.5962356 26.1958242,1.60155575 26.2064795,1.60510252 C26.2491006,1.62638314 26.2917217,1.65121053 26.3343429,1.67958469 C26.3432223,1.68667823 26.3538775,1.69377177 26.3627569,1.70086531 C26.4000504,1.72746609 26.435568,1.75761363 26.4710856,1.79130795 C26.4817409,1.80017487 26.494172,1.81258857 26.5048273,1.82322888 C26.538569,1.8551498 26.5705349,1.89239089 26.6025007,1.92963197 C26.6167078,1.94559244 26.6309148,1.9615529 26.6451218,1.97928675 C26.6770877,2.02007461 26.7072776,2.06263585 26.7374676,2.10697047 C26.7534505,2.13002448 26.7694334,2.15485186 26.7854163,2.18145264 C26.8085028,2.21692034 26.8298133,2.25416142 26.8511239,2.29317589 C26.8724345,2.33219036 26.893745,2.37120483 26.9150556,2.41199269 C26.9310385,2.44214023 26.9434696,2.47051439 26.9576767,2.50066193 C26.9843149,2.55563687 27.0091772,2.61238519 27.0340395,2.67090689 C27.0446948,2.70105444 27.057126,2.7294286 27.0695571,2.75957614 C27.3128527,3.39090119 27.4620266,4.21375182 27.4620266,5.11817815 C27.4620266,7.10259594 26.7481229,8.71105611 25.8708382,8.71105611 L0.711948188,8.71105611 C0.536136082,8.71105611 0.394065693,8.91499538 0.394065693,9.16858943 C0.394065693,9.36720854 0.482859686,9.53568012 0.605395396,9.59774859 C0.639137114,9.61548244 0.674654711,9.62612275 0.711948188,9.62612275 L26.7871922,9.62612275 C26.7871922,9.62612275 26.835141,9.62612275 26.8582274,9.62612275" id="Path"></path>
                            </g>
                            <g id="Group" transform="translate(0.775880, 2.365861)" fill="#757575">
                                <path d="M26.3327466,1.63879684 C26.3167637,1.5962356 26.3025567,1.55544774 26.2865737,1.51465989 C26.2741426,1.48451235 26.2634873,1.4543648 26.2510561,1.42599064 C26.2261938,1.36746894 26.2013315,1.31072062 26.1746933,1.25574568 C26.1604863,1.22559814 26.1462792,1.1954506 26.1320722,1.16707644 C26.1107616,1.12628858 26.091227,1.08550073 26.0681405,1.04825964 C26.04683,1.00924517 26.0255194,0.970230704 26.002433,0.934763004 C25.98645,0.909935615 25.9704671,0.885108225 25.9544842,0.860280835 C25.9242942,0.815946211 25.8941043,0.773384972 25.8621384,0.734370502 C25.8479314,0.716636653 25.8337244,0.700676188 25.8195173,0.684715723 C25.7875515,0.645701254 25.7555857,0.610233554 25.7218439,0.578312625 C25.7111887,0.567672315 25.6987575,0.55525862 25.6881022,0.54461831 C25.6525846,0.512697381 25.617067,0.482549836 25.5797736,0.455949062 C25.5708942,0.448855522 25.5602389,0.441761982 25.5513595,0.434668442 C25.5087384,0.404520898 25.4661172,0.381466893 25.4234961,0.360186273 C25.4128408,0.354866118 25.4039614,0.351319348 25.3933062,0.345999194 C25.3489092,0.326491959 25.3045122,0.310531494 25.2583393,0.299891184 C25.2512358,0.298117799 25.2423564,0.296344414 25.2352529,0.294571029 C25.1873041,0.28393072 25.1375795,0.278610565 25.0878548,0.278610565 L0.919905769,0.278610565 L0.930561048,0.296344414 C0.948319847,0.322945189 0.966078646,0.353092733 0.982061564,0.386787048 C0.989165084,0.399200743 0.994492723,0.409841053 0.999820363,0.422254747 C1.01580328,0.455949062 1.03001032,0.491416761 1.04599324,0.528657846 C1.05309676,0.546391695 1.06020028,0.564125545 1.06552792,0.581859395 C1.08151084,0.622647249 1.09571788,0.665208488 1.10992491,0.711316498 C1.11880431,0.736143887 1.12590783,0.760971277 1.13478723,0.787572052 C1.14366663,0.824813136 1.15432191,0.86205422 1.16497719,0.90106869 C1.17563247,0.940083159 1.18628775,0.982644398 1.19694303,1.02520564 C1.20227067,1.05535318 1.20937419,1.08550073 1.21647771,1.11564827 C1.22890887,1.17062321 1.24134002,1.22914491 1.2519953,1.28944 C1.25732294,1.31958754 1.26442646,1.34973509 1.2697541,1.37988263 C1.27685762,1.42244387 1.28396114,1.46500511 1.29284054,1.50933974 C1.29816818,1.55190097 1.3052717,1.5962356 1.31237522,1.64057022 L26.3327466,1.64057022 L26.3327466,1.63879684 Z" id="Path"></path>
                            </g>
                        </g>
                    </g>
                </g>
            </g>
        </g>
    </g>
</svg>