<?xml version="1.0" encoding="UTF-8"?>
<svg width="472px" height="223px" viewBox="0 0 472 223" version="1.1" xmlns="http://www.w3.org/2000/svg" xmlns:xlink="http://www.w3.org/1999/xlink">
    <!-- Generator: Sketch 64 (93537) - https://sketch.com -->
    <title>services</title>
    <desc>Created with Sketch.</desc>
    <defs>
        <linearGradient x1="-16452.5%" y1="-2091.93947%" x2="15441.5%" y2="-2091.93947%" id="linearGradient-1">
            <stop stop-color="#5B4A9C" offset="0%"></stop>
            <stop stop-color="#64C0DE" offset="100%"></stop>
        </linearGradient>
        <linearGradient x1="-11827.8674%" y1="-110.126302%" x2="2461.55914%" y2="-110.126302%" id="linearGradient-2">
            <stop stop-color="#5B4A9C" offset="0%"></stop>
            <stop stop-color="#64C0DE" offset="100%"></stop>
        </linearGradient>
        <linearGradient x1="-25696.8%" y1="3204.85%" x2="6197.2%" y2="3204.85%" id="linearGradient-3">
            <stop stop-color="#5B4A9C" offset="0%"></stop>
            <stop stop-color="#66C6E4" offset="100%"></stop>
        </linearGradient>
        <linearGradient x1="-25103.7%" y1="1111.75%" x2="6790.3%" y2="1111.75%" id="linearGradient-4">
            <stop stop-color="#5B4A9C" offset="0%"></stop>
            <stop stop-color="#66C6E4" offset="100%"></stop>
        </linearGradient>
        <linearGradient x1="432.200205%" y1="-296.99321%" x2="-1289.22937%" y2="3515.80989%" id="linearGradient-5">
            <stop stop-color="#5B4A9C" offset="0%"></stop>
            <stop stop-color="#8767AA" offset="100%"></stop>
        </linearGradient>
        <linearGradient x1="-17171.9003%" y1="874.807806%" x2="4320.01348%" y2="874.807806%" id="linearGradient-6">
            <stop stop-color="#5B4A9C" offset="0%"></stop>
            <stop stop-color="#66C6E4" offset="100%"></stop>
        </linearGradient>
        <linearGradient x1="-3919.66667%" y1="27.4646086%" x2="1142.87302%" y2="27.4646086%" id="linearGradient-7">
            <stop stop-color="#5B4A9C" offset="0%"></stop>
            <stop stop-color="#64C0DE" offset="100%"></stop>
        </linearGradient>
        <linearGradient x1="-10076.9569%" y1="566.450497%" x2="2660.26358%" y2="566.450497%" id="linearGradient-8">
            <stop stop-color="#5B4A9C" offset="0%"></stop>
            <stop stop-color="#64C0DE" offset="100%"></stop>
        </linearGradient>
        <linearGradient x1="-25483.1%" y1="1310.3%" x2="6410.9%" y2="1310.3%" id="linearGradient-9">
            <stop stop-color="#5A479A" offset="0%"></stop>
            <stop stop-color="#5DB1CF" offset="100%"></stop>
        </linearGradient>
        <linearGradient x1="-7406.29715%" y1="-4401.32%" x2="3054.1817%" y2="-4401.32%" id="linearGradient-10">
            <stop stop-color="#5B4A9C" offset="0%"></stop>
            <stop stop-color="#64C0DE" offset="100%"></stop>
        </linearGradient>
        <linearGradient x1="-23569.5%" y1="-4401.78%" x2="8324.5%" y2="-4401.78%" id="linearGradient-11">
            <stop stop-color="#5B4A9C" offset="0%"></stop>
            <stop stop-color="#64C0DE" offset="100%"></stop>
        </linearGradient>
        <linearGradient x1="-8279.2%" y1="-2952.98631%" x2="23614.8%" y2="-2952.98631%" id="linearGradient-12">
            <stop stop-color="#5B4A9C" offset="0%"></stop>
            <stop stop-color="#64C0DE" offset="100%"></stop>
        </linearGradient>
        <linearGradient x1="-8397.7%" y1="-3524.26%" x2="23496.3%" y2="-3524.26%" id="linearGradient-13">
            <stop stop-color="#463390" offset="0%"></stop>
            <stop stop-color="#3F9BB6" offset="100%"></stop>
        </linearGradient>
        <linearGradient x1="-927.131783%" y1="-298.861617%" x2="1981.57775%" y2="-298.861617%" id="linearGradient-14">
            <stop stop-color="#463390" offset="0%"></stop>
            <stop stop-color="#3F9BB6" offset="100%"></stop>
        </linearGradient>
        <linearGradient x1="1801.65%" y1="799.34%" x2="-3781.35%" y2="3627.34%" id="linearGradient-15">
            <stop stop-color="#70499A" offset="0%"></stop>
            <stop stop-color="#463390" offset="100%"></stop>
        </linearGradient>
        <linearGradient x1="-12866.25%" y1="321.188475%" x2="19027.75%" y2="321.188475%" id="linearGradient-16">
            <stop stop-color="#5B4A9C" offset="0%"></stop>
            <stop stop-color="#66C6E4" offset="100%"></stop>
        </linearGradient>
        <linearGradient x1="-1285.40763%" y1="-113.564155%" x2="2261.91747%" y2="-113.564155%" id="linearGradient-17">
            <stop stop-color="#564197" offset="0%"></stop>
            <stop stop-color="#59B6D5" offset="100%"></stop>
        </linearGradient>
        <linearGradient x1="-10113.1%" y1="-1307.47196%" x2="21780.9%" y2="-1307.47196%" id="linearGradient-18">
            <stop stop-color="#4F3A93" offset="0%"></stop>
            <stop stop-color="#4CA1C1" offset="100%"></stop>
        </linearGradient>
        <linearGradient x1="-1291.347%" y1="11.3319312%" x2="2719.97233%" y2="11.3319312%" id="linearGradient-19">
            <stop stop-color="#554599" offset="0%"></stop>
            <stop stop-color="#5BB4DE" offset="100%"></stop>
        </linearGradient>
        <linearGradient x1="-361.1%" y1="221.534068%" x2="5716.9%" y2="221.534068%" id="linearGradient-20">
            <stop stop-color="#5B4A9C" offset="0%"></stop>
            <stop stop-color="#8767AA" offset="100%"></stop>
        </linearGradient>
        <linearGradient x1="-2244.39764%" y1="-754.537356%" x2="4472.95703%" y2="-754.537356%" id="linearGradient-21">
            <stop stop-color="#5B4A9C" offset="0%"></stop>
            <stop stop-color="#66C6E4" offset="100%"></stop>
        </linearGradient>
    </defs>
    <g id="Landing" stroke="none" stroke-width="1" fill="none" fill-rule="evenodd">
        <g transform="translate(-968.000000, -1763.000000)" id="Our-Services">
            <g transform="translate(-107.000000, 1401.000000)">
                <g id="Title-Deco" transform="translate(851.000000, 0.000000)">
                    <g id="services" transform="translate(224.000000, 355.000000)">
                        <path d="M349.877017,72.7381692 C346.029877,72.7381692 342.464683,72.1336772 340.422663,70.3202011 C335.069033,65.5608448 345.77963,54.8869171 340.422663,50.1291902 C337.746682,47.7486973 333.405721,46.5576363 329.064759,46.5576363 C324.722129,46.5576363 320.381168,47.7486973 317.705187,50.1291902 C312.349889,54.8869171 323.060485,65.5608448 317.705187,70.3202011 C315.664835,72.1336772 312.099641,72.7381692 308.250833,72.7381692 C300.558223,72.7381692 291.737829,70.3202011 291.737829,70.3202011 C291.737829,70.3202011 297.857217,52.682395 291.737829,47.2419668 C290.605042,46.2366526 289.176963,45.8684176 287.577046,45.8684176 C285.391551,45.8684176 282.882402,46.5560069 280.376589,47.2419668 C277.870777,47.9295561 275.364964,48.6171454 273.179469,48.6171454 C271.577884,48.6171454 270.148136,48.2472811 269.017017,47.2419668 C266.195893,44.7360134 264.861239,40.5892959 265.011387,36.5289345 C265.146521,32.8808007 266.482843,29.3011 269.017017,27.0476972 C270.148136,26.0440123 271.577884,25.6741479 273.176132,25.6741479 C275.363296,25.6741479 277.869108,26.3617372 280.376589,27.0493265 C282.882402,27.7369158 285.389882,28.4228758 287.575378,28.4228758 C289.176963,28.4228758 290.605042,28.0546407 291.737829,27.0476972 C296.070449,23.1975229 294.268667,13.2307368 292.845592,7.73816918 L363,8 L363,71.1283629 C359.726762,71.8306165 354.591681,72.7381692 349.877017,72.7381692 Z M368.14355,71.0354418 L368.34372,70.9923566 L368.347232,70.9906332 L368.442049,70.9699523 L368.540378,70.9492714 L368.601834,70.9354841 L368.636952,70.9268671 L368.847657,70.8803351 L368.919648,70.863101 L369.010954,70.8424201 L369.084701,70.8269094 L369.10226,70.8217392 L369.191809,70.8027817 L369.311209,70.7752072 L369.365642,70.7614199 L369.449924,70.7424624 L369.530694,70.7235049 L369.534206,70.7235049 L369.616732,70.702824 L369.697503,70.6838665 L369.778273,70.664909 L369.932791,70.6287175 L369.943326,70.6269941 L370.008293,70.60976 L370.134717,70.580462 L370.155787,70.5752918 L370.227778,70.5580577 L370.298013,70.5408236 L370.364737,70.525313 L370.43146,70.5080789 L370.489404,70.4942916 L370.496428,70.4925682 L370.561395,70.4770575 L370.622851,70.4615469 L370.684307,70.4460362 L370.742251,70.4322489 L370.800195,70.4167382 L370.801951,70.4167382 L370.854627,70.4046744 L370.910815,70.3908871 L370.942421,70.3822701 L371.061821,70.3512487 L371.072356,70.3495253 L371.10923,70.3391849 L371.156638,70.327121 L371.19,70.318504 L371.200535,70.3150572 L371.242676,70.3047167 L371.283062,70.2943763 L371.297109,70.2909294 L371.321691,70.2840358 L371.460405,70.2478442 L371.476208,70.2443974 L371.490255,70.2409506 L371.518349,70.234057 L371.56927,70.2202697 L371.592096,70.2133761 L371.613167,70.2082058 L371.648284,70.1978654 L371.662332,70.1944186 L371.676379,70.1909718 L371.685158,70.1892484 L371.695693,70.1858015 L371.711496,70.1806313 L371.707984,70.1823547 L371.685158,70.1892484 L371.676379,70.1909718 L371.630726,70.2030356 L371.613167,70.2082058 L371.592096,70.2133761 L371.56927,70.2202697 L371.544688,70.2254399 L371.518349,70.234057 L371.490255,70.2409506 L371.476208,70.2443974 L371.460405,70.2478442 L371.321691,70.2840358 L371.297109,70.2909294 L371.283062,70.2943763 L371.242676,70.3047167 L371.200535,70.3150572 L371.19,70.318504 L371.156638,70.327121 L371.10923,70.3391849 L371.072356,70.3495253 L371.061821,70.3512487 L370.942421,70.3822701 L370.910815,70.3908871 L370.854627,70.4046744 L370.801951,70.4167382 L370.800195,70.4167382 L370.742251,70.4322489 L370.684307,70.4460362 L370.622851,70.4615469 L370.561395,70.4770575 L370.496428,70.4925682 L370.489404,70.4942916 L370.43146,70.5080789 L370.364737,70.525313 L370.298013,70.5408236 L370.227778,70.5580577 L370.155787,70.5752918 L370.008293,70.60976 L369.943326,70.6269941 L369.932791,70.6287175 L369.778273,70.664909 L369.697503,70.6838665 L369.616732,70.702824 L369.534206,70.7235049 L369.530694,70.7235049 L369.449924,70.7424624 L369.365642,70.7614199 L369.311209,70.7752072 L369.191809,70.8027817 L369.10226,70.8217392 L369.084701,70.8269094 L369.010954,70.8424201 L368.919648,70.863101 L368.826587,70.8837819 L368.636952,70.9268671 L368.601834,70.9354841 L368.540378,70.9492714 L368.442049,70.9699523 L368.347232,70.9906332 L368.34372,70.9923566 L368.243635,71.0130375 L368.14355,71.0354418 L368.14355,71.0354418 Z M371.711496,70.1806313 L371.711496,18.3060426 L371.711496,70.1806313 Z M371.711496,5.8595881 L371.711496,4.11032871 L371.711496,5.8595881 Z M371.711496,3.48128469 L371.711496,0 L371.711496,3.48128469 Z M371.711496,-2.22044605e-16 L363.348244,-2.22044605e-16 L371.711496,-2.22044605e-16 Z" id="Shape" fill="#00BED6"></path>
                        <g id="Group-25" transform="translate(257.000000, 12.000000)">
                            <g id="Group" transform="translate(0.000000, 181.000000)" fill="url(#linearGradient-1)">
                                <path d="M1.81790269,4.50746312 C1.81790269,4.50746312 1.11419842,2.77520865 0.450617644,0.343365139 C1.11419842,2.77263663 1.81790269,4.50746312 1.81790269,4.50746312 Z" id="Path"></path>
                            </g>
                            <g id="Group" transform="translate(210.531468, 194.072518) scale(-1, 1) rotate(22.478335) translate(-210.531468, -194.072518) translate(205.031468, 189.072518)" fill="#FFF3E0" fill-rule="nonzero">
                                <polygon id="Path" points="0.265582872 9.96991348 10.2700983 9.96991348 10.959821 0.502690913 0.957074042 0.502690913"></polygon>
                            </g>
                            <g id="Group" transform="translate(173.000000, 105.000000)" fill="#0445A2" fill-rule="nonzero">
                                <polygon id="Path" points="0.194282563 37.7465855 9.85850326 58.6355333 32.7909753 90.9493089 43.9631139 86.5092876 20.9415214 48.4236566 3.79474841 0.0779064432"></polygon>
                            </g>
                            <g id="Group" transform="translate(193.000000, 190.000000)" fill="#FFFFFF" fill-rule="nonzero">
                                <polygon id="Path" points="12.6960652 3.35432367 11.951143 3.65308934 8.46177064 11.3344226 6.52531386 14.0216162 0.456840155 15.5307223 0.46706792 17.7850451 7.62479856 17.9106625 29.6639268 9.49090265 30.1241762 6.79352395 27.0848255 0.558488101 25.1603011 0.251234769 23.6602289 0.850463643 21.7186583 5.39985 14.8012801 8.07685831"></polygon>
                            </g>
                            <g id="Group" transform="translate(193.000000, 192.000000)" fill="#1C98F3" fill-rule="nonzero">
                                <polygon id="Path" points="30.1173577 7.09733078 27.0848255 0.690844174 25.1603011 0.372531162 23.6602289 0.99166746 21.7186583 5.67891401 14.8012801 8.43704379 12.6960652 3.57140203 11.951143 3.87747224 8.46177064 11.7915732 6.52531386 14.5619458 0.456840155 16.1167824 0.456840155 16.7044372 5.72072971 16.7044372"></polygon>
                            </g>
                            <g id="Group" transform="translate(168.000000, 194.000000)" fill="#FFF3E0">
                                <rect id="Rectangle" x="0.152606432" y="0.154883006" width="9.84397221" height="9.08586585"></rect>
                            </g>
                            <g id="Group" transform="translate(149.000000, 86.000000)" fill="#F5B091" fill-rule="nonzero">
                                <path d="M0.414224469,0.924692098 L13.1085851,68.9284502 L18.7219232,111.929225 L28.8695704,111.929225 C28.8695704,111.929225 29.7321119,71.7077117 26.7677648,66.2719049 L28.8695704,19.6933491 C30.4190768,15.1372961 30.7395467,10.3029712 29.8054109,5.60864646 C29.4320975,3.72123754 28.496257,1.96864355 27.105281,0.542716484 L26.7677648,0.198765591 L0.414224469,0.924692098 Z" id="Path"></path>
                            </g>
                            <g id="Group" transform="translate(176.000000, 112.000000)" fill="url(#linearGradient-2)">
                                <path d="M2.53665426,44.7819297 L0.115741833,39.9361733 L2.53665426,44.7819297 Z M4.42130083,6.3077293 L2.1392774,0.344651339 L4.42130083,6.3077293 Z" id="Shape"></path>
                            </g>
                            <g id="Group" transform="translate(149.000000, 86.000000)" fill="#0445A2" fill-rule="nonzero">
                                <path d="M0.414224469,0.924692098 L13.1085851,68.9284502 L18.7219232,111.929225 L28.8695704,111.929225 C28.8695704,111.929225 29.7321119,71.7077117 26.7677648,66.2719049 L28.8695704,19.6933491 C30.4190768,15.1372961 30.7395467,10.3029712 29.8054109,5.60864646 C29.4320975,3.72123754 28.496257,1.96864355 27.105281,0.542716484 L26.7677648,0.198765591 L0.414224469,0.924692098 Z" id="Path"></path>
                            </g>
                            <g id="Group" transform="translate(148.000000, 197.000000)" fill="#FFFFFF" fill-rule="nonzero">
                                <polygon id="Path" points="19.597586 0.263923394 18.7203036 0.263923394 11.5974308 6.30206265 0.27901898 10.0986363 0.27901898 12.6879388 33.3643133 12.6879388 35.1115369 10.2716132 35.1115369 3.11001621 33.3643133 2.07393856 31.5987365 2.07393856 27.5023046 5.69753542 19.4030422 5.61193865"></polygon>
                            </g>
                            <g id="Group" transform="translate(148.000000, 198.000000)" fill="#1C98F3" fill-rule="nonzero">
                                <polygon id="Path" points="31.5987365 1.8720561 27.5023046 5.29293425 19.4030422 5.21212611 19.597586 0.163300521 18.7203036 0.163300521 11.5974308 5.86364178 0.475398106 9.38553012 35.1115369 9.38553012 35.1115369 2.85017136 33.3643133 1.8720561"></polygon>
                            </g>
                            <g id="Group" transform="translate(167.000000, 26.000000)" fill="#FFFFFF">
                                <rect id="Rectangle" x="0.384294727" y="0.55384221" width="10.5230537" height="8.95919784"></rect>
                            </g>
                            <g id="Group" transform="translate(167.000000, 26.000000)" fill="#FFF3E0">
                                <polygon id="Path" points="1.27006274 2.82510514 0.976852633 1.13374576 1.27006274 1.13374576"></polygon>
                            </g>
                            <g id="Group" transform="translate(168.000000, 26.000000)" fill="#FFF3E0" fill-rule="nonzero">
                                <path d="M0.27134862,3.7222252 L0.225052287,3.40741013 L0.225052287,1.71605076 L0.946503481,1.71605076 C2.15149416,1.71605076 3.31790456,1.4032933 4.40329637,0.818930696 C3.22531189,2.21193593 1.82098978,3.22634003 0.27134862,3.7222252" id="Path"></path>
                            </g>
                            <g id="Group" transform="translate(162.000000, 4.000000)" fill="#FFF3E0" fill-rule="nonzero">
                                <path d="M4.84750759,2.61212417 L4.36237814,7.69482184 C4.36237814,7.69482184 2.13370071,11.6762392 0.0983455444,12.6917282 C0.0983455444,12.6917282 0.486813869,14.0486316 1.55373391,14.1326721 L1.4880773,20.7228457 C1.46983935,22.5069549 3.11672619,23.9584039 5.15755273,23.9584039 L8.68294837,23.9584039 C14.8346087,23.9584039 20.284108,20.4917344 22.1735596,15.3775216 L24.918371,7.9486941 L20.942498,0.663435747 L10.9572207,0.155691233 C10.9572207,0.155691233 7.07800882,-0.437844595 4.84750759,2.61212417" id="Path"></path>
                            </g>
                            <g id="Group" transform="translate(164.000000, 7.000000)" fill="url(#linearGradient-3)">
                                <path d="M0.7777792,1.66203917 L0.858026178,0.780865622 L0.7777792,1.66203917 Z" id="Path"></path>
                            </g>
                            <g id="Group" transform="translate(163.000000, 7.000000)" fill="#D7CCC8" fill-rule="nonzero">
                                <path d="M5.87186204,20.9157386 C6.60560718,20.3074429 7.69862132,19.8365043 8.18525022,19.1015547 C8.75741936,18.2363834 8.31641192,17.0822271 7.9989626,16.2134881 C7.65490075,15.2698271 7.35265858,14.1852412 7.95714292,13.3432601 C8.31261013,12.8473475 8.91899537,12.5351723 9.45124573,12.1784006 C9.98539699,11.8198451 10.4967375,11.3435549 10.5138456,10.7655849 C10.5575661,9.40271711 8.52931206,8.5518167 7.92482772,7.39052495 C7.78416156,7.11759463 7.67581059,6.83396116 7.54464889,6.55924698 C7.32984785,6.09722768 6.99719138,5.33730404 6.5656884,4.84852687 C6.57519287,4.85209458 6.58469735,4.8556623 6.59230092,4.85923002 C6.7956966,4.9412875 7.03901105,5.01085797 7.28612729,5.08042845 C7.7689544,5.21243396 8.28029493,5.34622333 8.62245588,5.56028633 C9.2326429,5.94203201 9.69646107,7.01056313 9.97209073,7.59210094 C10.0994506,7.87038283 10.2078016,8.1540163 10.3503687,8.42516276 C10.9396458,9.55791278 12.8899633,10.39811 12.9393865,11.7056782 L12.9393865,11.8002227 C12.9222785,12.3799766 12.4109379,12.8580506 11.8767867,13.2148223 C11.3445363,13.571594 10.7381511,13.885553 10.3845848,14.3796818 C10.1317658,14.7275341 10.038622,15.1181991 10.038622,15.5231349 C10.0367211,16.0957535 10.2249096,16.6969137 10.4245035,17.2499098 C10.4644223,17.3587251 10.506242,17.4711082 10.5461608,17.587059 C10.7191421,18.0740523 10.8883217,18.619913 10.8883217,19.1425834 C10.8883217,19.3637819 10.8598083,19.5814126 10.7837725,19.7883401 C9.25925542,20.3912843 7.60167572,20.7801654 5.87186204,20.9157386 Z M4.58875849,3.96551701 C4.43858785,3.92092055 4.29411989,3.87454023 4.16675998,3.8245922 C2.78671083,3.27337999 1.47509386,2.59372997 0.288935911,1.77672287 L0.387782407,0.758139779 C0.883915781,1.37535475 1.47509386,1.93727012 2.08337999,2.40999257 C2.85134123,3.00580124 3.69914002,3.51776857 4.58875849,3.96551701" id="Shape"></path>
                            </g>
                            <g id="Group" transform="translate(159.000000, 0.000000)" fill="#212121" fill-rule="nonzero">
                                <path d="M5.42809477,3.0413566 C3.2212628,5.36679249 5.14156255,8.3646016 7.28966432,10.1065011 C8.53189716,11.1133191 9.99659289,11.8675616 11.5111203,12.4981292 C12.0735065,12.7315438 12.9259844,12.86567 13.4118433,13.1826957 C13.9831281,13.5554622 14.4173757,14.5988601 14.6754326,15.1667193 C14.7946727,15.4384556 14.8961158,15.7154177 15.0295936,15.9801864 C15.5955392,17.114163 17.4944825,17.9450491 17.4535493,19.2758603 C17.437532,19.8419777 16.9587918,20.3088068 16.4586952,20.6571867 C15.9603783,21.0055666 15.392653,21.3121409 15.0616282,21.7946471 C14.4939029,22.6150817 14.7786554,23.6758986 15.099002,24.5973634 C15.3962124,25.4439266 15.8108833,26.5726775 15.2734129,27.4174988 C14.7715366,28.2065793 13.557779,28.6768922 12.8886106,29.3684263 C12.1446947,30.1400878 11.1765361,30.6278196 10.4593157,31.4517381 C9.41107054,32.6519069 9.19038734,34.3310981 8.15815948,35.425011 C7.0565232,36.5990513 5.10596849,37.2383284 3.7195797,38.1057944 C2.09649037,39.1213218 0.619336715,40.67858 0.795527332,42.4361566 C2.07691364,42.0407454 3.48821828,42.065132 4.88528529,42.0912605 C6.74507514,42.1226147 8.57638974,42.1557108 10.0215087,41.1959242 C10.4824519,40.8893498 10.8668678,40.5009062 11.315353,40.1821386 C12.4080907,39.4087352 13.8122766,39.0969352 15.0580688,38.5360436 C16.2967422,37.9768938 17.3877003,37.1599429 18.2188217,36.1688021 C19.4379184,36.5572457 20.7762552,36.4283451 22.0612009,36.292477 C23.8462432,36.1078356 25.700694,35.9005496 27.2170011,35.043535 C28.5250829,34.3049696 29.4558677,33.153574 30.3563975,32.0317907 C30.8137813,31.4621895 31.2693853,30.8960722 31.7249893,30.3247291 C32.1432196,29.8039012 32.5614498,29.2830732 32.9512048,28.7465681 C35.0815095,25.8079836 36.3611161,22.2475409 35.7364403,18.7950961 C35.186512,15.7467719 33.2359573,13.0677304 31.3334546,10.489719 C29.8296054,8.44995468 28.3239765,6.41019031 26.8183476,4.37216785 C26.2595208,3.61444155 25.6864563,2.83929625 24.8873696,2.2766627 C24.1826071,1.77847943 23.3372481,1.46667941 22.4794312,1.23152298 C19.5286833,0.41631399 16.3768289,0.433732986 13.2961626,0.580052547 C10.4361796,0.715920712 7.2754267,1.09217101 5.42809477,3.0413566" id="Path"></path>
                            </g>
                            <g id="Group" transform="translate(90.000000, 3.000000)" fill="#FFF3E0" fill-rule="nonzero">
                                <path d="M65.4465416,43.8822995 L50.3361167,42.0428601 C47.6147565,41.6605047 45.0888131,40.5702751 43.0966471,38.9185687 L17.6978884,18.0560874 L14.7014971,16.3751016 L6.04344619,13.3662057 L1.29915999,10.1764662 C-0.063329526,9.08279197 0.752716652,8.20785261 2.05187664,8.3266928 L5.7557492,10.9584002 L7.48735938,11.5836029 L8.49701297,11.0824073 L2.58203524,5.95850062 C2.60736706,5.55892202 3.56092877,4.94233089 4.02413902,4.95783179 L9.36191335,9.3325286 L10.5651743,8.37664013 L4.53077523,2.67920033 C3.73463262,1.70953328 5.8516482,1.3754029 7.79676935,2.92549232 L11.6707269,7.5843722 L12.8251337,7.20718377 L9.17916244,0.670973369 C9.4994289,0.218002793 10.6719298,1.03438322 11.2057073,1.2961761 C13.2177768,2.28306637 16.1436009,7.45864272 16.1436009,7.45864272 L18.1647175,7.95811598 L19.3173148,6.33396673 L18.8848646,4.2086219 L22.156287,7.09523287 L21.7365027,11.5991038 L45.2914676,30.58081 L66.4181974,34.8246103 L65.4465416,43.8822995 Z" id="Path"></path>
                            </g>
                            <g id="Group" transform="translate(152.000000, 44.000000)" fill="url(#linearGradient-4)">
                                <path d="M0.850310122,1.50308762 L0.998458389,0.0632716556 L0.850310122,1.50308762 Z" id="Path"></path>
                            </g>
                            <g id="Group" transform="translate(91.000000, 10.000000)" fill="url(#linearGradient-5)">
                                <path d="M1.02160576,2.87654551 C0.0462963333,1.69753222 0.592593067,0.755144637 1.55247038,0.755144637 C0.592593067,0.755144637 0.0462963333,1.69753222 1.02160576,2.87654551 Z" id="Path"></path>
                            </g>
                            <g id="Group" transform="translate(164.000000, 1.000000)" fill="#5B4A9C" fill-rule="nonzero">
                                <path d="M0.0833769336,3.22994086 C0.209405841,2.82716276 0.398449202,2.4305575 0.733025944,2.0555572 C0.736026633,2.05247078 0.739027321,2.04938436 0.742028009,2.04629793 C0.746529042,2.04012509 0.754030762,2.03395224 0.758531795,2.0277794 C0.760032139,2.02623619 0.761532483,2.02469298 0.761532483,2.02314977 C0.76753386,2.01852013 0.772034892,2.01234729 0.778036269,2.00617444 C0.778036269,2.00463123 0.778036269,2.00463123 0.781036957,2.00463123 C0.785537989,1.99845839 0.790039022,1.99228554 0.794540054,1.98765591 C0.796040398,1.98765591 0.797540742,1.9861127 0.799041086,1.98456949 C0.805042463,1.97839664 0.809543495,1.97376701 0.815544872,1.96759417 C0.815544872,1.96605096 0.817045216,1.96450774 0.81854556,1.96296453 C0.823046593,1.9583349 0.826047281,1.95370527 0.830548313,1.94907563 C0.832048657,1.94753242 0.835049346,1.94598921 0.835049346,1.944446 C0.841050722,1.93981637 0.845551755,1.93518673 0.850052787,1.92901389 C0.853053475,1.92747068 0.854553819,1.92438426 0.857554508,1.92129783 C0.860555196,1.91821141 0.863555884,1.91512499 0.868056917,1.91203857 C0.871057605,1.90895214 0.875558637,1.90432251 0.88005967,1.89969288 C0.881560014,1.89660646 0.884560702,1.89506324 0.886061046,1.89197682 C0.889061735,1.8888904 0.893562767,1.88580398 0.898063799,1.88117434 L0.898063799,1.87963113 C1.88829093,0.885803178 3.27310857,0.395062044 4.74344582,0.135802578 C2.98804318,0.575617744 1.32866257,1.28703807 0.362440943,2.67747128 C0.234911691,2.85957019 0.167396205,3.04629873 0.0833769336,3.22994086" id="Path"></path>
                            </g>
                            <g id="Group" transform="translate(161.000000, 37.000000)" fill="url(#linearGradient-6)">
                                <path d="M0.0435965139,3.92554426 C0.49305675,2.6253889 1.64853607,1.49305775 2.90625313,0.663581778 C1.64853607,1.49305775 0.49305675,2.6253889 0.0435965139,3.92554426 Z" id="Path"></path>
                            </g>
                            <g id="Group" transform="translate(174.741616, 27.311132) scale(-1, 1) rotate(135.898480) translate(-174.741616, -27.311132) translate(173.241616, 25.811132)" fill="#ECEEF2" fill-rule="nonzero">
                                <path d="M1.18396743,0.187270672 C1.29892125,0.73339034 1.39618987,1.27605355 1.29184717,1.74785947 C1.26708789,1.85846598 1.22994896,1.96561605 1.18396743,2.0658532 C1.22994896,1.96561605 1.26708789,1.85846598 1.29184717,1.74785947 C1.39618987,1.27605355 1.29892125,0.731662113 1.18396743,0.187270672" id="Path"></path>
                            </g>
                            <g id="Group" transform="translate(174.000000, 26.000000)" fill="#ECEEF2" fill-rule="nonzero">
                                <path d="M1.0277786,1.17489886 C1.03086502,1.15843794 1.03549466,1.14197702 1.03858108,1.12757372 C1.03549466,1.14197702 1.03086502,1.15843794 1.0277786,1.17489886 Z" id="Path"></path>
                            </g>
                            <g id="Group" transform="translate(147.000000, 31.000000)" fill="#1C98F3" fill-rule="nonzero">
                                <path d="M32.8648776,0.453569226 C32.8648776,0.453569226 41.5728091,3.30983747 41.9989344,10.2227341 L31.5347963,41.3957236 L34.478448,59.1776823 C30.9909963,61.9144342 26.8581165,61.8590063 22.4328327,61.1661577 L22.3508169,61.1523007 L22.2563206,61.1384438 L22.1885684,61.1263189 L22.1065527,61.1141941 L22.024537,61.1003371 L21.9425212,61.0882122 L21.7802727,61.0604983 L21.7160865,61.0483734 L21.6750786,61.0431771 L21.623373,61.0345165 L21.5734504,61.0241237 L21.4700393,61.0068025 L21.445078,61.0016062 L21.4165507,60.9981419 L21.3648452,60.9894813 L21.3131396,60.9790886 L21.261434,60.970428 L21.2079455,60.9617674 L21.1740694,60.9548389 L21.1562399,60.9531068 L21.1045344,60.942714 L21.0528288,60.9340534 L21.0011232,60.9236607 L20.9494176,60.9150001 L20.901278,60.9063395 L20.8959291,60.9063395 L20.8442236,60.8959468 L20.792518,60.8872862 L20.7390295,60.8768934 L20.6873239,60.8682328 L20.6356183,60.8578401 L20.6284865,60.856108 L20.5839127,60.8491795 L20.5304242,60.8387868 L20.4787186,60.828394 L20.4270131,60.8180013 L20.3539121,60.8058764 L20.321819,60.798948 L20.2701134,60.7902874 L20.1649193,60.7695019 L20.1114308,60.7608413 L20.0597252,60.7504486 L20.0080196,60.7400558 L19.9010426,60.7210025 L19.849337,60.7106098 L19.8047633,60.7019492 L19.7976315,60.700217 L19.6906544,60.6811637 L19.6389488,60.670771 L19.5872433,60.6603782 L19.5337547,60.6499855 L19.5301888,60.6499855 L19.4820492,60.6395928 L19.4285606,60.6309322 L19.3750721,60.6205395 L19.3233665,60.6101467 L19.269878,60.599754 L19.2538315,60.5962898 L19.1646839,60.5789685 L19.0594898,60.5581831 L19.0060013,60.5477904 L18.9774741,60.542594 L18.9525128,60.5391297 L18.8473187,60.5183443 L18.7938302,60.5079516 L18.7421246,60.4975588 L18.7011167,60.4888982 L18.6886361,60.4871661 L18.6351476,60.4767734 L18.583442,60.4663806 L18.5299535,60.4559879 L18.4764649,60.4455952 L18.3053017,60.4126849 L18.1876269,60.3901673 L18.1377043,60.3815067 L18.0681692,60.3676497 L17.9504945,60.3451321 L17.8542151,60.3260788 L17.8310368,60.3226146 L17.713362,60.300097 L17.3585548,60.2308121 L17.2818879,60.2169552 L17.2390971,60.2082946 L17.1196394,60.185777 L16.882507,60.1424739 L16.7630493,60.1199564 L16.7095607,60.1095636 L16.6435916,60.0974388 L16.1657607,60.0108327 L16.1336676,60.0056363 L16.046303,59.9900473 L15.9268453,59.9692618 L15.6879299,59.9276909 L15.5684722,59.9069054 L15.5577745,59.9051733 L15.4490145,59.88612 L15.3295568,59.8670666 L14.8499431,59.787389 L14.7304854,59.7683357 L14.6930434,59.7631393 L14.6092447,59.7492824 L14.489787,59.7319612 L14.3685464,59.7129078 L14.2490887,59.6955866 L14.0083903,59.6609442 L13.8889326,59.643623 L13.8247464,59.6349624 L13.6482343,59.6107127 L13.5341254,59.5951236 L13.5269936,59.5933914 L13.4075359,59.5795345 L13.2862953,59.5639454 L13.2435044,59.5570169 L13.1650546,59.5483563 L13.0455969,59.5327672 L12.9546664,59.5223745 L12.9261392,59.5189102 L12.8048986,59.5050532 L12.6836579,59.4911963 L12.6640454,59.4894642 L12.5642002,59.4790714 L12.4429596,59.4652145 L12.3734245,59.458286 L12.3217189,59.4530896 L12.2022612,59.4409648 L12.0828035,59.430572 L12.0810205,59.430572 L11.9615628,59.4184472 L11.8403222,59.4080544 L11.7921825,59.4045902 L11.7190815,59.3976617 L11.5996238,59.3890011 L11.5015615,59.3820726 L11.4783832,59.3803405 L11.3571425,59.3716799 L11.2359019,59.3630193 L11.2109406,59.3612872 L11.1164442,59.3560908 C7.37046463,59.1239865 3.62091917,59.6228375 0.0568005975,61.9681299 L11.2893904,22.4151369 C9.97178979,20.7488361 9.26930719,18.793271 9.22473342,16.8065277 L8.11217215,16.7337786 L9.15519834,5.44727533 L20.863836,5.0090486 L21.478954,4.57082188 L32.8648776,0.453569226 Z" id="Path"></path>
                            </g>
                            <g id="Group" transform="translate(146.000000, 51.000000)" fill="url(#linearGradient-7)">
                                <path d="M0.123008827,41.3496422 C0.997532535,40.7790221 1.88103493,40.318338 2.77172026,39.9501397 L2.76633305,39.9658448 C1.87744345,40.3322981 0.993941062,40.7807671 0.123008827,41.3496422 Z M11.3876643,1.53362032 C11.1272825,1.20381237 10.892041,0.865279332 10.6801441,0.516276203 C10.892041,0.865279332 11.1290782,1.20381237 11.3876643,1.53362032 Z" id="Shape"></path>
                            </g>
                            <g id="Group" transform="translate(162.346843, 90.596263) scale(-1, 1) rotate(-99.147987) translate(-162.346843, -90.596263) translate(160.846843, 84.596263)" fill="#AE70AC" fill-rule="nonzero">
                                <path d="M1.28612442,0.229077164 C1.32680038,3.75120259 1.68934697,7.494541 1.27374478,11.1099907 C1.27728182,11.0909802 1.28081886,11.0719697 1.28612442,11.0529592 C1.56378205,8.57122606 1.4788931,6.02727678 1.38516154,3.54035897 C1.34271706,2.42219648 1.29850406,1.31440335 1.28612442,0.229077164" id="Path"></path>
                            </g>
                            <g id="Group" transform="translate(157.000000, 40.000000)" fill="url(#linearGradient-8)">
                                <path d="M0.468750375,3.5329257 L4.90162429,0.0637871259 L0.468750375,3.5329257 Z" id="Shape"></path>
                            </g>
                            <g id="Group" transform="translate(161.000000, 39.000000)" fill="url(#linearGradient-9)">
                                <rect id="Rectangle" x="0.551232767" y="0.605098756" width="1" height="1"></rect>
                            </g>
                            <g id="Group" transform="translate(161.000000, 37.000000)" fill="#5A479A" fill-rule="nonzero">
                                <path d="M0.00185265333,3.89095068 L3.90555948,0.707820563 L0.00185265333,3.89095068 Z" id="Path"></path>
                            </g>
                            <g id="Group" transform="translate(156.000000, 51.000000)" fill="#4E4484" fill-rule="nonzero">
                                <path d="M0.797840144,1.2083351 C0.797840144,1.20679189 0.797840144,1.20524868 0.796296933,1.20370547 L1.35956899,1.11574243 L0.797840144,1.2083351 Z" id="Path"></path>
                            </g>
                            <g id="Group" transform="translate(177.000000, 16.000000)" fill="#212121" fill-rule="nonzero">
                                <path d="M18.1453086,6.04580216 C18.1282046,4.70448765 18.0649201,3.23629203 17.0626302,2.21629978 C16.6042451,1.74997054 15.9885039,1.42535265 15.3847354,1.1106216 C14.8613553,0.837085718 14.3345545,0.561902027 13.7632835,0.372404276 C11.2062469,-0.482807314 8.34305021,0.499285379 5.98784,1.71866221 C4.53742731,2.4717098 3.14516797,3.3549341 2.00775708,4.44907763 C1.45358997,4.98131914 0.955865807,5.56299485 0.569317144,6.19904817 C0.0681721953,7.02459924 0.0527786644,7.29648732 0.319599866,8.13027742 C1.04993738,10.4174329 1.35951839,12.8232304 2.45074869,14.998335 C3.54368938,17.1734397 5.68339016,19.1672856 8.38581002,19.3518399 C7.03117931,23.4548782 8.53119337,27.2810849 9.27350363,30.9606369 C10.1475141,30.1004819 10.8778516,28.8201362 11.4337291,27.9879939 C12.4770684,26.4176343 13.5221181,24.8489225 14.5226976,23.2571414 C15.7644425,21.2863648 16.948034,19.2694496 17.6903442,17.1141186 C18.9184059,13.5367307 18.1880684,9.72700195 18.1453086,6.04580216" id="Path"></path>
                            </g>
                        </g>
                        <g id="Group" transform="translate(447.500000, 220.000000) scale(-1, 1) translate(-447.500000, -220.000000) translate(366.000000, 212.000000)" fill="#F5F5F5">
                            <path d="M81.692137,0.825240715 C36.9422789,0.825240715 0.666307701,4.08757529 0.666307701,8.11369648 C0.666307701,12.1398177 36.9422789,15.4021522 81.692137,15.4021522 C126.440237,15.4021522 162.716208,12.1398177 162.716208,8.11369648 C162.716208,4.08757529 126.440237,0.825240715 81.692137,0.825240715" id="Path"></path>
                        </g>
                        <g id="Group" transform="translate(137.500000, 222.500000) scale(-1, 1) translate(-137.500000, -222.500000) translate(56.000000, 215.000000)" fill="#F5F5F5">
                            <path d="M81.3893078,0.147713242 C36.6412078,0.147713242 0.365236552,3.38780298 0.365236552,7.38257742 C0.365236552,11.3790948 36.6412078,14.6174416 81.3893078,14.6174416 C126.139166,14.6174416 162.415137,11.3790948 162.415137,7.38257742 C162.415137,3.38780298 126.139166,0.147713242 81.3893078,0.147713242" id="Path"></path>
                        </g>
                        <g id="Group" transform="translate(287.000000, 14.000000)" fill="#F4F4F5" fill-rule="nonzero">
                            <path d="M1.22068079,4.20062064 C0.685186533,2.08487821 0.2083343,0.663580778 0.197531822,0.632716556 C0.2083343,0.663580778 0.686729744,2.08024858 1.222224,4.20062064" id="Shape"></path>
                        </g>
                        <g id="Group" transform="translate(366.000000, 151.000000)" fill="url(#linearGradient-10)">
                            <path d="M0.679012889,1.66975522 C2.98225547,1.12037207 4.57690695,0.586421022 4.60005512,0.578704967 C4.57690695,0.586421022 2.98482749,1.12191528 0.679012889,1.67129843 L0.679012889,1.66975522 Z" id="Path"></path>
                        </g>
                        <g id="Group" transform="translate(289.000000, 127.000000)" fill="#4527A0">
                            <path d="M3.20940833,94.9828709 L81.7302415,94.9828709 L81.7302415,25.0575789 C81.6986563,25.0661644 78.4857385,25.6619966 75.3412553,26.2732827 L75.3412553,26.4707487 C72.1195639,27.0579955 68.1135063,27.6057491 64.3601305,27.6057491 C60.3137141,27.6057491 56.5656025,26.9687065 54.4195629,25.0575789 C48.7851123,20.0419421 60.050504,8.79153046 54.4195629,3.77589365 C51.6014602,1.26721669 47.0356426,0.0154538621 42.4698249,0.0154538621 C37.9022525,0.0154538621 33.3364349,1.26721669 30.520087,3.77589365 C24.8873911,8.79153046 36.1545376,20.0419421 30.520087,25.0575789 C28.3758021,26.9687065 24.6259358,27.6057491 20.5795193,27.6057491 C12.4866865,27.6057491 3.20940833,25.0575789 3.20940833,25.0575789 C3.20940833,25.0575789 -3.23046514,43.6468579 3.20940833,49.3802408 C4.39911792,50.4396889 5.90117015,50.8260355 7.58571471,50.8260355 C9.88617087,50.8260355 12.5217812,50.1031381 15.1573915,49.3802408 C17.7947566,48.6556264 20.430367,47.931012 22.7290684,47.931012 C24.4136129,47.931012 25.9156652,48.3190756 27.1071295,49.3802408 C32.7398254,54.3958776 32.7398254,65.6445721 27.1071295,70.660209 C25.9156652,71.7196571 24.4136129,72.1094378 22.7290684,72.1094378 C20.430367,72.1094378 17.7947566,71.3848234 15.1573915,70.660209 C12.5217812,69.9355945 9.88617087,69.2126972 7.58571471,69.2126972 C5.90117015,69.2126972 4.39911792,69.5990438 3.20940833,70.660209 C-2.06707655,75.358183 1.21252113,89.1619161 3.20940833,94.9828709 C0.68610096,87.7229898 1.44414601,89.8109783 3.20940833,94.9828709 Z" id="Shape"></path>
                        </g>
                        <g id="Group" transform="translate(461.000000, 217.000000)" fill="#E5E8EC" fill-rule="nonzero">
                            <path d="M1.77932241,4.51080608 C1.7638903,4.46759617 1.17901329,2.73302688 0.577160956,0.228395244 L0.578704167,0.228395244 C1.1805565,2.72994046 1.7638903,4.46759617 1.77932241,4.51080608" id="Shape"></path>
                        </g>
                        <g id="Group" transform="translate(383.000000, 150.000000)" fill="url(#linearGradient-11)">
                            <rect id="Rectangle" x="0.0203449444" y="0.455336878" width="1" height="1"></rect>
                        </g>
                        <g id="Group" transform="translate(113.000000, 217.000000)" fill="url(#linearGradient-12)">
                            <path d="M0.774691978,4.49691718 C0.7916673,4.44136158 1.3750011,2.70987871 1.97531022,0.214506344 C1.37654431,2.71142192 0.7916673,4.44290479 0.774691978,4.49691718 Z" id="Shape"></path>
                        </g>
                        <path d="M186.769463,191 L186.769463,131.970951 L186.769463,125.165726 C184.073154,125.659182 181.939462,126.176709 181,126.4157 C183.080616,125.884418 190.976694,124 197.988157,124 C202.068004,124 205.848851,124.637882 208.01262,126.551529 C213.691852,131.572059 202.333388,142.837302 208.01262,147.859551 C210.854005,150.371536 215.457545,151.628387 220.061084,151.628387 C224.664623,151.628387 229.268163,150.371536 232.107778,147.859551 C237.78701,142.837302 226.428547,131.572059 232.107778,126.551529 C234.271548,124.637882 238.052395,124 242.132242,124 C250.290166,124 259.644091,126.551529 259.644091,126.551529 C259.644091,126.551529 253.154551,145.163596 259.644091,150.904537 C260.845399,151.965382 262.359861,152.355676 264.058323,152.355676 C266.376015,152.355676 269.03517,151.630107 271.692555,150.904537 C274.34994,150.178967 277.007325,149.455117 279.326787,149.455117 C281.02348,149.455117 282.539711,149.841973 283.739249,150.904537 C289.42025,155.926786 289.42025,167.192029 283.739249,172.212559 C282.539711,173.275123 281.02348,173.663698 279.326787,173.663698 C277.007325,173.663698 274.34994,172.939848 271.692555,172.212559 C269.0334,171.488709 266.376015,170.763139 264.058323,170.763139 C262.359861,170.763139 260.845399,171.151714 259.644091,172.212559 C255.443936,175.929814 256.680629,185.035542 258.076552,191 L186.769463,191 Z" id="Path" fill="#2196F3"></path>
                        <g id="Group-26" transform="translate(80.000000, 48.000000)">
                            <g id="Group" transform="translate(8.000000, 82.000000)" fill="#0445A2" fill-rule="nonzero">
                                <polygon id="Path" points="28.7959201 0.0616296789 23.1769798 39.0646568 0.0218504332 76.3523245 10.4370588 79.5827468 39.5897346 48.7644835 51.5034449 14.9109584"></polygon>
                            </g>
                            <g id="Group" transform="translate(0.000000, 157.000000)" fill="#006064" fill-rule="nonzero">
                                <path d="M36.9910089,17.2735432 L20.3525114,17.2735432 L1.49661262,10.875744 L0.140251954,8.36226159 L6.84749095,0.238480583 L7.85943543,1.01740277 L7.85943543,4.81078816 L17.1391438,7.58505509 L20.4945386,4.81078816 L23.5055173,10.1139787 L26.3265344,12.3169216 L35.3914265,13.8318738 C35.9684124,14.4152076 36.9910089,15.7723165 36.9910089,17.2735432 Z" id="Path"></path>
                            </g>
                            <g id="Group" transform="translate(0.000000, 162.000000)" fill="#FFFFFF" fill-rule="nonzero">
                                <path d="M20.3525114,11.8571523 L36.9910089,11.8571523 C36.9910089,10.9047706 36.5968832,10.0370451 36.1654753,9.34921383 L22.7083891,9.34921383 L3.2932579,2.69665119 L2.10732999,0.245150108 L0.140251954,2.69665119 L1.49661262,5.27866383 L20.3525114,11.8571523 Z" id="Path"></path>
                            </g>
                            <g id="Group" transform="translate(87.734796, 25.734021) scale(-1, 1) rotate(-56.883369) translate(-87.734796, -25.734021) translate(78.734796, 14.734021)" fill="#FFF3E0" fill-rule="nonzero">
                                <polygon id="Path" points="2.55012703 21.9701497 17.212923 21.9701497 15.4249496 0.878878696 0.760385201 0.880606922"></polygon>
                            </g>
                            <g id="Group" transform="translate(72.000000, 158.000000)" fill="#FFFFFF">
                                <rect id="Rectangle" x="0.0218862667" y="0.315972475" width="9.19866056" height="8.23090936"></rect>
                            </g>
                            <g id="Group" transform="translate(35.000000, 88.000000)" fill="url(#linearGradient-13)">
                                <path d="M0.734569289,1.47068099 L0.929013889,0.0725317222 L0.734569289,1.47068099 Z" id="Path"></path>
                            </g>
                            <g id="Group" transform="translate(36.000000, 87.000000)" fill="#0445A2" fill-rule="nonzero">
                                <path d="M18.3911331,25.8622846 L11.5157256,19.2542283 C6.37573609,14.3141579 2.5485035,8.46757341 0.222076201,2.1375147 L0.447734276,0.57313031 C4.0976641,6.12963029 9.02811395,10.983366 14.9471611,14.814899 L20.928891,18.680966 L18.3911331,25.8622846 Z" id="Path"></path>
                            </g>
                            <g id="Group" transform="translate(34.000000, 77.000000)" fill="#0445A2" fill-rule="nonzero">
                                <path d="M0.0269996554,6.36579837 C3.58524248,13.9575522 9.33607659,20.5407068 16.6773114,25.4320725 L40.5642038,41.3413628 L36.4946995,82.8489703 L48.8490421,82.8489703 C49.4906924,74.734176 55.1077064,58.8862194 57.7395022,49.4084531 C58.7740347,45.6756136 58.6110487,41.1829173 58.6110487,41.1829173 C59.0571157,39.2832751 57.8184218,34.6304295 56.5042395,33.0936786 L52.5788492,27.0080088 L42.0413721,16.8555714 L32.1592705,6.85476457 L31.9877063,0.0467195892 L0.0269996554,0.0467195892 L0.0269996554,6.36579837 Z" id="Path"></path>
                            </g>
                            <g id="Group" transform="translate(66.000000, 83.000000)" fill="url(#linearGradient-14)">
                                <polygon id="Path" points="20.3002721 20.160579 10.9784445 11.1181375 0.662646729 0.605336742 0.664437666 0.605336742 10.9784445 11.1181375"></polygon>
                            </g>
                            <g id="Group" transform="translate(86.000000, 101.000000)" fill="url(#linearGradient-15)">
                                <path d="M2.61728604,2.75308862 L0.689300963,0.882716756 L2.61728604,2.75308862 Z" id="Path"></path>
                            </g>
                            <g id="Group" transform="translate(61.000000, 83.000000)" fill="#0445A2" fill-rule="nonzero">
                                <path d="M21.1367691,77.8204868 L16.828367,77.8204868 C17.4639496,69.5181249 23.0130087,53.2987061 25.61127,43.5998318 C26.6349816,39.7799085 26.4739674,35.1824015 26.4739674,35.1824015 C26.912943,33.2384424 25.6892348,28.47705 24.3943414,26.9044481 L20.5147457,20.676805 L10.1030566,10.2875201 L0.538810805,0.259131732 C1.39303371,0.158010987 2.23200264,0.0882725422 3.05910735,0.0534033197 L4.64891109,0.0534033197 L14.4114586,10.2875201 L23.233344,19.0919988 L24.8214528,20.676805 L28.6993536,26.9044481 C29.8128942,28.2521435 30.8705035,31.9465377 30.8738933,34.197346 C30.8738933,34.5704467 30.8450802,34.9069347 30.7806745,35.1824015 C30.7806745,35.1824015 30.7908438,35.4456641 30.7908438,35.8919902 C30.7908438,36.4777931 30.7755898,37.380906 30.7044046,38.4409304 C30.6010165,39.9891238 30.3823761,41.8738053 29.9196721,43.5998318 C27.3197158,53.2987061 21.7706567,69.5181249 21.1367691,77.8204868" id="Path"></path>
                            </g>
                            <g id="Group" transform="translate(68.000000, 161.000000)" fill="#006064" fill-rule="nonzero">
                                <path d="M18.2594377,0.115556341 L29.935113,7.15915202 L35.8288756,8.73036237 C37.1151483,9.07336088 37.9937104,10.111018 37.9937104,11.2872604 L37.9937104,12.8671323 L1.72370828,12.8671323 L0.0549814981,10.5596878 L0.0549814981,1.21037987 L1.72370828,1.45117175 L4.36480667,4.6091833 L9.36557492,4.6091833 L18.2594377,0.115556341 Z" id="Path"></path>
                            </g>
                            <g id="Group" transform="translate(68.000000, 169.000000)" fill="#FFFFFF" fill-rule="nonzero">
                                <path d="M37.5463112,2.01431984 C37.8133075,2.36089933 37.9937104,2.74948846 37.9937104,3.17108517 L37.9937104,4.53939902 L1.72370828,4.53939902 L0.0549814981,2.54094063 L0.0549814981,0.0173617917 L1.72370828,2.01431984 L37.5463112,2.01431984 Z" id="Path"></path>
                            </g>
                            <g id="Group" transform="translate(89.500000, 163.500000) scale(-1, 1) rotate(-90.000000) translate(-89.500000, -163.500000) translate(88.000000, 161.000000)" fill="#FFFFFF" fill-rule="nonzero">
                                <polygon id="Path" points="1.23868412 4.305559 2.10288234 4.305559 2.10288234 1.12011406 1.23868412 0.258487861"></polygon>
                            </g>
                            <g id="Group" transform="translate(86.000000, 161.000000)" fill="#FFFFFF" fill-rule="nonzero">
                                <polygon id="Path" points="0.100308722 0.706790689 3.53858308 0.706790689 4.57099131 1.35493936 0.100308722 1.35493936"></polygon>
                            </g>
                            <g id="Group" transform="translate(93.500000, 164.500000) scale(-1, 1) rotate(-90.000000) translate(-93.500000, -164.500000) translate(92.000000, 162.000000)" fill="#FFFFFF" fill-rule="nonzero">
                                <polygon id="Path" points="0.82921957 4.58462301 1.69547541 4.58462301 1.69547541 1.21399274 0.82921957 0.353652546"></polygon>
                            </g>
                            <g id="Group" transform="translate(89.000000, 6.000000)" fill="#FFF3E0" fill-rule="nonzero">
                                <path d="M26.291221,11.3231477 L23.6860189,18.5818831 L21.7377507,18.3301054 C21.7377507,18.3301054 23.4433521,22.0074307 21.1674836,24.3744841 L18.0093477,23.3707987 L16.0298795,26.1540561 C14.5062783,28.2933106 11.299609,28.8379727 9.01507388,27.3478595 L5.95920477,25.3559035 C0.670800537,21.9080898 -0.923867406,15.4560709 2.24293513,10.3194622 L8.58867354,0.027404381 C8.58867354,0.027404381 24.5752197,2.51263918 26.291221,11.3231477" id="Path"></path>
                            </g>
                            <g id="Group" transform="translate(114.000000, 18.000000)" fill="url(#linearGradient-16)">
                                <path d="M1.18724375,3.32292013 L2.4032941,0.109182986 L1.18724375,3.32292013 Z" id="Path"></path>
                            </g>
                            <g id="Group" transform="translate(90.000000, 18.000000)" fill="#ECEEF2" fill-rule="nonzero">
                                <path d="M0.907408133,1.00926007 C0.904321711,1.00926007 0.913580978,0.9861119 0.935185933,0.947531622 C0.942901989,0.942901989 0.953704467,0.936729144 0.961420522,0.929013089 C0.927469878,0.984568689 0.910494556,1.00926007 0.907408133,1.00926007" id="Path"></path>
                            </g>
                            <g id="Group" transform="translate(90.000000, 14.000000)" fill="#D7CCC8" fill-rule="nonzero">
                                <path d="M8.36293966,13.6374911 C7.92305247,12.3203644 9.0879711,11.1929181 9.56263197,10.2870611 C10.1329205,9.20038723 10.9031577,8.66857294 11.645576,7.67939836 C12.0106998,7.18835649 12.3149696,6.1850002 12.7113896,5.71700362 C13.0486944,5.31282476 13.6328924,5.1320079 14.1823167,5.06464476 C14.9890664,4.96714547 15.9123078,4.94232747 16.573008,4.4371039 C17.0128951,4.10028818 17.3988831,3.83438104 17.7257558,3.41247503 C18.0978343,2.93384217 18.4073201,2.45166388 18.9324028,2.0953483 C19.1445224,1.94998573 19.3914156,1.82766845 19.6539569,1.82589573 L19.6609117,1.82589573 C20.2416323,1.82589573 20.3563855,2.54916317 20.7075997,2.88243346 C21.1839993,3.3344756 21.7786294,3.68370032 22.3941237,3.94606204 C22.905297,4.16233318 23.4460279,4.30237761 23.9867587,4.44064933 C24.3727467,4.54169404 24.8108952,4.64273876 25.2733853,4.72428361 C25.2786013,4.7473289 25.2838174,4.7721469 25.2890334,4.7969649 L24.2614709,7.75030693 L24.0163164,7.67408021 C23.4877563,7.4985815 22.9591962,7.3248555 22.4688872,7.07313006 C21.8725184,6.77176863 21.3091846,6.38177149 20.8675587,5.90136591 C20.5424247,5.54505034 20.4850481,4.8093739 19.8973728,4.77391962 L19.8469509,4.77391962 C19.6017964,4.77391962 19.3653353,4.87319162 19.1566931,4.9955089 C18.6072688,5.31637019 18.2612706,5.77727591 17.8526798,6.22931806 C17.4910334,6.62817878 17.0893973,6.86926792 16.6216911,7.17594749 C15.9262173,7.6350805 15.0029758,7.5978535 14.1892715,7.64039864 C13.6363698,7.67053478 13.0382623,7.81412464 12.6713999,8.19171279 C12.2402061,8.63311865 11.8594342,9.61342966 11.4543207,10.0778808 C10.6406164,11.0174194 9.8286507,11.4942795 9.17838269,12.5384083 C8.96800187,12.8769967 8.65156129,13.2404031 8.36293966,13.6374911 Z M0.420628775,5.35714262 C0.589281173,5.09300819 0.716205143,4.79519219 0.860515958,4.51510333 C1.40472421,3.45502017 2.36447807,2.44280031 3.33118666,1.70003302 C4.26312156,0.983856438 5.48889415,0.450269433 6.66424488,0.450269433 C7.18758892,0.450269433 7.70223954,0.558405005 8.17342304,0.801266865 C9.56610934,1.52098887 10.0546797,3.19088574 9.80952518,4.67110219 C9.59392829,3.98683447 9.17664401,3.38233889 8.52811469,2.98879631 C7.99781591,2.66616231 7.39796975,2.52789059 6.78073674,2.52789059 C5.68710418,2.52789059 4.53783372,2.95866017 3.62850171,3.55961032 C2.77828498,4.12156075 1.26562945,4.61969347 0.420628775,5.35714262" id="Shape"></path>
                            </g>
                            <g id="Group" transform="translate(86.000000, 0.000000)" fill="#212121" fill-rule="nonzero">
                                <path d="M14.6273806,17.4048363 C15.0420515,15.8854486 14.5864475,14.0314851 13.0345463,13.2692044 C11.4701871,12.5000251 9.45734282,13.1346842 8.07807284,14.1435853 C7.08855786,14.8661998 6.10616169,15.8509562 5.54911459,16.8822773 C5.30173584,17.3375762 5.10596849,17.8428891 4.6681615,18.1705663 C4.42790157,18.3499265 4.14848817,18.3326803 3.85127773,18.3137095 C3.72669851,18.3068111 3.59855988,18.2999126 3.47042125,18.3068111 C2.51650033,18.3533757 1.51096802,18.2309279 0.91120804,17.5738488 C0.797307035,17.451401 0.694084249,17.3134316 0.63891345,17.1599407 C0.418230253,16.5373539 0.91654715,16.1010257 1.37215117,15.7388561 C2.0021661,15.2369925 2.40437903,14.6678689 2.57878994,13.9228343 C2.78167611,13.0536272 2.69447065,12.1568263 2.74074293,11.2703731 C2.78523551,10.3839199 2.98634198,9.45435123 3.65195097,8.78864901 C4.10577529,8.3350747 4.76782488,8.13846834 5.15402048,7.66074939 C5.52775815,7.20027661 5.73064432,6.60700831 5.92819137,6.07582623 C6.31082756,5.04105594 6.60625829,3.88383783 7.58153565,3.14052783 C8.1652783,2.69557661 8.91453335,2.46620253 9.64955077,2.25752385 C10.3027018,2.07298982 10.91314,2.12990218 11.5698505,2.0005559 C12.3048679,1.85568806 12.9722567,1.50386616 13.6147295,1.17101505 C14.3390687,0.798497741 15.1292569,0.407009648 15.9870739,0.346648048 C16.8110765,0.289735682 17.2364255,0.682948392 17.9500865,0.869207045 C18.3505197,0.972684074 18.8114629,0.955437902 19.272406,0.934742496 C19.6247872,0.920945559 19.9807279,0.907148622 20.3064136,0.948539434 C21.1944855,1.06063955 22.0612009,1.2865644 22.911899,1.53146003 C23.6059833,1.73151562 24.3125255,1.95226662 24.8695726,2.36789935 C25.3750083,2.74731512 25.7202707,3.26297565 26.126043,3.72689767 C26.9731818,4.70475559 27.9502388,4.67716172 28.7617835,5.67571505 C29.5359544,6.62425448 30.2175807,7.7124879 31.0059892,8.65240425 C31.6876155,9.46987278 32.6486553,10.1114304 33.1594301,11.0203036 C33.7307148,12.041277 33.7093584,13.3485368 34.6365837,14.140136 C34.9337942,14.3919301 35.3182101,14.5833626 35.4961804,14.9110399 C35.6972869,15.2818326 35.5673685,15.7371315 35.3021927,16.0768811 C34.0065688,17.739412 31.0469224,17.2582438 29.2209469,16.8098434 C28.6674592,16.6753232 28.1139715,16.5390785 27.5907388,16.3286752 C26.9607238,16.0734319 26.3520653,15.7336823 25.8644267,15.2939049 C25.5031469,14.9696769 25.3874662,14.2608592 24.7859265,14.2660331 C24.5171913,14.2677577 24.2644735,14.3867563 24.0473497,14.5281749 C23.5098793,14.8748229 23.1930921,15.3439188 22.8122357,15.8095654 C22.4776515,16.2200243 22.0825573,16.4787169 21.6322924,16.8063941 C20.9560052,17.29791 20.0109828,17.3220547 19.1852005,17.4169086 C18.6228143,17.4824441 18.024834,17.658355 17.6795716,18.0515677 C17.2737993,18.5068667 16.9623512,19.483 16.5886136,19.9607189 C15.8286803,20.9230553 15.0402718,21.4404404 14.4565291,22.4976307 C13.8799053,23.5410241 12.3155462,24.8879501 13.6592221,26.4814964 C14.4778856,27.4541804 15.5777421,28.861468 16.8342126,29.3271147 C17.1545592,29.4478379 17.4998216,29.5306195 17.845084,29.5271703 C18.8577351,29.5185472 19.1905396,28.5976016 20.0928492,28.4717046 C20.7246438,28.3820245 21.4258469,28.8821634 21.8725524,29.2167392 C22.2516292,29.4995764 22.84605,29.9100353 23.0756317,30.2842772 C23.169956,30.4377681 23.2126689,30.6119544 23.2269065,30.7861408 C23.3212308,31.7950418 22.3388346,32.7159874 21.6732256,33.4523989 C21.2603345,33.9076978 20.813629,34.3457506 20.2601413,34.6648048 C19.6995348,34.9873082 19.0606213,35.1735668 18.4252673,35.3512024 C17.7454206,35.5426349 17.0620146,35.7219951 16.3768289,35.8944568 C15.3873139,36.1428017 14.1450811,36.2531772 13.1359893,36.0203538 C12.6572492,35.9082537 12.2336798,35.6599089 11.8261278,35.4081147 C9.91294684,34.2215781 7.50322871,33.0626354 6.05277059,31.4397707 C4.49019118,29.6892843 3.54160937,27.4593543 3.84771833,25.1052519 C4.07907974,23.3288962 5.96200573,21.8440008 7.98908768,21.8336531 C8.16171889,21.8319285 8.33790951,21.8405516 8.51232042,21.8508993 C8.78283531,21.8629716 9.0533502,21.8767686 9.32564479,21.8543485 C10.4272811,21.7629438 11.7869743,20.9661707 12.5931799,20.3315116 C13.575576,19.5571585 14.319492,18.5396344 14.6273806,17.4048363" id="Path"></path>
                            </g>
                            <g id="Group" transform="translate(91.000000, 33.000000)" fill="url(#linearGradient-17)">
                                <path d="M6.40823558,3.78704087 C6.39774174,3.78086802 6.38549894,3.77469518 6.3750051,3.76852233 C4.49485956,2.7083363 2.12675067,1.67129843 0.70133801,0.217593567 C0.664609585,0.182099711 0.629630133,0.145062644 0.594650681,0.108025578 C0.629630133,0.145062644 0.664609585,0.182099711 0.70133801,0.217593567 C2.12675067,1.67129843 4.49485956,2.7083363 6.3750051,3.76852233 C6.38549894,3.77469518 6.39774174,3.78086802 6.40823558,3.78704087 Z M16.0520705,2.01852093 C16.1045396,1.96605176 16.1605068,1.91049616 16.2164739,1.85494056 L16.0520705,2.01852093 Z" id="Shape"></path>
                            </g>
                            <g id="Group" transform="translate(90.000000, 27.000000)" fill="#DEDAE1" fill-rule="nonzero">
                                <path d="M1.97685343,4.72608403 C0.733025278,3.44907683 -0.00308642222,1.8608554 0.2500002,0.186471343 C-0.00308642222,1.8608554 0.733025278,3.44907683 1.97685343,4.72608403 Z" id="Shape"></path>
                            </g>
                            <g id="Group" transform="translate(90.000000, 23.000000)" fill="#212121" fill-rule="nonzero">
                                <path d="M10.4193711,14.5749676 C10.035057,14.5749676 9.65589008,14.5396942 9.30245842,14.460329 C9.28015448,14.455038 9.25613486,14.4515107 9.23211523,14.444456 C8.78088938,14.3333448 8.38284984,14.0899584 8.00196719,13.8395172 C7.99167306,13.8324626 7.97966325,13.8254079 7.96936912,13.8183532 C6.1250049,12.606712 3.80196383,11.4215259 2.40367839,9.7601489 C2.36764895,9.71782083 2.3333352,9.67549275 2.29902145,9.63316467 C2.28872732,9.62258265 2.2784332,9.6084733 2.26813907,9.59612761 C2.25441357,9.57849091 2.24068807,9.55909054 2.22353119,9.54145384 C2.21838413,9.53263549 2.21152138,9.52381714 2.20637431,9.51676246 C2.20294294,9.51323512 2.19951156,9.50970778 2.19779588,9.50794411 C0.814951632,7.75838363 -0.00343137529,5.57848771 0.277941399,3.28395324 C0.277941399,3.27689857 0.281372774,3.26984389 0.281372774,3.26455288 C0.281372774,3.26278921 0.283088462,3.26102554 0.283088462,3.2574982 C0.283088462,3.25220719 0.283088462,3.25044352 0.284804149,3.24338884 L0.284804149,3.23809783 C0.286519837,3.23280682 0.286519837,3.22751581 0.286519837,3.22398847 C0.288235525,3.22046113 0.288235525,3.21693379 0.288235525,3.21340645 C0.288235525,3.21164278 0.288235525,3.20811544 0.289951212,3.20635177 C0.464951352,2.01940197 1.32451086,0.977073092 2.44657058,0.405644063 C2.22696257,0.791887759 2.07769774,1.21164118 2.02279574,1.65079497 C1.72598177,4.05996797 2.64215898,6.33862941 4.14853273,8.1287543 C5.54510248,9.79013129 7.86985924,10.9753174 9.71422346,12.1869586 C10.1054002,12.4444544 10.5137339,12.7001865 10.9769696,12.8130614 C11.3492738,12.9030086 11.7541761,12.943573 12.1659411,12.943573 C12.8299122,12.943573 13.5127559,12.8395164 14.0995211,12.6843135 C14.7617765,12.5079465 15.4188849,12.3227612 16.0759933,12.1287575 C16.6610427,11.9576815 17.2460922,11.7654415 17.769377,11.463854 L17.6235435,11.6314026 C17.5686415,11.6948947 17.5137395,11.7583868 17.4622689,11.8183516 C17.0710921,12.2769058 16.6490329,12.7178232 16.1223168,13.0441021 C16.1154541,13.0493932 16.1068756,13.0546842 16.1000129,13.0599752 C15.5767281,13.3774357 14.9813845,13.5679121 14.3894723,13.7442791 C14.368884,13.7513338 14.3500115,13.7566248 14.3311389,13.7601521 C13.6757462,13.9559195 13.0169222,14.1393411 12.3563824,14.3157081 C11.7661859,14.470911 11.0850579,14.5749676 10.4193711,14.5749676" id="Path"></path>
                            </g>
                            <g id="Group" transform="translate(86.000000, 2.000000)" fill="#212121" fill-rule="nonzero">
                                <path d="M3.48287917,16.6817601 C3.68754504,15.8245063 3.60033958,14.9417895 3.64483216,14.069258 C3.68932474,13.1967264 3.8904312,12.280059 4.5578199,11.6265091 C5.00986452,11.1817557 5.67013441,10.9865395 6.0581097,10.516323 C6.43184738,10.0630819 6.63473354,9.47913084 6.8322806,8.95629092 C7.21313708,7.93777159 7.51212722,6.79872747 8.48562487,6.06709108 C9.06758782,5.62912776 9.81862257,5.40335598 10.55364,5.19795458 C11.2103505,5.01631863 11.819009,5.0723372 12.4739398,4.94502228 C13.2089572,4.80242957 13.8763459,4.456133 14.5205984,4.12850928 C15.2467173,3.76184232 16.0351259,3.37480497 16.8893834,3.31708888 C17.7169454,3.26276785 18.1422945,3.64810766 18.8541757,3.83144114 C19.566057,4.01307709 20.4576883,3.81446582 21.2122825,3.90952762 C22.1003544,4.01986722 22.9652901,4.24224394 23.8159883,4.48329351 C24.5082928,4.68020725 25.2183944,4.89749138 25.7754415,5.30659664 C26.2808772,5.68005373 26.6261396,6.18761587 27.0283526,6.64594957 C27.8790507,7.6067528 28.8561077,7.57959229 29.6676524,8.56246344 C30.4400436,9.49610617 31.1216699,10.567249 31.9118581,11.4924041 C32.5934845,12.2970343 33.5527445,12.9285163 34.0635193,13.8231158 C34.455054,14.5106164 34.5831926,15.3220368 34.9142174,16.02142 L35.3021927,15.6598457 C35.5673685,15.3254318 35.6972869,14.8772833 35.4961804,14.5123139 C35.3182101,14.1897828 34.9337942,14.0013567 34.6365837,13.753517 C33.7093584,12.9743497 33.7307148,11.6859227 33.1594301,10.6826812 C32.6486553,9.78808171 31.6876155,9.15659972 31.0059892,8.35196945 C30.2175807,7.42681439 29.5359544,6.35567156 28.7617835,5.42202883 C27.9502388,4.43746014 26.9731818,4.46631819 26.126043,3.50381742 C25.7202707,3.04718125 25.3750083,2.53961912 24.8695726,2.16616203 C24.3125255,1.75535923 23.6059833,1.53977264 22.911899,1.3428589 C22.0612009,1.10180933 21.1944855,0.879432606 20.3064136,0.769093012 C19.5535991,0.674031207 18.6601881,0.872642477 17.9500865,0.69100653 C17.2364255,0.505975517 16.8110765,0.120635703 15.9870739,0.176654266 C15.1292569,0.234370362 14.3390687,0.619710176 13.6147295,0.988074668 C12.9722567,1.31569839 12.3048679,1.66199496 11.5698505,1.80458767 C10.91314,1.93190258 10.3027018,1.87418649 9.64955077,2.05751997 C8.91453335,2.26292137 8.1652783,2.48869315 7.58153565,2.92665647 C6.60625829,3.65829285 6.31082756,4.79563944 5.92819137,5.81415878 C5.73064432,6.33869623 5.52775815,6.92094979 5.15402048,7.37588842 C4.76782488,7.84610485 4.10577529,8.03962352 3.65195097,8.48607449 C2.98634198,9.1396244 2.78345581,10.0562918 2.74074293,10.9288234 C2.69447065,11.8013549 2.78167611,12.6840717 2.57878994,13.5396279 C2.40437903,14.2729618 2.0021661,14.8331475 1.37215117,15.3271293 C0.91654715,15.6836111 0.418230253,16.1130868 0.63891345,16.7258959 C0.694084249,16.8769763 0.797307035,17.0110813 0.91120804,17.1333036 C1.38460909,17.6442608 2.11428741,17.8208042 2.87066127,17.8513598 C3.15185437,17.5067607 3.37609698,17.1316061 3.48287917,16.6817601" id="Path"></path>
                            </g>
                            <g id="Group" transform="translate(66.000000, 79.000000)" fill="url(#linearGradient-18)">
                                <path d="M1.11419922,3.9861143 L1.02469298,0.408950944 L1.11419922,3.9861143 Z" id="Path"></path>
                            </g>
                            <g id="Group" transform="translate(34.000000, 79.000000)" fill="#0445A2" fill-rule="nonzero">
                                <path d="M5.00066329,8.57292442 C4.13657481,8.57292442 3.29289786,8.52084105 2.47983823,8.41146596 C1.59023532,6.93229811 0.760166071,5.4166719 0.0406593221,3.84896231 C1.56642186,4.35590716 3.22996229,4.56597677 4.99215848,4.56597677 C8.71556338,4.56597677 12.8829193,3.63368436 17.1047059,2.63541967 C21.3196887,1.64583555 25.5942051,0.588543037 29.542137,0.331598387 C29.5234264,0.329862275 29.5047158,0.328126162 29.4860052,0.32639005 C30.0966504,0.28472335 30.6987908,0.262153887 31.2941274,0.262153887 C31.4557187,0.262153887 31.620712,0.26389 31.7823034,0.267362225 L31.8809591,4.291671 C31.6870495,4.28646266 31.488037,4.28646266 31.2890245,4.28646266 C30.957337,4.28646266 30.6222476,4.291671 30.2854572,4.3055599 L27.5588158,4.3055599 L27.7561273,4.51042117 C24.6229561,4.88021314 21.3247916,5.65451931 18.0470386,6.42882549 C13.5071722,7.50174301 9.00302589,8.57292442 5.00066329,8.57292442" id="Path"></path>
                            </g>
                            <g id="Group" transform="translate(61.000000, 84.000000)" fill="#342860" fill-rule="nonzero">
                                <path d="M0.611112667,0.939816367 L0.372429348,0.757717456 L3.6707859,0.757717456 C2.66666987,0.788581678 1.64815053,0.850310122 0.611112667,0.939816367" id="Path"></path>
                            </g>
                            <g id="Group" transform="translate(28.000000, 20.000000)" fill="#006064" fill-rule="nonzero">
                                <path d="M55.3126185,0.565090603 L40.9421054,2.24710771 C38.3843271,2.54640524 35.9112785,3.28327226 33.657115,4.41745237 C29.943129,6.28499895 26.9722933,9.15370451 25.1576652,12.6227554 L0.591342818,59.6632256 C5.46506676,66.8691199 14.5540941,65.0855867 23.9467363,62.927494 L24.153265,62.8802365 L24.1832735,62.8732354 L24.1991603,62.8697348 L24.2132819,62.8662343 L24.275064,62.8522321 L24.3209592,62.8417304 L24.3350809,62.8382298 L24.3509677,62.8347293 L24.3668545,62.8312287 L24.3809761,62.8277282 L24.396863,62.8242276 L24.4427582,62.8137259 L24.4568798,62.8102254 L24.4727667,62.8067248 L24.5486704,62.789222 L24.5786788,62.7822209 L24.5945656,62.7787204 L24.6104524,62.7752198 L24.6263393,62.7717193 L24.6404609,62.7682187 L24.6563477,62.7647182 L24.6687041,62.7612176 L24.6704693,62.7612176 L24.6863562,62.757717 L24.702243,62.7542165 L24.7322514,62.7472154 L24.746373,62.7437148 L24.8081551,62.7297126 L24.8699372,62.7157104 L24.9158325,62.7052087 L24.9458409,62.6982076 L24.9599625,62.694707 L24.9758494,62.6912065 L25.0058578,62.6842054 L25.0376314,62.6772043 L25.0676399,62.6702031 L25.0835267,62.6649523 L25.0976483,62.663202 L25.1135351,62.6597015 L25.129422,62.6562009 L25.3182986,62.612444 L25.4542192,62.580939 L25.6960519,62.5249301 L25.7790165,62.505677 L25.8866938,62.4811731 L26.0755705,62.4374162 L26.1038137,62.4321653 L26.2644471,62.3954095 L26.428611,62.3569034 L26.4533238,62.3516526 L26.6422005,62.3078956 L26.751643,62.2833917 L26.8328423,62.2658889 L27.021719,62.2238823 L27.0764403,62.20988 L27.2105956,62.1801253 L27.3994723,62.1381186 L27.4012375,62.1381186 L27.588349,62.096112 L27.7772256,62.0541053 L27.9661023,62.0120986 L28.0490668,61.9928456 L28.154979,61.970092 L28.3438556,61.9280853 L28.3738641,61.9228345 L29.0975971,61.7653094 L29.2864737,61.7268033 L29.3429602,61.7145514 L29.4753504,61.6865469 L29.6624618,61.6480408 L29.6659922,61.6462905 L29.8513385,61.6077844 L29.9890243,61.57978 L30.03845,61.5692783 L30.2273266,61.5325225 L30.3102911,61.5150197 L30.4144381,61.4940164 L30.788661,61.4205047 L30.9528248,61.3889997 L30.9757725,61.3837489 L31.1628839,61.3487433 L31.3482302,61.3137377 L31.5353416,61.2787322 L31.5918281,61.2682305 L31.7206879,61.2437266 L32.0931456,61.1772161 L32.2784919,61.1439608 L32.4638381,61.1124558 L32.5485678,61.0984535 L32.6491844,61.0809508 L32.8345306,61.051196 L33.2034579,60.9916866 L33.387039,60.9619319 L33.4982467,60.9444291 L33.57062,60.9339274 L33.7559663,60.9076732 L33.9377822,60.8796688 L34.1213632,60.8551649 L34.1266588,60.8534146 L34.3031791,60.8289107 L34.4867601,60.8044068 L34.668576,60.7816532 L34.8503918,60.7588996 L35.0304425,60.736146 L35.3728917,60.6958896 L35.392309,60.6941393 L35.5723596,60.6748863 L35.7524103,60.6556332 L35.9324609,60.6381304 L35.9889474,60.6328796 L36.1125116,60.6223779 L36.290797,60.6048752 L36.2960926,60.6048752 L36.4690825,60.5908729 L36.6032378,60.5803713 L36.6473679,60.5768707 L36.8256533,60.5628685 L36.9068527,60.5576177 L37.0021736,60.5506165 C39.7029333,60.3738385 42.2589465,60.5453657 44.5554748,61.3137377 L57.9798394,31.7357906 C60.6099911,25.9283684 61.9621361,19.7148817 61.9621361,13.4401352 L55.3126185,0.565090603 Z" id="Path"></path>
                            </g>
                            <g id="Group" transform="translate(58.084926, 80.989243) scale(-1, 1) rotate(100.358753) translate(-58.084926, -80.989243) translate(56.584926, 73.989243)" fill="#392873" fill-rule="nonzero">
                                <path d="M1.26454391,0.295433938 C1.24862723,0.622068672 1.23447907,0.946975181 1.21679388,1.27533814 C1.02225672,5.32630014 0.831256599,9.40145731 1.26454391,13.0843072 C1.26984947,13.1033176 1.27515503,13.1205999 1.28046058,13.1396104 C0.799423246,9.14567985 1.05939563,4.68512826 1.26454391,0.295433938" id="Path"></path>
                            </g>
                            <g id="Group" transform="translate(70.000000, 72.000000)" fill="url(#linearGradient-19)">
                                <path d="M3.4583361,8.37327059 C3.44599041,8.36806225 3.4305583,8.36285391 3.4166694,8.35764557 C3.4305583,8.36285391 3.44599041,8.36806225 3.4583361,8.37327059 L6.59568429,0.529514313 L3.4583361,8.37327059 Z M3.4166694,8.35764557 C2.51852053,8.02257586 1.57253212,7.81424236 0.594136278,7.69097838 L0.598765911,7.67882559 C1.57716176,7.80208957 2.51852053,8.02257586 3.4166694,8.35764557 Z" id="Shape"></path>
                            </g>
                            <g id="Group" transform="translate(68.000000, 20.000000)" fill="#006064">
                                <path d="M3.9943782,60.6642771 C3.98011892,60.6590508 3.96229484,60.6538244 3.94625316,60.648598 C2.90889122,60.3123679 1.82162183,60.091118 0.691574627,59.9674271 L5.12086058,50.3474128 L6.1938707,51.5076681 C6.59313027,51.9414572 7.03160285,52.3438881 7.5057236,52.7132186 L7.61801535,52.7933563 L3.9943782,60.6642771 Z M14.1933215,38.5114155 L13.6479044,35.9034543 L11.7710279,35.9034543 L14.8563776,35.9034543 L13.9170482,31.2432699 L13.9259602,31.2241066 C16.579967,25.4437358 17.9470745,19.259192 17.9470745,13.015416 L14.8563776,0.198602251 L21.5707117,13.015416 C21.5707117,19.259192 20.2053865,25.4437358 17.5495974,31.2241066 L14.1933215,38.5114155 Z" id="Shape"></path>
                            </g>
                            <g id="Group" transform="translate(68.992728, 46.127395) scale(-1, 1) rotate(101.155417) translate(-68.992728, -46.127395) translate(55.992728, 34.627395)" fill="#006064" fill-rule="nonzero">
                                <polygon id="Path" points="4.12557079 22.5881932 25.3884861 22.5881932 22.1414835 6.49840527 0.172928718 0.136803822"></polygon>
                            </g>
                            <g id="Group" transform="translate(64.500000, 48.000000) scale(-1, 1) translate(-64.500000, -48.000000) translate(57.000000, 40.000000)" fill="#006064" fill-rule="nonzero" stroke="#006064" stroke-width="0.5">
                                <path d="M0.66096919,15.84464 L6.45204695,15.84464 L14.9990623,0.569913579 C10.6305878,1.9390962 7.06933139,4.66008603 5.05793377,8.16644458 L0.66096919,15.84464 Z" id="Path"></path>
                            </g>
                            <g id="Group" transform="translate(67.000000, 55.000000)" fill="#FFF3E0" fill-rule="nonzero">
                                <path d="M0.120107093,0.612973828 L2.84594807,11.5936573 L6.72677681,15.7507027 C7.11817961,16.1714768 7.54802377,16.5618335 8.01456194,16.920083 L16.4192383,22.8785148 L32.0945713,35.398657 L36.6568603,42.6937648 L38.0162861,52.5963202 C38.3482795,52.8548681 39.4648259,52.8616275 39.7915774,52.5963202 L40.3839236,45.9518069 L42.0124389,45.9518069 L45.7132922,54.9418401 C46.0452856,55.1446677 47.0849493,55.2189765 47.3418074,54.9418401 L44.9724226,44.9074759 L50.1130791,54.9418401 C50.4957452,55.1564518 51.6594697,55.2629127 51.9320538,54.9418401 L48.082677,43.7364058 L48.5247525,42.8238837 L55.4581737,50.2491104 C55.9841212,50.276148 56.8962295,49.409252 56.9643756,48.9479213 L48.5247525,36.441298 L48.8217993,34.4861348 L52.513916,34.1245056 C54.1896092,33.9588997 55.4581737,32.713476 55.4581737,31.2280927 L47.7856303,30.837736 L40.2371475,30.1871414 L15.2188199,6.2165359 L14.0341274,0.612973828 L0.120107093,0.612973828 Z" id="Path"></path>
                            </g>
                            <g id="Group" transform="translate(107.000000, 105.000000)" fill="url(#linearGradient-20)">
                                <polygon id="Path" points="0.672840044 3.78086722 0.996914378 -0.00154321111 0.996914378 2.16840434e-19"></polygon>
                            </g>
                            <g id="Group" transform="translate(74.000000, 73.000000)" fill="url(#linearGradient-21)">
                                <path d="M8.71875698,4.67078563 L0.475694825,0.195473407 L8.71875698,4.67078563 Z" id="Path"></path>
                            </g>
                            <g id="Group" transform="translate(70.017664, 63.156639) scale(-1, 1) rotate(-47.925547) translate(-70.017664, -63.156639) translate(62.517664, 60.156639)" fill="#5B4A9C" fill-rule="nonzero">
                                <polygon id="Path" points="0.256470692 5.65315351 4.52921661 5.65315351 14.9086644 0.129739628 4.52921661 5.65315351"></polygon>
                            </g>
                            <g id="Group" transform="translate(72.000000, 70.000000)" fill="#554398" fill-rule="nonzero">
                                <path d="M3.34568276,2.92747228 L3.21605302,2.83873764 C2.66872748,2.42978669 2.16255424,1.98418449 1.70164852,1.50578904 L0.4629644,0.219136778 L1.70164852,1.50578904 C2.16255424,1.98418449 2.66872748,2.42978669 3.21811064,2.83873764 L3.34568276,2.92747228 Z" id="Path"></path>
                            </g>
                            <g id="Group" transform="translate(67.000000, 56.000000)" fill="#FFF3E0" fill-rule="nonzero">
                                <path d="M39.9000328,53.2371668 C39.5257269,53.2371668 39.1496302,53.1691929 38.9794911,53.0400424 L37.5861421,43.0818645 L32.9100053,35.7440809 L16.8435085,23.1553126 L8.34013914,17.2415824 L8.22910103,17.1634124 C7.75092083,16.8031507 7.3103503,16.4106014 6.90918039,15.9874638 L5.83103625,14.8556982 L2.93150908,11.8070683 L0.137647193,0.766405842 L3.26462338,0.766405842 L5.66268816,10.2351716 L9.63856854,14.4155671 C10.0415294,14.8387047 10.4820999,15.231254 10.9602801,15.5898164 L19.5728967,21.583416 L35.6411844,34.1721842 L40.3173211,41.5099678 L41.2432356,48.1391235 L40.8671388,52.3042248 L40.7990832,53.0400424 C40.6325261,53.1708922 40.2671749,53.2371668 39.9000328,53.2371668" id="Path"></path>
                            </g>
                        </g>
                        <g id="Group-27" transform="translate(0.000000, 76.000000)">
                            <g id="Group" fill="#651FFF">
                                <path d="M44.5253695,88.6481088 C44.3408697,88.7309749 44.1511482,88.8121146 43.9649079,88.8932542 C38.1096503,91.4206692 35.0010029,90.9959806 29.2954339,88.6222132 C24.0441521,86.4314416 18.9460399,83.8332452 14.5946297,80.3632287 C9.08574445,75.9696009 4.80917853,70.0308662 3.92149085,63.4430141 C3.71958542,61.9652359 3.73176937,60.3458949 4.70300412,59.144337 C6.03975732,57.4921948 8.77592404,57.2470493 10.8907094,57.9859384 C13.0020136,58.7213748 14.6659929,60.2077848 16.3473778,61.5768012 C17.061009,62.1603164 17.8251166,62.7438317 18.7545779,62.9682606 C19.6822985,63.1944159 20.8206274,62.9579023 21.2958014,62.2034759 C22.0564279,60.9950124 20.754486,59.6070058 19.572643,58.7161956 C16.8382168,56.6600814 14.2708848,55.4706081 11.4024352,53.6458283 C7.79772704,51.3566532 4.46106571,48.5581972 2.48378493,45.0035883 C0.508244709,41.4489794 0.0626603065,37.0415405 2.1217476,33.5231855 C2.74835067,32.4545586 3.60818932,31.4739768 4.74129653,30.828312 C6.75164803,29.6837245 9.32942342,29.7424213 11.654817,30.1912792 C13.9784701,30.640137 16.2237977,31.4377229 18.5874837,31.6604254 C24.1764349,32.1852439 26.3712862,28.6358141 26.2616307,23.9935881 C26.1867864,20.8809315 25.0728254,17.8545938 24.8726606,14.7488427 C24.5228072,9.27795606 27.5148368,3.44625674 33.0045759,1.10529041 C38.4977961,-1.23567592 46.1667214,1.00688696 48.1300777,6.19292152 C50.2640092,11.8295403 45.393911,18.158436 48.6174356,23.5447302 C49.6687363,25.3021813 52.0446063,27.7173819 53.9052693,28.7549341 C56.968662,30.465773 61.3827325,28.4545446 64.9526294,28.6012866 C65.7445861,28.6340877 66.6061653,28.7342175 67.1614052,29.2452249 C67.5721783,29.6233014 67.7392725,30.1619308 67.8506686,30.6815701 C68.691361,34.6004444 67.1231128,38.8680467 63.8543335,41.5542883 C60.1608565,44.5892579 53.7538402,46.1378175 52.1821108,50.8888052 C51.2056544,53.8391824 51.6286115,61.1969984 56.832898,60.4512039 C58.7858109,60.1698045 60.091234,58.4278908 61.9640809,57.8564602 C64.2790311,57.1503723 66.9351319,58.5366525 67.9707675,60.5357963 C69.0064031,62.5349401 68.7000639,64.9190659 67.7984517,66.9717273 C66.3729297,70.2104094 63.6298007,72.8086058 60.9493321,75.3170306 C55.4282628,80.484075 51.806149,85.4077004 44.5253695,88.6481088" id="Path"></path>
                            </g>
                            <g id="Group" transform="translate(35.000000, 19.000000)" fill="#424242" stroke="#424242" stroke-width="0.5">
                                <rect id="Rectangle" x="0.253087422" y="0.240904693" width="2.1666684" height="126.516559"></rect>
                            </g>
                            <g id="Group" transform="translate(21.000000, 38.000000)" fill="#424242">
                                <polygon id="Path" points="15.5734763 15.748051 0.507978979 1.62765562 1.77792643 0.437201996 15.5734763 13.3671438 29.3673216 0.437201996 30.6372691 1.62765562"></polygon>
                            </g>
                            <g id="Group" transform="translate(21.000000, 65.000000)" fill="#424242">
                                <polygon id="Path" points="15.5734763 15.6067074 0.507978979 1.48631206 1.77792643 0.295858429 15.5734763 13.227556 29.3673216 0.295858429 30.6372691 1.48631206"></polygon>
                            </g>
                        </g>
                    </g>
                </g>
            </g>
        </g>
    </g>
</svg>