<?xml version="1.0" encoding="UTF-8"?>
<svg width="493px" height="307px" viewBox="0 0 493 307" version="1.1" xmlns="http://www.w3.org/2000/svg" xmlns:xlink="http://www.w3.org/1999/xlink">
    <!-- Generator: Sketch 64 (93537) - https://sketch.com -->
    <title>Layer-1</title>
    <desc>Created with Sketch.</desc>
    <defs>
        <linearGradient x1="-1494.12231%" y1="-1975.5918%" x2="89.2818594%" y2="213.492653%" id="linearGradient-1">
            <stop stop-color="#A35AA0" offset="0%"></stop>
            <stop stop-color="#3A2D71" offset="100%"></stop>
        </linearGradient>
        <linearGradient x1="340.620872%" y1="73.6909563%" x2="-10.5350066%" y2="152.197197%" id="linearGradient-2">
            <stop stop-color="#3A2D71" offset="0%"></stop>
            <stop stop-color="#A35AA0" offset="100%"></stop>
        </linearGradient>
        <linearGradient x1="-305.496092%" y1="-950.047249%" x2="59.982276%" y2="193.810327%" id="linearGradient-3">
            <stop stop-color="#A35AA0" offset="0%"></stop>
            <stop stop-color="#3A2D71" offset="100%"></stop>
        </linearGradient>
        <linearGradient x1="-1340.9%" y1="-922.01%" x2="2425.1%" y2="-922.01%" id="linearGradient-4">
            <stop stop-color="#443877" offset="0%"></stop>
            <stop stop-color="#A662A5" offset="100%"></stop>
        </linearGradient>
        <linearGradient x1="-1024.60905%" y1="-742.146789%" x2="2074.97942%" y2="-742.146789%" id="linearGradient-5">
            <stop stop-color="#3A2D71" offset="0%"></stop>
            <stop stop-color="#A35AA0" offset="100%"></stop>
        </linearGradient>
        <linearGradient x1="1234.1323%" y1="3008.03496%" x2="82.519309%" y2="-1562.84184%" id="linearGradient-6">
            <stop stop-color="#BF76AE" offset="0%"></stop>
            <stop stop-color="#48327F" offset="100%"></stop>
        </linearGradient>
        <linearGradient x1="-1306%" y1="-7982.33997%" x2="15663%" y2="5541.11549%" id="linearGradient-7">
            <stop stop-color="#A35AA0" offset="0%"></stop>
            <stop stop-color="#3A2D71" offset="100%"></stop>
        </linearGradient>
        <linearGradient x1="-1245.38628%" y1="-6268.06641%" x2="14976.4578%" y2="6970.21484%" id="linearGradient-8">
            <stop stop-color="#A35AA0" offset="0%"></stop>
            <stop stop-color="#3A2D71" offset="100%"></stop>
        </linearGradient>
        <linearGradient x1="-3335.85%" y1="-8035.16285%" x2="13633.15%" y2="5488.29261%" id="linearGradient-9">
            <stop stop-color="#C379AF" offset="0%"></stop>
            <stop stop-color="#4B337F" offset="100%"></stop>
        </linearGradient>
    </defs>
    <g id="Landing" stroke="none" stroke-width="1" fill="none" fill-rule="evenodd">
        <g transform="translate(-930.000000, -3182.000000)" id="Testimonials">
            <g transform="translate(0.000000, 2825.000000)">
                <g id="Artwork" transform="translate(1176.500000, 511.000000) scale(-1, 1) translate(-1176.500000, -511.000000) translate(930.000000, 357.000000)">
                    <g id="Layer-1">
                        <g id="Group-20" transform="translate(156.253299, 0.443194)">
                            <g id="Group" transform="translate(0.000000, 0.537288)" fill="#B2EBF2" fill-rule="nonzero">
                                <path d="M194.589362,266.005727 L0.309543743,266.005727 L0.309543743,7.29606791 C0.309543743,3.43181804 3.44600319,0.299125779 7.31652762,0.299125779 L187.582378,0.299125779 C191.452902,0.299125779 194.589362,3.43181804 194.589362,7.29606791 L194.589362,266.005727 Z" id="Path"></path>
                            </g>
                            <path d="M194.589362,13.0769987 L0.309543743,13.0769987 L0.309543743,6.99694214 C0.309543743,3.13269226 3.44600319,-1.86517468e-14 7.31652762,-1.86517468e-14 L187.58075,-1.86517468e-14 C191.452902,-1.86517468e-14 194.589362,3.13269226 194.589362,6.99694214 L194.589362,13.0769987 Z" id="Path" fill="#006064"></path>
                            <g id="Group" transform="translate(17.387609, 7.635709) scale(-1, 1) rotate(-90.000000) translate(-17.387609, -7.635709) translate(15.387609, 5.635709)" fill="#FFFFFF" stroke="#0445A2" stroke-width="0.5">
                                <ellipse id="Oval" cx="2.26078992" cy="1.80615429" rx="1.70739282" ry="1.70696776"></ellipse>
                            </g>
                            <g id="Group" transform="translate(23.789112, 7.525163) scale(-1, 1) rotate(-90.000000) translate(-23.789112, -7.525163) translate(21.789112, 5.525163)" fill="#FFFFFF">
                                <path d="M2.15173814,0.100812215 C1.20770779,0.100812215 0.44271768,0.864883498 0.44271768,1.80777998 C0.44271768,2.74905077 1.20770779,3.51149637 2.15173814,3.51149637 C3.09576849,3.51149637 3.85913096,2.74905077 3.85913096,1.80777998 C3.85913096,0.864883498 3.09576849,0.100812215 2.15173814,0.100812215" id="Path"></path>
                            </g>
                            <g id="Group" transform="translate(30.188986, 7.414571) scale(-1, 1) rotate(-90.000000) translate(-30.188986, -7.414571) translate(28.188986, 5.414571)" fill="#FFFFFF">
                                <path d="M2.04105872,0.100812215 C1.09702837,0.100812215 0.33203826,0.864883498 0.33203826,1.80452861 C0.33203826,2.74742509 1.09702837,3.51149637 2.04105872,3.51149637 C2.98508907,3.51149637 3.74845154,2.74742509 3.74845154,1.80452861 C3.74845154,0.864883498 2.98508907,0.100812215 2.04105872,0.100812215" id="Path"></path>
                            </g>
                            <g id="Group" transform="translate(90.192626, 100.234577)" fill="#1C98F3">
                                <rect id="Rectangle" x="0.250656334" y="0.4058033" width="70.7290324" height="18.5311671"></rect>
                            </g>
                            <g id="Group" transform="translate(90.192626, 210.430108)" fill="#FFFFFF">
                                <rect id="Rectangle" x="0.250656334" y="0.2178416" width="70.7290324" height="51.0968607"></rect>
                            </g>
                            <g id="Group" transform="translate(37.435686, 248.633673)" fill="#1C98F3">
                                <rect id="Rectangle" x="0.156545721" y="0.2178416" width="43.5377031" height="12.8932965"></rect>
                            </g>
                            <g id="Group" transform="translate(90.192626, 149.836004)" fill="#FFFFFF">
                                <rect id="Rectangle" x="0.250656334" y="0.222718651" width="70.7290324" height="9.26477073"></rect>
                            </g>
                            <g id="Group" transform="translate(105.796505, 153.082820)" fill="#FFFFFF">
                                <rect id="Rectangle" x="0.0784190714" y="0.0617759761" width="47.5595979" height="3.08717312"></rect>
                            </g>
                            <g id="Group" transform="translate(34.852916, 35.403129)" fill="#EDE7F6">
                                <rect id="Rectangle" x="0.452483512" y="0.189587384" width="125.865288" height="48.0291957"></rect>
                            </g>
                            <path d="M194.589362,35.5927163 L0.309543743,35.5927163 L0.309543743,10.6726127 L194.589362,10.6726127 L194.589362,35.5927163 Z M38.7218131,17.1899782 L38.7218131,23.5870431 L158.867579,23.5870431 L158.867579,17.1899782 L38.7218131,17.1899782 Z" id="Shape" fill="#006064"></path>
                            <g id="Group" transform="translate(38.108193, 28.223493)" fill="#FFFFFF" fill-rule="nonzero">
                                <path d="M18.3434862,2.64498719 L1.81318932,2.64498719 C1.15074044,2.64498719 0.613619726,2.11013729 0.613619726,1.44685839 C0.613619726,0.783579486 1.15074044,0.247103904 1.81318932,0.247103904 L18.3434862,0.247103904 C19.0075628,0.247103904 19.5446835,0.783579486 19.5446835,1.44685839 C19.5446835,2.11013729 19.0075628,2.64498719 18.3434862,2.64498719" id="Path"></path>
                            </g>
                            <g id="Group" transform="translate(62.522771, 28.223493)" fill="#FFFFFF" fill-rule="nonzero">
                                <path d="M21.5564447,2.64498719 L1.49417217,2.64498719 C0.831723289,2.64498719 0.292974936,2.11013729 0.292974936,1.44685839 C0.292974936,0.783579486 0.831723289,0.247103904 1.49417217,0.247103904 L21.5564447,0.247103904 C22.2205212,0.247103904 22.7560143,0.783579486 22.7560143,1.44685839 C22.7560143,2.11013729 22.2205212,2.64498719 21.5564447,2.64498719" id="Path"></path>
                            </g>
                            <g id="Group" transform="translate(90.192626, 28.223493)" fill="#FFFFFF" fill-rule="nonzero">
                                <path d="M21.5141261,2.64498719 L1.45022593,2.64498719 C0.78614941,2.64498719 0.250656334,2.11013729 0.250656334,1.44685839 C0.250656334,0.783579486 0.78614941,0.247103904 1.45022593,0.247103904 L21.5141261,0.247103904 C22.176575,0.247103904 22.7136957,0.783579486 22.7136957,1.44685839 C22.7136957,2.11013729 22.176575,2.64498719 21.5141261,2.64498719" id="Path"></path>
                            </g>
                            <g id="Group" transform="translate(117.862481, 28.223493)" fill="#FFFFFF" fill-rule="nonzero">
                                <path d="M21.4718075,2.64498719 L1.40790733,2.64498719 C0.743830809,2.64498719 0.208337732,2.11013729 0.208337732,1.44685839 C0.208337732,0.783579486 0.743830809,0.247103904 1.40790733,0.247103904 L21.4718075,0.247103904 C22.1342564,0.247103904 22.6713771,0.783579486 22.6713771,1.44685839 C22.6713771,2.11013729 22.1342564,2.64498719 21.4718075,2.64498719" id="Path"></path>
                            </g>
                            <g id="Group" transform="translate(145.532336, 28.223493)" fill="#FFFFFF" fill-rule="nonzero">
                                <path d="M14.4371538,2.64498719 L1.36558873,2.64498719 C0.701512207,2.64498719 0.164391492,2.11013729 0.164391492,1.44685839 C0.164391492,0.783579486 0.701512207,0.247103904 1.36558873,0.247103904 L14.4371538,0.247103904 C15.1012303,0.247103904 15.638351,0.783579486 15.638351,1.44685839 C15.638351,2.11013729 15.1012303,2.64498719 14.4371538,2.64498719" id="Path"></path>
                            </g>
                            <g id="Group" transform="translate(44.618747, 67.176952)" fill="#F9FAFB">
                                <rect id="Rectangle" x="0.57618404" y="0.60088533" width="31.7291855" height="31.6910757"></rect>
                            </g>
                            <g id="Group" transform="translate(47.874025, 70.427994)" fill="#1C98F3">
                                <rect id="Rectangle" x="0.198571901" y="0.223726739" width="25.9754833" height="25.9426586"></rect>
                            </g>
                            <g id="Group" transform="translate(95.075542, 105.467978)" fill="#FFFFFF">
                                <rect id="Rectangle" x="0.105796505" y="0.0871693179" width="10.6935851" height="10.6823668"></rect>
                            </g>
                            <g id="Group" transform="translate(37.435686, 153.779717)" fill="#FFFFFF">
                                <rect id="Rectangle" x="0.156545721" y="0.145693927" width="14.2922939" height="14.2751275"></rect>
                            </g>
                            <g id="Group" transform="translate(53.559872, 153.779717)" fill="#FFFFFF">
                                <rect id="Rectangle" x="0.126450005" y="0.145693927" width="14.2906663" height="14.2751275"></rect>
                            </g>
                            <g id="Group" transform="translate(69.033325, 153.779717)" fill="#FFFFFF">
                                <rect id="Rectangle" x="0.748713724" y="0.145693927" width="14.2906663" height="14.2751275"></rect>
                            </g>
                            <g id="Group" transform="translate(37.435686, 169.082147)" fill="#FFFFFF">
                                <rect id="Rectangle" x="0.156545721" y="0.28612031" width="14.2922939" height="14.2751275"></rect>
                            </g>
                            <g id="Group" transform="translate(53.559872, 169.082147)" fill="#FFFFFF">
                                <rect id="Rectangle" x="0.126450005" y="0.28612031" width="14.2906663" height="14.2751275"></rect>
                            </g>
                            <g id="Group" transform="translate(69.033325, 169.082147)" fill="#FFFFFF">
                                <rect id="Rectangle" x="0.748713724" y="0.28612031" width="14.2906663" height="14.2751275"></rect>
                            </g>
                            <g id="Group" transform="translate(37.435686, 184.664617)" fill="#FFFFFF">
                                <rect id="Rectangle" x="0.156545721" y="0.14731961" width="14.2922939" height="14.2751275"></rect>
                            </g>
                            <g id="Group" transform="translate(53.559872, 184.664617)" fill="#FFFFFF">
                                <rect id="Rectangle" x="0.126450005" y="0.14731961" width="14.2906663" height="14.2751275"></rect>
                            </g>
                            <g id="Group" transform="translate(69.033325, 184.664617)" fill="#FFFFFF">
                                <rect id="Rectangle" x="0.748713724" y="0.14731961" width="14.2906663" height="14.2751275"></rect>
                            </g>
                            <g id="Group" transform="translate(37.435686, 105.479065)" fill="#FFFFFF" fill-rule="nonzero">
                                <path d="M42.7469632,1.96870282 L1.10220371,1.96870282 C0.581359377,1.96870282 0.156545721,1.54602509 0.156545721,1.02255497 C0.156545721,0.500710543 0.581359377,0.0764071283 1.10220371,0.0764071283 L42.7469632,0.0764071283 C43.2694351,0.0764071283 43.6942488,0.500710543 43.6942488,1.02255497 C43.6942488,1.54602509 43.2694351,1.96870282 42.7469632,1.96870282" id="Path"></path>
                            </g>
                            <g id="Group" transform="translate(110.679420, 105.743076)" fill="#FFFFFF" fill-rule="nonzero">
                                <path d="M8.50470375,2.64823855 L1.26333992,2.64823855 C0.740867953,2.64823855 0.316054297,2.22556082 0.316054297,1.70534208 C0.316054297,1.18187196 0.740867953,0.757568549 1.26333992,0.757568549 L8.50470375,0.757568549 C9.02717571,0.757568549 9.45036173,1.18187196 9.45036173,1.70534208 C9.45036173,2.22556082 9.02717571,2.64823855 8.50470375,2.64823855" id="Path"></path>
                            </g>
                            <g id="Group" transform="translate(110.679420, 110.701411)" fill="#FFFFFF" fill-rule="nonzero">
                                <path d="M21.138434,2.60759647 L1.26333992,2.60759647 C0.740867953,2.60759647 0.316054297,2.18491873 0.316054297,1.66144862 C0.316054297,1.13960419 0.740867953,0.71692646 1.26333992,0.71692646 L21.138434,0.71692646 C21.6625336,0.71692646 22.0857196,1.13960419 22.0857196,1.66144862 C22.0857196,2.18491873 21.6625336,2.60759647 21.138434,2.60759647" id="Path"></path>
                            </g>
                            <g id="Group" transform="translate(94.403035, 123.408892)" fill="#FFFFFF" fill-rule="nonzero">
                                <path d="M65.820367,1.94431756 L1.53352792,1.94431756 C1.01105595,1.94431756 0.586242293,1.52163983 0.586242293,0.999795403 C0.586242293,0.476325289 1.01105595,0.0536475582 1.53352792,0.0536475582 L65.820367,0.0536475582 C66.3444666,0.0536475582 66.7676526,0.476325289 66.7676526,0.999795403 C66.7676526,1.52163983 66.3444666,1.94431756 65.820367,1.94431756" id="Path"></path>
                            </g>
                            <g id="Group" transform="translate(94.403035, 127.986167)" fill="#FFFFFF" fill-rule="nonzero">
                                <path d="M20.2123077,2.09388045 L1.53352792,2.09388045 C1.01105595,2.09388045 0.586242293,1.67120272 0.586242293,1.14935829 C0.586242293,0.625888179 1.01105595,0.203210448 1.53352792,0.203210448 L20.2123077,0.203210448 C20.7380349,0.203210448 21.161221,0.625888179 21.161221,1.14935829 C21.161221,1.67120272 20.7380349,2.09388045 20.2123077,2.09388045" id="Path"></path>
                            </g>
                            <g id="Group" transform="translate(94.403035, 133.027704)" fill="#FFFFFF" fill-rule="nonzero">
                                <path d="M8.49819319,2.34849518 L1.53352792,2.34849518 C1.01105595,2.34849518 0.586242293,1.92419177 0.586242293,1.40072165 C0.586242293,0.880502906 1.01105595,0.457825174 1.53352792,0.457825174 L8.49819319,0.457825174 C9.02066516,0.457825174 9.44710645,0.880502906 9.44710645,1.40072165 C9.44710645,1.92419177 9.02066516,2.34849518 8.49819319,2.34849518" id="Path"></path>
                            </g>
                            <g id="Group" transform="translate(90.192626, 167.423592)" fill="#FFFFFF">
                                <rect id="Rectangle" x="0.250656334" y="0.137565509" width="70.7290324" height="18.5311671"></rect>
                            </g>
                            <g id="Group" transform="translate(95.075542, 171.705513)" fill="#1C98F3">
                                <rect id="Rectangle" x="0.105796505" y="0.772199701" width="10.6935851" height="10.6807411"></rect>
                            </g>
                            <g id="Group" transform="translate(110.679420, 172.932579)" fill="#FFFFFF" fill-rule="nonzero">
                                <path d="M8.50470375,2.38000076 L1.26333992,2.38000076 C0.740867953,2.38000076 0.316054297,1.95732303 0.316054297,1.43710429 C0.316054297,0.913634173 0.740867953,0.489330758 1.26333992,0.489330758 L8.50470375,0.489330758 C9.02717571,0.489330758 9.45036173,0.913634173 9.45036173,1.43710429 C9.45036173,1.95732303 9.02717571,2.38000076 8.50470375,2.38000076" id="Path"></path>
                            </g>
                            <g id="Group" transform="translate(110.679420, 177.890101)" fill="#FFFFFF" fill-rule="nonzero">
                                <path d="M21.138434,2.33935867 L1.26333992,2.33935867 C0.740867953,2.33935867 0.316054297,1.91668094 0.316054297,1.39483651 C0.316054297,0.872992083 0.740867953,0.450314352 1.26333992,0.450314352 L21.138434,0.450314352 C21.6625336,0.450314352 22.0857196,0.872992083 22.0857196,1.39483651 C22.0857196,1.91668094 21.6625336,2.33935867 21.138434,2.33935867" id="Path"></path>
                            </g>
                            <g id="Group" transform="translate(94.403035, 189.925979)" fill="#FFFFFF" fill-rule="nonzero">
                                <path d="M65.820367,2.34849518 L1.53352792,2.34849518 C1.01105595,2.34849518 0.586242293,1.92581745 0.586242293,1.40397302 C0.586242293,0.880502906 1.01105595,0.457825174 1.53352792,0.457825174 L65.820367,0.457825174 C66.3444666,0.457825174 66.7676526,0.880502906 66.7676526,1.40397302 C66.7676526,1.92581745 66.3444666,2.34849518 65.820367,2.34849518" id="Path"></path>
                            </g>
                            <g id="Group" transform="translate(94.403035, 194.503254)" fill="#FFFFFF" fill-rule="nonzero">
                                <path d="M20.2123077,2.49805807 L1.53352792,2.49805807 C1.01105595,2.49805807 0.586242293,2.07538034 0.586242293,1.55353591 C0.586242293,1.0300658 1.01105595,0.607388064 1.53352792,0.607388064 L20.2123077,0.607388064 C20.7380349,0.607388064 21.161221,1.0300658 21.161221,1.55353591 C21.161221,2.07538034 20.7380349,2.49805807 20.2123077,2.49805807" id="Path"></path>
                            </g>
                            <g id="Group" transform="translate(94.403035, 200.216881)" fill="#FFFFFF" fill-rule="nonzero">
                                <path d="M8.49819319,2.08025739 L1.53352792,2.08025739 C1.01105595,2.08025739 0.586242293,1.65595397 0.586242293,1.13410954 C0.586242293,0.612265115 1.01105595,0.189587384 1.53352792,0.189587384 L8.49819319,0.189587384 C9.02066516,0.189587384 9.44710645,0.612265115 9.44710645,1.13410954 C9.44710645,1.65595397 9.02066516,2.08025739 8.49819319,2.08025739" id="Path"></path>
                            </g>
                            <g id="Group" transform="translate(37.435686, 111.640081)" fill="#FFFFFF" fill-rule="nonzero">
                                <path d="M42.7469632,2.13939959 L1.10220371,2.13939959 C0.581359377,2.13939959 0.156545721,1.71509618 0.156545721,1.19162607 C0.156545721,0.671407319 0.581359377,0.247103904 1.10220371,0.247103904 L42.7469632,0.247103904 C43.2694351,0.247103904 43.6942488,0.671407319 43.6942488,1.19162607 C43.6942488,1.71509618 43.2694351,2.13939959 42.7469632,2.13939959" id="Path"></path>
                            </g>
                            <g id="Group" transform="translate(37.435686, 209.056536)" fill="#FFFFFF" fill-rule="nonzero">
                                <path d="M42.7469632,2.53707448 L1.10220371,2.53707448 C0.581359377,2.53707448 0.156545721,2.11439674 0.156545721,1.59255231 C0.156545721,1.0690822 0.581359377,0.64640447 1.10220371,0.64640447 L42.7469632,0.64640447 C43.2694351,0.64640447 43.6942488,1.0690822 43.6942488,1.59255231 C43.6942488,2.11439674 43.2694351,2.53707448 42.7469632,2.53707448" id="Path"></path>
                            </g>
                            <g id="Group" transform="translate(37.435686, 217.897523)" fill="#FFFFFF" fill-rule="nonzero">
                                <path d="M42.7469632,2.65799266 L1.10220371,2.65799266 C0.581359377,2.65799266 0.156545721,2.23368924 0.156545721,1.71184481 C0.156545721,1.19000038 0.581359377,0.767322651 1.10220371,0.767322651 L42.7469632,0.767322651 C43.2694351,0.767322651 43.6942488,1.19000038 43.6942488,1.71184481 C43.6942488,2.23368924 43.2694351,2.65799266 42.7469632,2.65799266" id="Path"></path>
                            </g>
                            <g id="Group" transform="translate(37.435686, 227.018389)" fill="#FFFFFF" fill-rule="nonzero">
                                <path d="M42.7469632,2.49805807 L1.10220371,2.49805807 C0.581359377,2.49805807 0.156545721,2.07375465 0.156545721,1.55191022 C0.156545721,1.0300658 0.581359377,0.60576238 1.10220371,0.60576238 L42.7469632,0.60576238 C43.2694351,0.60576238 43.6942488,1.0300658 43.6942488,1.55191022 C43.6942488,2.07375465 43.2694351,2.49805807 42.7469632,2.49805807" id="Path"></path>
                            </g>
                            <g id="Group" transform="translate(37.435686, 235.857425)" fill="#FFFFFF" fill-rule="nonzero">
                                <path d="M27.6017866,2.61897625 L1.10220371,2.61897625 C0.581359377,2.61897625 0.156545721,2.19629852 0.156545721,1.67445409 C0.156545721,1.15098398 0.581359377,0.728306245 1.10220371,0.728306245 L27.6017866,0.728306245 C28.1242586,0.728306245 28.5474446,1.15098398 28.5474446,1.67445409 C28.5474446,2.19629852 28.1242586,2.61897625 27.6017866,2.61897625" id="Path"></path>
                            </g>
                            <g id="Group" transform="translate(37.435686, 118.078080)" fill="#FFFFFF" fill-rule="nonzero">
                                <path d="M27.6017866,2.50781217 L1.10220371,2.50781217 C0.581359377,2.50781217 0.156545721,2.08350876 0.156545721,1.56166433 C0.156545721,1.03819421 0.581359377,0.615516482 1.10220371,0.615516482 L27.6017866,0.615516482 C28.1242586,0.615516482 28.5474446,1.03819421 28.5474446,1.56166433 C28.5474446,2.08350876 28.1242586,2.50781217 27.6017866,2.50781217" id="Path"></path>
                            </g>
                            <g id="Group" transform="translate(37.435686, 141.877308)" fill="#FFFFFF" fill-rule="nonzero">
                                <path d="M26.9230614,3.95366247 L1.78092897,3.95366247 C0.884100144,3.95366247 0.156545721,3.22698191 0.156545721,2.33123026 C0.156545721,1.4354786 0.884100144,0.708798042 1.78092897,0.708798042 L26.9230614,0.708798042 C27.8198902,0.708798042 28.5474446,1.4354786 28.5474446,2.33123026 C28.5474446,3.22698191 27.8198902,3.95366247 26.9230614,3.95366247" id="Path"></path>
                            </g>
                            <g id="Group" transform="translate(99.417441, 154.624776) scale(-1, 1) rotate(-90.000000) translate(-99.417441, -154.624776) translate(96.417441, 152.124776)" fill="#1C98F3" fill-rule="nonzero">
                                <path d="M2.93463227,0.140816876 C1.75459434,0.140816876 0.795915242,1.09671882 0.795915242,2.2769651 C0.795915242,3.45721138 1.75459434,4.41311333 2.93463227,4.41311333 C4.11792548,4.41311333 5.0733493,3.45721138 5.0733493,2.2769651 C5.0733493,1.09671882 4.11792548,0.140816876 2.93463227,0.140816876" id="Path"></path>
                            </g>
                            <g id="Group" transform="translate(173.202191, 3.967286)" fill="#FFFFFF">
                                <rect id="Rectangle" x="0.361335754" y="0.109928888" width="5.73579818" height="1.59154423"></rect>
                            </g>
                            <g id="Group" transform="translate(173.202191, 6.392188)" fill="#FFFFFF">
                                <rect id="Rectangle" x="0.362963392" y="0.186953612" width="5.73742582" height="1.59154423"></rect>
                            </g>
                            <g id="Group" transform="translate(173.202191, 8.946117)" fill="#FFFFFF">
                                <rect id="Rectangle" x="0.366218669" y="0.13495157" width="5.73742582" height="1.59154423"></rect>
                            </g>
                            <g id="Group" transform="translate(38.108193, 17.115814)" fill="#FFFFFF">
                                <rect id="Rectangle" x="0.613619726" y="0.0741638492" width="120.145766" height="6.39706489"></rect>
                            </g>
                        </g>
                        <g id="Group-19" transform="translate(398.771440, 161.445531)">
                            <g id="Group" transform="translate(0.000000, -0.000000)" fill="#2196F3">
                                <path d="M0.973620263,14.0556602 L8.12709161,9.931301 L8.12709161,1.65819725 C8.12709161,1.06319706 8.61050025,0.578743355 9.20784359,0.578743355 L92.7756887,0.578743355 C93.3746597,0.578743355 93.8564407,1.06319706 93.8564407,1.65819725 L93.8564407,27.7731783 C93.8564407,28.3681785 93.3746597,28.8526322 92.7756887,28.8526322 L9.20784359,28.8526322 C8.61050025,28.8526322 8.12709161,28.3681785 8.12709161,27.7731783 L8.12709161,19.5000746 L0.973620263,15.3740896 C0.464169403,15.0814666 0.464169403,14.349909 0.973620263,14.0556602" id="Path"></path>
                            </g>
                            <g id="Group" transform="translate(13.693615, 5.678005)" fill="#FFFFFF">
                                <path d="M16.0094526,17.9898343 L2.42192613,17.9898343 C1.22398418,17.9898343 0.250656334,17.0193012 0.250656334,15.8244238 L0.250656334,2.25159159 C0.250656334,1.05508848 1.22398418,0.0845553793 2.42192613,0.0845553793 L16.0094526,0.0845553793 C17.2090222,0.0845553793 18.1790948,1.05508848 18.1790948,2.25159159 L18.1790948,15.8244238 C18.1790948,17.0193012 17.2090222,17.9898343 16.0094526,17.9898343" id="Path"></path>
                            </g>
                            <g id="Group" transform="translate(38.108193, 7.159478)" fill="#FFFFFF">
                                <path d="M46.0117136,3.43282613 L1.85550793,3.43282613 C0.906594662,3.43282613 0.138349275,2.66550348 0.138349275,1.71772995 C0.138349275,0.771582106 0.906594662,0.00425945519 1.85550793,0.00425945519 L46.0117136,0.00425945519 C46.9606269,0.00425945519 47.7288723,0.771582106 47.7288723,1.71772995 C47.7288723,2.66550348 46.9606269,3.43282613 46.0117136,3.43282613" id="Path"></path>
                            </g>
                            <g id="Group" transform="translate(38.108193, 13.755864)" fill="#FFFFFF">
                                <path d="M46.0117136,3.46110018 L1.85550793,3.46110018 C0.906594662,3.46110018 0.138349275,2.69377753 0.138349275,1.746004 C0.138349275,0.799856155 0.906594662,0.0325335047 1.85550793,0.0325335047 L46.0117136,0.0325335047 C46.9606269,0.0325335047 47.7288723,0.799856155 47.7288723,1.746004 C47.7288723,2.69377753 46.9606269,3.46110018 46.0117136,3.46110018" id="Path"></path>
                            </g>
                            <g id="Group" transform="translate(38.108193, 19.703610)" fill="#FFFFFF">
                                <path d="M31.2474045,4.14061608 L1.85550793,4.14061608 C0.906594662,4.14061608 0.138349275,3.37166775 0.138349275,2.4255199 C0.138349275,1.47937206 0.906594662,0.710423725 1.85550793,0.710423725 L31.2474045,0.710423725 C32.1946901,0.710423725 32.9629355,1.47937206 32.9629355,2.4255199 C32.9629355,3.37166775 32.1946901,4.14061608 31.2474045,4.14061608" id="Path"></path>
                            </g>
                        </g>
                        <g id="Group-18" transform="translate(325.000000, 158.000000)">
                            <g id="Group" transform="translate(26.042216, 0.000000)" fill="#212121" fill-rule="nonzero">
                                <path d="M31.7262227,6.25013578 C28.4660627,3.1190692 24.3790623,0.535857986 19.8623654,0.285502715 C15.7590887,0.0579070134 10.6255168,2.77117291 7.90084985,5.75755365 C6.24879674,7.56531379 5.02481257,9.71609317 3.81710478,11.8457387 C2.77378848,13.6843868 2.18621097,15.758759 2.05599989,17.8786504 C1.90300186,20.3854545 3.05536994,23.0109335 2.0901803,25.4494589 C1.79395008,26.198899 1.30077561,26.8638036 1.01431123,27.6181208 C0.36813873,29.3234629 0.840153904,31.2222613 1.32193491,32.9812509 C1.50097515,33.63315 1.68164302,34.2931776 1.67513247,34.9710876 C1.663739,36.0879322 1.14614995,37.1283697 0.853175012,38.2078236 C0.166311552,40.7373873 1.06314038,43.9025932 3.48832179,44.90564 C4.34283202,45.260039 5.29011765,45.3169379 6.21461633,45.2860499 C6.53526112,45.2779215 6.86567175,45.2535363 7.14888085,45.1072247 C8.02292274,44.6569104 7.9789765,43.4083854 8.46238514,42.5549015 C9.08251542,41.4608165 10.5099544,41.1389311 11.768119,41.1194229 C12.020403,41.1145459 12.2759422,41.1177972 12.5314815,41.1210486 C13.5520108,41.1340541 14.582306,41.1486852 15.4889007,40.7097507 C18.53584,39.23363 17.8066579,34.146866 20.6078239,32.2448162 C21.831808,31.4124663 23.5001375,31.3897067 24.6476227,30.4565643 C25.9692652,29.3803618 26.1824858,27.483189 26.906785,25.9404153 C27.5334258,24.6073548 28.5653486,23.5148954 29.4800815,22.3590344 C31.7994664,19.4263012 33.4303602,15.9522154 34.2018609,12.2928016 L34.3450931,12.2440311 C35.0010314,10.0412299 33.386414,7.84330569 31.7262227,6.25013578" id="Path"></path>
                            </g>
                            <g id="Group" transform="translate(27.669855, 39.629159)" fill="#FFF3E0" fill-rule="nonzero">
                                <polygon id="Path" points="25.5298028 24.4340242 7.07726475 22.4767012 0.0849296255 2.39138055 5.78491976 0.147937206 18.7002315 0.37228154 27.1558137 2.39138055"></polygon>
                            </g>
                            <g id="Group" transform="translate(25.890017, 101.581814)" fill="#0445A2">
                                <rect id="Rectangle" x="0.0385575244" y="0.509847049" width="42.673427" height="25.6841749"></rect>
                            </g>
                            <path d="M47.9716828,40.4465525 C47.9716828,40.4465525 55.8543362,42.1811569 58.5269187,43.2476053 C58.5269187,43.2476053 67.0769039,44.0474416 69.7478587,55.523142 L76.3397948,85.2341352 L90.2349449,100.35787 L84.8881524,104.448089 L67.0573723,92.3562549 C66.0368429,91.6637137 65.3060332,90.6249019 64.9984095,89.4332759 L60.074803,70.1120265 L60.3075553,85.9461846 C60.3075553,85.9461846 71.5301229,102.136367 68.1462624,107.650686 L25.3930811,105.337338 L26.6398523,83.0979869 L21.831808,61.5706849 L24.6818031,43.0704058 L33.4547748,39.7783965 C33.4547748,39.7783965 31.4055779,51.6523894 42.3156389,53.21142 C42.3156389,53.21142 51.9805565,50.5875667 47.9716828,40.4465525" id="Path" fill="#4527A0" fill-rule="nonzero"></path>
                            <g id="Group" transform="translate(65.778048, 95.500132)" fill="#C3C2CB" fill-rule="nonzero">
                                <path d="M3.00299309,9.49825157 C3.00462073,8.90487706 2.93951519,8.27086047 2.82395285,7.60758157 L2.82395285,7.60595588 C2.93951519,8.27086047 3.00462073,8.90487706 3.00299309,9.49825157 Z M2.6107322,6.59152933 C2.14359995,4.66834565 1.31024902,2.56308541 0.349942284,0.527729568 C1.31024902,2.56308541 2.14359995,4.66834565 2.6107322,6.59152933" id="Shape"></path>
                            </g>
                            <g id="Group" transform="translate(60.222626, 85.262585)" fill="url(#linearGradient-1)">
                                <path d="M5.90536501,10.7652767 C3.49971526,5.66225592 0.299777912,0.993292668 0.0946954567,0.697418257 C0.299777912,0.993292668 3.49971526,5.66225592 5.90536501,10.7652767 Z" id="Path"></path>
                            </g>
                            <g id="Group" transform="translate(66.580980, 101.594202)" fill="#2D2183" fill-rule="nonzero">
                                <path d="M0.757973755,6.01340357 C0.510572698,6.0003981 0.26479928,5.990644 0.0173982235,5.98739263 C0.019025862,5.98251558 0.0222811391,5.97926421 0.0255364161,5.97276148 L0.757973755,6.01340357 Z M2.02102125,1.51351141 C1.96079863,1.1786206 1.88918253,0.840478412 1.80780061,0.497459176 C1.88918253,0.840478412 1.96079863,1.1786206 2.02102125,1.51188573 L2.02102125,1.51351141 Z" id="Shape"></path>
                            </g>
                            <g id="Group" transform="translate(52.756940, 69.657648)" fill="#00BED6" fill-rule="nonzero">
                                <path d="M15.3893223,37.9922253 C15.1191343,37.9775942 14.850574,37.9613373 14.5820136,37.9499575 L13.8495763,37.9109411 C14.9531152,35.6707491 12.671166,31.879655 11.5383295,29.9077009 C10.009977,27.2480825 7.90218507,24.9168523 5.38260062,23.1627397 C4.17652047,22.3238869 2.87115437,21.5988321 1.8587632,20.535635 C0.846372036,19.4708123 0.162763853,17.9475467 0.556652378,16.533202 C0.732437339,15.9024368 1.1067942,15.3480787 1.49254453,14.8164802 C3.91772594,11.4854545 5.15147595,3.98942751 7.31786283,0.455191403 L7.43830809,9.31516692 L7.55061514,16.2877238 C7.55061514,16.2877238 7.55387042,16.2942265 7.56038098,16.302355 C7.76546343,16.5982294 10.9654008,21.2671926 13.3710505,26.3702134 C14.3313573,28.4055692 15.1647082,30.5108295 15.6318405,32.4340131 C15.7132224,32.7786581 15.7848385,33.1168002 15.8450611,33.4500654 C15.9606234,34.1133443 16.025729,34.7473609 16.0241311,35.3407354 C16.0241311,36.3665417 15.83204,37.2704218 15.3893223,37.9922253 Z" id="Path"></path>
                            </g>
                            <g id="Group" transform="translate(83.503529, 102.831300) rotate(-145.839760) translate(-83.503529, -102.831300) translate(81.003529, 101.831300)" fill="url(#linearGradient-2)">
                                <polygon id="Path" points="0.445392939 0.439264316 4.97348097 0.439264316 0.445392939 0.439264316 0.0449940695 1.63901817"></polygon>
                            </g>
                            <g id="Group" transform="translate(60.070426, 70.070552)" fill="url(#linearGradient-3)">
                                <polygon id="Path" points="4.9165902 19.3082637 2.74043749 10.8173184 0.00437711521 0.0406619226"></polygon>
                            </g>
                            <path d="M84.8881524,104.447277 L81.1429561,101.907959 L80.3209986,101.350349 L79.7480699,100.961811 L78.9781969,100.438341 L76.3446777,98.654966 L75.4364554,98.0372062 L68.746861,93.501549 L67.0573723,92.3554421 C66.9597139,92.2904147 66.8669385,92.222136 66.7774184,92.150606 C65.9033765,91.4678189 65.2767357,90.5135426 64.9984095,89.432463 L64.987016,89.3788155 L60.074803,70.1112136 L69.2742159,89.432463 C69.580212,90.6240891 70.3110217,91.6629009 71.3299234,92.3554421 L85.894033,103.678328 L84.8881524,104.447277 Z" id="Path" fill="#4527A0"></path>
                            <g id="Group" transform="translate(-0.000000, 96.548698)" fill="#1C98F3" fill-rule="nonzero">
                                <path d="M19.1575979,31.2271383 C19.1575979,31.2271383 11.9162341,26.0233252 6.23740327,21.1852908 C1.93229936,17.5144973 0.122365312,12.2440311 0.789697109,6.63054573 L0.843409181,6.42408392 C0.843409181,6.42408392 3.30602628,0.070912482 6.86892702,0.070912482 C6.86892702,0.070912482 28.8094944,5.7429225 44.8270852,21.3202226 L71.8068215,30.1363046 L21.831808,36.541498 L19.1575979,31.2271383 Z" id="Path"></path>
                            </g>
                            <g id="Group" transform="translate(-0.000000, 96.548698)" fill="#1C98F3" fill-rule="nonzero">
                                <path d="M21.831808,36.541498 L19.1575979,31.2271383 C19.1575979,31.2271383 14.5871889,27.9416318 9.86052664,24.1667945 C8.63817011,23.188133 7.4044201,22.1785835 6.23740327,21.1852908 C6.22275453,21.1722854 6.20810578,21.1592799 6.19345703,21.1462744 C6.18857412,21.1413974 6.18531884,21.138146 6.17880829,21.1348947 C6.16904245,21.1251405 6.15927662,21.1153864 6.14951079,21.107258 C6.13974496,21.1007553 6.13160677,21.0926269 6.12184094,21.0828728 C6.11533038,21.07637 6.10556455,21.0698673 6.099054,21.0633646 C6.08928817,21.0552362 6.08114997,21.0487334 6.07138414,21.040605 C6.06812886,21.0373536 6.06487359,21.0341023 6.06161831,21.0324766 C5.7865474,20.7902497 5.51961468,20.5415201 5.26244779,20.2830365 C1.66211136,16.678896 0.174449745,11.8002195 0.789697109,6.63054573 L0.841781542,6.4354637 C0.841781542,6.43221234 0.843409181,6.42733529 0.845036819,6.42408392 C0.875961951,6.34279974 2.41082509,2.43140504 4.79206026,0.786213258 C5.42195637,0.353781425 6.11044747,0.0774152164 6.84451244,0.070912482 L6.86892702,0.070912482 C6.86892702,0.070912482 7.96107248,0.353781425 9.82634623,0.963412768 C9.75798541,0.940653198 9.68799696,0.929273413 9.6180085,0.929273413 C8.02780566,0.929273413 6.6312918,6.64680257 6.59060083,7.58319631 C6.52224002,9.1097132 7.10493461,10.5809568 7.67786337,11.9969272 C8.23451575,13.3706299 8.78791285,14.7443325 9.34456523,16.1196608 C9.93539801,17.577899 10.534369,19.0556453 11.4881652,20.3074217 C12.5917041,21.7559058 14.2909587,22.4078049 15.4726243,23.7571223 C16.7958944,25.269008 17.5739056,27.6311262 19.3154789,28.7089545 C19.8916629,29.0633535 20.5655053,29.2373016 21.1351787,29.5998291 C22.0385181,30.170444 22.5805218,31.1377257 23.1420571,32.056237 L23.3390013,32.3732453 C24.3839453,34.0233141 26.0050732,34.2135191 26.8530729,35.8993529 L21.831808,36.541498 Z" id="Path"></path>
                            </g>
                            <g id="Group" transform="translate(29.297494, 119.759590)" fill="#0445A2" fill-rule="nonzero">
                                <polygon id="Path" points="0.193981407 12.3519439 0.193981407 10.6628586 21.3516547 0.378784275 29.7925881 2.77179051 32.3365871 3.60251482 31.8482956 3.72444109 6.07138414 10.6628586 6.07138414 11.596001"></polygon>
                            </g>
                            <g id="Group" transform="translate(34.852916, 115.884578)" fill="#1C98F3" fill-rule="nonzero">
                                <path d="M55.3820287,0.347278691 C55.3820287,0.347278691 65.890063,2.61835865 66.7820089,6.35417953 C66.7820089,6.35417953 72.5698915,19.2962465 54.6674953,23.4336112 L0.515961414,23.4336112 L0.515961414,14.5378707 L26.2928728,7.59945315 L55.3820287,0.347278691 Z" id="Path"></path>
                            </g>
                            <g id="Group" transform="translate(100.761389, 121.055878)" fill="url(#linearGradient-4)">
                                <path d="M0.873536091,1.18450574 C0.871908452,1.178003 0.870280814,1.17475163 0.870280814,1.1682489 C0.870280814,1.17475163 0.871908452,1.178003 0.873536091,1.18450574 Z" id="Path"></path>
                            </g>
                            <g id="Group" transform="translate(99.133751, 119.152202)" fill="url(#linearGradient-5)">
                                <path d="M2.10077554,2.20055797 C1.66945133,1.55678728 0.967939125,0.965038452 0.123194728,0.42856287 C0.84098332,0.674041091 1.62550509,1.44298942 2.10077554,2.20055797 Z" id="Path"></path>
                            </g>
                            <g id="Group" transform="translate(34.852916, 119.155454)" fill="#0445A2" fill-rule="nonzero">
                                <path d="M54.6674953,20.1627359 L0.515961414,20.1627359 L0.515961414,18.5630632 C0.515961414,18.6215878 0.926126324,18.6492245 1.64228728,18.6492245 C6.43405511,18.6492245 24.9386776,17.4706039 26.8283659,17.3129125 C29.6002343,17.0820655 32.3802409,16.8577211 35.1195566,16.3618877 C36.2491377,16.1570515 37.3949952,16.0920242 38.5424804,16.0920242 C39.5190635,16.0920242 40.5005296,16.139169 41.480368,16.1846881 C42.4602064,16.231833 43.4384171,16.2789778 44.4150002,16.2789778 C45.8310458,16.2789778 47.2356978,16.1798111 48.6191906,15.8432946 C49.9505989,15.5165322 51.2022529,14.9377888 52.4473964,14.3622968 C53.8064746,13.7331573 55.1622974,13.1040178 56.5213756,12.4781296 C58.7723997,11.4344407 61.0885293,10.3468584 62.7552312,8.50983595 C63.8603978,7.297076 64.6465472,5.65513559 64.6790999,3.99368696 C64.7035145,2.70614557 63.9694495,1.58604958 63.9596837,0.347278691 L63.962939,0.347278691 C64.1045435,0.347278691 64.2526586,0.376540995 64.404029,0.426937186 C65.2487734,0.963412768 65.9502856,1.55353591 66.3816098,2.19893229 C66.5720436,2.50130944 66.7120205,2.80368658 66.7787536,3.07029869 C66.7787536,3.07517574 66.7803813,3.07842711 66.7820089,3.08492984 C66.7820089,3.08492984 67.6739548,5.07801791 67.6739548,7.75226741 C67.6739548,8.4659425 67.6104769,9.22513673 67.4509684,10.0087162 C66.736435,13.5055616 64.0915224,17.4657268 56.5213756,19.6815335 L56.519748,19.6815335 C55.9321705,19.853856 55.3169231,20.0147987 54.6674953,20.1627359" id="Path"></path>
                            </g>
                            <g id="Group" transform="translate(6.358354, 126.655720)" fill="#FFF3E0" fill-rule="nonzero">
                                <path d="M29.0105234,3.76672869 L25.5827166,1.17051201 C24.4677842,0.323530866 23.0680151,-0.0617561431 21.6780118,0.0943094808 L4.75545399,1.98660517 C2.14309414,1.98660517 0.0222811391,4.09836814 0.015755658,6.70759029 L0.015755658,6.85065045 C0.00926003081,9.46800101 2.13332831,11.5960208 4.75545399,11.5960208 L29.0105234,11.5960208 L29.0105234,3.76672869 Z" id="Path"></path>
                            </g>
                            <g id="Group" transform="translate(6.358354, 126.704491)" fill="#00BED6" fill-rule="nonzero">
                                <path d="M25.5827166,1.1217415 C24.4677842,0.274760358 23.0680151,-0.110526651 21.6780118,0.0455389733 L4.75545399,1.93783466 C2.14309414,1.93783466 0.0222811391,4.04959764 0.0157528715,6.65881978 L0.0157528715,6.80187994 C0.0141429464,7.34485826 0.124822366,7.85857427 0.290841497,8.34465366 C0.932131078,6.48487164 2.67858722,5.14043132 4.75545399,5.14043132 L21.6780118,3.24813563 C23.0680151,3.09207001 24.4677842,3.47735701 25.5827166,4.32271248 L29.0105234,6.92055484 L29.0105234,3.71795818 L25.5827166,1.1217415 Z" id="Path"></path>
                            </g>
                            <g id="Group" transform="translate(6.358354, 127.211724)" fill="#00BED6" fill-rule="nonzero">
                                <path d="M9.6351143,4.73561627 L9.6351143,4.54541129 C9.63836958,3.11318406 10.1282888,1.79800604 10.9388528,0.73968603 L4.75545399,1.43222724 C2.14309414,1.43222724 0.0222811391,3.54236452 0.015755658,6.15158667 L0.015755658,6.29464683 C0.00926003081,8.91362308 2.13332831,11.0416429 4.75545399,11.0416429 L15.9308201,11.0416429 C12.4493013,11.0416429 9.62697611,8.21457914 9.6351143,4.73561627" id="Path"></path>
                            </g>
                            <g id="Group" transform="translate(60.269287, 116.633816) scale(-1, 1) rotate(-165.616431) translate(-60.269287, -116.633816) translate(37.769287, 109.633816)" fill="#F5F5F5" fill-rule="nonzero">
                                <polygon id="Path" points="0.304998307 13.5110353 35.7956404 13.5110353 44.8094985 -0.00164051417 21.6449574 0.146296625"></polygon>
                            </g>
                            <g id="Group" transform="translate(63.365303, 116.225849) scale(-1, 1) rotate(-165.486512) translate(-63.365303, -116.225849) translate(43.365303, 109.725849)" fill="#E0E0E0" fill-rule="nonzero">
                                <polygon id="Path" points="0.0325070617 12.0671188 32.7301487 12.0671188 39.3318528 0.360567294 20.5130897 0.523135707"></polygon>
                            </g>
                            <g id="Group" transform="translate(36.480555, 115.226176)" fill="#E0E0E0" fill-rule="nonzero">
                                <path d="M25.301641,7.14263606 L0.670587075,0.609013748 L0.670587075,1.08371335 C0.670587075,1.75349499 1.10842184,2.34524381 1.74808378,2.54195153 L22.8080987,9.01379786 C23.4135803,9.19912579 24.0695186,8.96990441 24.4227162,8.44480861 L25.301641,7.14263606 Z" id="Path"></path>
                            </g>
                            <g id="Group" transform="translate(78.123368, 119.138972) scale(-1, 1) rotate(-166.058682) translate(-78.123368, -119.138972) translate(58.623368, 118.138972)" fill="#E0E0E0" fill-rule="nonzero">
                                <polygon id="Path" points="0.480781632 0.402438911 38.0483069 0.402438911 38.4063873 1.84767163 2.86038918 1.79890112"></polygon>
                            </g>
                            <g id="Group" transform="translate(47.874025, 101.493410)" fill="#FFF3E0" fill-rule="nonzero">
                                <path d="M2.7751237,0.598251558 L11.4243948,2.6140992 C11.7596884,2.69375769 12.0787055,2.83844353 12.3537764,3.04490535 L16.6995713,6.27513863 C17.3815519,6.7823519 17.912162,7.46513901 18.2328068,8.25196986 L19.6032785,10.5978313 L20.226664,15.1416169 C19.4486528,15.7675051 18.2881465,15.2716716 18.205137,14.2767532 L18.0000545,11.8496076 C17.6256977,11.082285 15.7685621,9.22738001 14.927073,9.07131439 L12.5116574,8.54946996 L14.4908658,11.8951268 C14.9921785,12.7404822 14.4078563,13.8134334 13.4247626,13.8573269 L8.58091033,8.00324027 L0.0976583119,4.60068454 L2.7751237,0.598251558 Z" id="Path"></path>
                            </g>
                            <g id="Group" transform="translate(60.895133, 90.450759)" fill="#F5F5F5" fill-rule="nonzero">
                                <path d="M0.294602574,32.3456086 L12.801377,10.405383 L13.0064595,10.246066 L50.4128482,0.12456004 C50.7123337,0.0416501776 50.9581071,0.368412577 50.7937156,0.630147634 L35.1879174,24.1391579 L34.9795797,24.2919722 L0.672214713,32.8430678 C0.382495055,32.9162236 0.148115106,32.605718 0.294602574,32.3456086" id="Path"></path>
                            </g>
                            <g id="Group" transform="translate(86.870220, 107.586934) scale(-1, 1) rotate(-90.176535) translate(-86.870220, -107.586934) translate(83.370220, 104.586934)" fill="#E0E0E0" fill-rule="nonzero">
                                <path d="M3.43810699,0.66678306 C1.90324425,1.31543064 0.659728723,2.77691981 0.659728723,3.9279035 C0.659728723,5.07888718 1.90324425,5.48693366 3.43810699,4.83503471 C4.97296974,4.18476144 6.21648526,2.72489795 6.21648526,1.57228859 C6.21648526,0.422930584 4.9713421,0.0148841086 3.43810699,0.66678306" id="Path"></path>
                            </g>
                            <g id="Group" transform="translate(27.669855, 104.987621)" fill="#00BED6" fill-rule="nonzero">
                                <path d="M21.1319235,3.30277144 C18.7311566,3.30277144 10.2300006,3.18897359 2.35548538,1.69659606 C1.65560081,1.27879538 0.957343878,0.875625855 0.262342225,0.487087479 L5.72795241,0.782961891 C14.0028667,2.35987497 21.9506256,2.66225211 21.9506256,2.66225211 L22.3249825,1.91606335 L22.412875,1.95182839 L21.7976276,3.29789439 C21.7976276,3.29789439 21.56162,3.30277144 21.1319235,3.30277144" id="Path"></path>
                            </g>
                            <g id="Group" transform="translate(29.730307, 105.035416) scale(-1, 1) rotate(-3.100728) translate(-29.730307, -105.035416) translate(25.230307, 104.035416)" fill="#00BED6" fill-rule="nonzero">
                                <path d="M0.797851011,1.53533615 L6.27159948,1.53533615 C6.96334587,1.19394259 7.65183698,0.867180187 8.33056226,0.553423251 L8.35497684,0.111237309 C5.94281649,0.728997081 3.35161591,1.19069123 0.797851011,1.53533615" id="Path"></path>
                            </g>
                            <g id="Group" transform="translate(15.321254, 99.187182)" fill="#1C98F3" fill-rule="nonzero">
                                <path d="M14.7040865,7.49866077 C8.62648421,6.34605111 2.92161116,4.37084556 0.690118737,0.992675073 C0.582694594,0.830106715 0.483408644,0.643153103 0.382495055,0.465953592 C1.74157323,1.00893191 3.2145861,1.62994304 4.77223617,2.33386403 C5.68045847,2.84270299 6.67982853,3.30927418 7.74593177,3.73682896 C8.68019629,4.19527173 9.6356201,4.68135112 10.6073203,5.19669282 L10.6073203,5.19506713 C11.2681415,5.54621479 11.9387286,5.91036791 12.6109433,6.28915218 C13.305945,6.67769056 14.0042019,7.08086009 14.7040865,7.49866077" id="Path"></path>
                            </g>
                            <g id="Group" transform="translate(49.501663, 104.270695)" fill="#C3C2CB" fill-rule="nonzero">
                                <polygon id="Path" points="0.581066956 2.66875485 0.493174475 2.63461549 1.70413754 0.21072127"></polygon>
                            </g>
                            <path d="M29.1903618,41.378882 C29.1903618,41.378882 18.5651375,45.3780636 17.1995488,46.0949901 C16.703119,46.3567251 12.3915046,47.8734879 12.214092,52.8562081 C12.0350517,57.8356769 10.3683499,89.5056188 16.0113726,98.0437089 C21.6527678,106.583425 49.6204807,107.649873 49.6204807,107.649873 L52.6478883,101.60233 L25.8911385,89.8648948 L22.8995389,62.1063477 L29.1903618,41.378882 Z" id="Path" fill="#4527A0" fill-rule="nonzero"></path>
                            <g id="Group" transform="translate(51.129302, 100.831756)" fill="#A35AA0" fill-rule="nonzero">
                                <path d="M1.09051782,1.62568358 L1.51858675,0.770574018 L1.09051782,1.62568358 Z" id="Path"></path>
                            </g>
                            <g id="Group" transform="translate(51.129302, 101.963850)" fill="#C3C2CB" fill-rule="nonzero">
                                <path d="M0.615247365,1.44298942 L1.09051782,0.49196453 L0.615247365,1.44298942 Z" id="Path"></path>
                            </g>
                            <g id="Group" transform="translate(96.030673, 105.117676)" fill="#FFF3E0" fill-rule="nonzero">
                                <path d="M5.46753025,4.67647407 L1.1526605,3.23611842 C0.426733717,2.99389156 0.0328451925,2.20868639 0.275363334,1.48200583 C0.519509113,0.756950954 1.30565852,0.36516121 2.03158531,0.607388064 L6.34645505,2.0493694 C7.07238184,2.28997057 7.46627036,3.07517574 7.22212458,3.80023062 C6.97960644,4.52691118 6.19345703,4.91870092 5.46753025,4.67647407" id="Path"></path>
                            </g>
                            <g id="Group" transform="translate(95.075542, 107.552312)" fill="#FFF3E0" fill-rule="nonzero">
                                <path d="M5.94739119,4.45764421 L0.976583119,2.79944696 C0.250656334,2.55722011 -0.143232191,1.77201494 0.0992859504,1.04696006 C0.34343173,0.320279499 1.12958114,-0.0715102446 1.85713556,0.170716609 L6.826316,1.82891386 C7.55387042,2.07114072 7.94613131,2.85634589 7.70361317,3.58302645 C7.45946739,4.30970701 6.67331798,4.69987107 5.94739119,4.45764421" id="Path"></path>
                            </g>
                            <g id="Group" transform="translate(95.075542, 109.573057)" fill="#FFF3E0" fill-rule="nonzero">
                                <path d="M4.93662766,4.49338942 L0.976583119,3.17008298 C0.250656334,2.92785613 -0.143232191,2.14427664 0.0992859504,1.41759608 C0.34343173,0.692541206 1.12958114,0.299125779 1.85713556,0.541352633 L5.81555247,1.86465907 C6.54310689,2.10526024 6.93536778,2.89046541 6.69447728,3.61714597 C6.4503315,4.34382653 5.66418209,4.73399059 4.93662766,4.49338942" id="Path"></path>
                            </g>
                            <g id="Group" transform="translate(95.075542, 111.200366)" fill="#FFF3E0" fill-rule="nonzero">
                                <path d="M3.61661282,4.24465983 L1.13446406,3.41556121 C0.408537271,3.17333435 0.0179040238,2.38812918 0.258794526,1.6630743 C0.501312668,0.938019427 1.28746208,0.544604 2.01664414,0.786830854 L4.49553762,1.6143038 C5.22309205,1.85815633 5.61535293,2.6433615 5.37120715,3.36841638 C5.12868901,4.09509694 4.3425396,4.48851237 3.61661282,4.24465983" id="Path"></path>
                            </g>
                            <g id="Group" transform="translate(64.049044, 112.235757) scale(-1, 1) rotate(-84.211187) translate(-64.049044, -112.235757) translate(61.049044, 111.235757)" fill="#FFF3E0" fill-rule="nonzero">
                                <path d="M2.24870911,1.8412033 L5.8441611,1.8412033 L5.8441611,0.0480750728 L0.45505221,0.0497007557 C0.45505221,1.03974164 1.2591053,1.8412033 2.24870911,1.8412033" id="Path"></path>
                            </g>
                            <g id="Group" transform="translate(35.808048, 34.265996)" fill="#FFF3E0">
                                <rect id="Rectangle" x="0.262342225" y="0.308262285" width="10.5666293" height="13.7451547"></rect>
                            </g>
                            <g id="Group" transform="translate(35.808048, 34.560407)" fill="#C3C2CB" fill-rule="nonzero">
                                <path d="M0.262342225,7.55068264 L0.262342225,0.0140135567 L5.83212128,0.0140135567 C7.19445473,1.50964245 9.01903752,2.58096793 10.8289716,3.57100923 L10.8289716,4.88293588 L0.262342225,7.55068264 Z" id="Path"></path>
                            </g>
                            <g id="Group" transform="translate(34.180409, 9.635134)" fill="#FFF3E0" fill-rule="nonzero">
                                <path d="M27.2616102,7.46839037 L26.0359984,0.715300776 C23.2429706,1.80125741 20.2985725,2.50030135 17.3151111,2.78154461 C16.3271345,2.87420857 15.3245092,2.92460476 14.3788512,3.22210486 C12.3752282,3.85287009 10.9201193,5.58259742 10.2365111,7.5155352 C9.72380501,8.970522 10.4090408,12.3275586 8.31589768,12.6120532 C7.39628191,12.7356052 6.52875057,12.1357279 5.92977959,11.4269299 C5.33243625,10.7213832 4.89134621,9.88253049 4.21750386,9.24363685 C2.57358894,7.68948334 0.483701066,8.69090443 0.306288466,10.8498122 C0.200491961,12.145482 0.716453375,13.4752912 1.67024955,14.3596631 C2.64846031,15.2700459 4.08566513,15.7740078 4.62604113,16.9981475 C4.8360065,17.4809756 4.87506982,18.0158255 4.93040953,18.5425469 C5.1192156,20.3584355 5.55216745,22.1922066 6.53363348,23.7349803 C8.00501872,26.0467023 10.5213479,27.4480416 12.9302529,28.7534655 C15.7021213,30.2572228 18.423533,31.1009526 19.6621659,27.6366209 C20.6599083,24.8453222 23.9623869,23.5805404 24.9829162,20.8558947 C25.5232922,19.4139133 24.9438529,18.1166178 25.0317454,16.5917266 C25.2238067,13.2363157 27.4373951,10.9506046 27.2616102,7.46839037" id="Path"></path>
                            </g>
                            <g id="Group" transform="translate(60.882345, 14.755916) rotate(170.337977) translate(-60.882345, -14.755916) translate(59.882345, 11.755916)" fill="url(#linearGradient-6)">
                                <path d="M0.900240961,0.192246146 C0.87745402,0.322300842 0.857922357,0.455606905 0.843273609,0.592164335 L0.900240961,5.95854621 L0.843273609,0.592164335 C0.857922357,0.455606905 0.87745402,0.322300842 0.900240961,0.192246146 Z" id="Path"></path>
                            </g>
                            <g id="Group" transform="translate(58.594987, 9.983518)" fill="#48327F" fill-rule="nonzero">
                                <path d="M1.88998076,1.83864813 L1.6214204,0.367404489 L1.88998076,1.83864813 Z M0.119110035,0.908757122 L0.115854758,0.89412597 C0.622050341,0.725054877 1.12661829,0.557609469 1.6214204,0.367404489 C1.12499065,0.560860836 0.625305618,0.741311713 0.119110035,0.908757122" id="Shape"></path>
                            </g>
                            <g id="Group" transform="translate(49.501663, 10.217942)" fill="#FFF3E0" fill-rule="nonzero">
                                <path d="M1.45185357,29.475269 C1.17189974,29.475269 0.883807722,29.4411297 0.584322233,29.3809794 C1.4827787,29.151758 2.2347477,28.4624681 2.73931565,27.0546262 C3.73705807,24.2633275 7.03953665,22.9969199 8.05843837,20.2738999 C8.59881436,18.8319186 8.02100268,17.5329974 8.10889516,16.0081062 C8.30095651,12.654321 10.5129173,10.3686099 10.3387599,6.88639565 L9.21243408,0.674658686 C9.71862967,0.505587594 10.2183147,0.325136716 10.7147444,0.13168037 L10.9833048,1.6045497 L11.9403563,6.88639565 C11.9484945,7.02132739 11.9517497,7.15625913 11.9517497,7.28956518 C11.9468668,10.2840743 10.2150594,12.4137198 9.7918734,15.2407836 C9.75443772,15.4911389 9.72676786,15.7463712 9.71049148,16.0081062 C9.70560856,16.1219041 9.70235328,16.2340762 9.70235328,16.3446227 C9.70398092,17.237123 9.89441463,18.0597189 9.89604227,18.8888175 C9.89604227,19.3440089 9.83744728,19.800826 9.66166232,20.2738999 C9.64701357,20.3161677 9.63073719,20.3584355 9.61120552,20.4007033 C8.53859173,23.037562 5.322378,24.3055952 4.34091196,27.0546262 C3.70613293,28.8347497 2.67746538,29.475269 1.45185357,29.475269" id="Path"></path>
                            </g>
                            <g id="Group" transform="translate(27.669855, 22.382282)" fill="#212121" fill-rule="nonzero">
                                <path d="M15.7916414,22.4490646 C14.6604327,20.8689001 13.6708284,18.9619733 14.0679722,17.0599235 C14.3397879,15.7610023 15.2431273,14.5921358 15.1942981,13.2672037 C15.104778,10.8124215 11.9259999,9.42571341 11.6004722,6.98881372 C11.5174627,6.38568511 11.6265144,5.76792535 11.5614089,5.15991969 C11.4165491,3.85287009 10.4660082,2.74577957 9.33154412,2.07762362 C8.1987077,1.40946767 6.89171396,1.1087162 5.6091348,0.816093158 C4.61953057,0.59012314 3.58923538,0.362527439 2.59637588,0.583620406 C1.60514401,0.801462006 0.662741304,1.60617538 0.636699087,2.62060193 L0.97687554,2.6433615 C2.22039138,2.79129871 3.01793426,4.1292363 3.07815688,5.37776129 C3.13675187,6.62791196 2.66799197,7.8325435 2.36525121,9.04530345 C2.06251044,10.2580634 1.9469481,11.6301403 2.63055629,12.6787063 C3.19534686,13.5435699 4.23703552,14.06704 4.63906223,15.0213163 C5.42032873,16.8778469 3.34346196,18.7181208 3.18720867,20.72584 C2.95120108,23.803259 7.1846889,25.9556641 6.75010941,29.0103235 C6.62803652,29.8670588 6.13160677,30.6652694 6.16904245,31.5301331 C6.23903091,33.1070461 8.0505926,34.3311859 7.78365988,35.8885907 C7.71204378,36.3031401 7.49394022,36.745326 7.67623573,37.125736 C7.81621265,37.4151076 8.14174035,37.5565421 8.43797057,37.675217 C9.24853455,37.9971024 10.3895092,38.214944 10.804557,37.449247 C11.3237737,36.4949707 9.93865329,35.3277299 10.3781157,34.3344372 C11.8787984,34.6628253 13.3794811,34.9928391 14.8801639,35.3212272 C15.199181,35.3927573 15.568655,35.4512819 15.8241942,35.2464457 C15.9804475,35.1245195 16.0569465,34.9278118 16.1008928,34.7343554 C16.5289617,32.9347237 14.8476111,31.4195866 13.9133466,29.8231653 C13.7847631,29.6020723 13.6626902,29.3598455 13.6740837,29.1029875 C13.6968707,28.5372496 14.294214,28.2039845 14.8052925,27.9633833 C15.7639716,27.5033148 16.779618,26.8709239 17.0465508,25.8434919 C17.3590574,24.6323576 16.5159406,23.4651168 15.7916414,22.4490646" id="Path"></path>
                            </g>
                        </g>
                        <g id="Group-22" transform="translate(0.000000, 138.442759)">
                            <g id="Group" transform="translate(0.000000, 0.000000)" fill="#651FFF">
                                <path d="M43.0741185,96.1347986 C42.8934506,96.2242112 42.7078998,96.3136238 42.5256043,96.4030364 C36.7963167,99.1374362 33.7542603,98.6789934 28.1714601,96.107162 C23.0330053,93.7369153 18.0442932,90.9244827 13.7880184,87.1659023 C8.39565196,82.4091521 4.21262094,75.9795736 3.34183433,68.8476997 C3.1465177,67.2464014 3.15791117,65.4922888 4.10845207,64.1901162 C5.41544581,62.40349 8.0929112,62.1385035 10.1616398,62.9350885 C12.2287407,63.7349248 13.8563792,65.3411002 15.5002942,66.8253493 C16.2001787,67.4544889 16.9472648,68.0868798 17.8571147,68.332358 C18.765337,68.5778362 19.8786418,68.3193525 20.3441464,67.5032594 C21.0879772,66.1962098 19.8135363,64.6908268 18.6595405,63.7284221 C15.9820752,61.5012356 13.4706289,60.2136942 10.6613248,58.2384886 C7.13585974,55.7593212 3.87081685,52.7274213 1.93718227,48.8810539 C0.00354769894,45.0330609 -0.432659427,40.2600539 1.58235707,36.4510773 C2.1959768,35.2935906 3.03583828,34.2320192 4.14588776,33.5329752 C6.11207511,32.2925787 8.63491483,32.3559803 10.9103535,32.8436854 C13.1825369,33.3281391 15.3798489,34.1930028 17.6943509,34.4336039 C23.1615887,35.0025932 25.3100716,31.1578515 25.2026474,26.1312379 C25.1294037,22.7628215 24.0388859,19.4870691 23.8435693,16.1219041 C23.5017652,10.1979131 26.4298869,3.88700944 31.801094,1.35094306 C37.1739288,-1.18349765 44.6805977,1.24364794 46.6012112,6.85875903 C48.6894714,12.9599495 43.9221182,19.8154572 47.0764816,25.6467842 C48.1067768,27.548834 50.4326723,30.1629332 52.2523722,31.2879062 C55.2488547,33.1395598 59.5686074,30.9611438 63.0615197,31.1220865 C63.8362756,31.1578515 64.6793924,31.2651466 65.2230236,31.8195047 C65.6250503,32.2275513 65.7894418,32.8111717 65.8984936,33.3752839 C66.7204511,37.6166924 65.1855879,42.2368851 61.9872782,45.1452331 C58.3739207,48.4307396 52.1042571,50.108445 50.5677663,55.2537336 C49.6123425,58.4482018 50.0257627,66.4140514 55.117016,65.6060866 C57.0278636,65.3020838 58.3055599,63.4179165 60.1382809,62.7969054 C62.4055813,62.0295827 65.0016648,63.5333401 66.0156836,65.6987506 C67.03133,67.8609098 66.7285893,70.444121 65.8464092,72.6664304 C64.451523,76.1746556 61.7691747,78.9870882 59.1454214,81.7036054 C53.7432891,87.295957 50.1982924,92.6281991 43.0741185,96.1347986" id="Path"></path>
                            </g>
                            <g id="Group" transform="translate(20.204170, 21.394126)" fill="#212121">
                                <polygon id="Path" points="14.4013457 136.917705 16.1950034 136.917705 16.1950034 65.6688707 30.3505757 51.5319263 29.0810176 50.2638931 16.1950034 63.13443 16.1950034 36.7479598 30.3505757 22.612641 29.0810176 21.3462335 16.1950034 34.2135191 16.1950034 0.465953592 14.4013457 0.465953592 14.4013457 34.2135191 1.51533147 21.3462335 0.247401057 22.612641 14.4013457 36.7479598 14.4013457 63.13443 1.51533147 50.2638931 0.247401057 51.5319263 14.4013457 65.6688707"></polygon>
                            </g>
                        </g>
                        <g id="Group" transform="translate(13.693615, 70.229856)">
                            <path d="M93.2278798,13.66813 L86.0711532,9.54377071 L86.0711532,1.26904128 C86.0711532,0.674041091 85.5893721,0.191213067 84.9920288,0.191213067 L1.42255608,0.191213067 C0.826840374,0.191213067 0.34343173,0.674041091 0.34343173,1.26904128 L0.34343173,27.385648 C0.34343173,27.9806482 0.826840374,28.4651019 1.42255608,28.4651019 L84.9920288,28.4651019 C85.5893721,28.4651019 86.0711532,27.9806482 86.0711532,27.385648 L86.0711532,19.1125443 L93.2278798,14.9865593 C93.7340754,14.6939363 93.7340754,13.9623787 93.2278798,13.66813" id="Path" fill="#1C98F3"></path>
                            <g id="Group-23" transform="translate(8.138193, 6.206047)" fill="#FFFFFF">
                                <g id="Group" transform="translate(-0.000000, -0.000000)">
                                    <path d="M1.94177277,3.99856402 L46.0963508,3.99856402 C47.0468917,3.99856402 47.8151371,3.23124136 47.8151371,2.28346784 C47.8151371,1.33731999 47.0468917,0.568371658 46.0963508,0.568371658 L1.94177277,0.568371658 C0.992859504,0.568371658 0.224614117,1.33731999 0.224614117,2.28346784 C0.224614117,3.23124136 0.992859504,3.99856402 1.94177277,3.99856402" id="Path"></path>
                                </g>
                                <g id="Group" transform="translate(-0.000000, 6.748863)">
                                    <path d="M1.94177277,3.87501206 L46.0963508,3.87501206 C47.0468917,3.87501206 47.8151371,3.10768941 47.8151371,2.16154157 C47.8151371,1.21376804 47.0468917,0.446445389 46.0963508,0.446445389 L1.94177277,0.446445389 C0.992859504,0.446445389 0.224614117,1.21376804 0.224614117,2.16154157 C0.224614117,3.10768941 0.992859504,3.87501206 1.94177277,3.87501206" id="Path"></path>
                                </g>
                                <g id="Group" transform="translate(14.648747, 13.498051)">
                                    <path d="M2.0573351,3.75308579 L31.4476041,3.75308579 C32.398145,3.75308579 33.1663903,2.98251178 33.1663903,2.03636393 C33.1663903,1.0885904 32.398145,0.321267754 31.4476041,0.321267754 L2.0573351,0.321267754 C1.11004948,0.321267754 0.341804091,1.0885904 0.341804091,2.03636393 C0.341804091,2.98251178 1.11004948,3.75308579 2.0573351,3.75308579" id="Path"></path>
                                </g>
                            </g>
                        </g>
                        <g id="Group" transform="translate(75.543880, 75.106907)" fill="#FFFFFF">
                            <path d="M2.64654025,18.4037462 L16.2356943,18.4037462 C17.4320087,18.4037462 18.4053365,17.4332131 18.4053365,16.23671 L18.4053365,2.66387779 C18.4053365,1.46737468 17.4320087,0.498467264 16.2356943,0.498467264 L2.64654025,0.498467264 C1.44697065,0.498467264 0.47689809,1.46737468 0.47689809,2.66387779 L0.47689809,16.23671 C0.47689809,17.4332131 1.44697065,18.4037462 2.64654025,18.4037462" id="Path"></path>
                        </g>
                        <g id="Group-21" transform="translate(74.871372, 58.584759)">
                            <g id="Group" transform="translate(61.872645, 235.974594) scale(-1, 1) translate(-61.872645, -235.974594) translate(0.872645, 223.474594)" fill="#F5F5F5">
                                <path d="M60.6233171,0.441568339 C27.1802282,0.441568339 0.0686532402,5.82095531 0.0686532402,12.4569957 C0.0686532402,19.0930361 27.1802282,24.4707974 60.6233171,24.4707974 C94.0647784,24.4707974 121.176353,19.0930361 121.176353,12.4569957 C121.176353,5.82095531 94.0647784,0.441568339 60.6233171,0.441568339" id="Path"></path>
                            </g>
                            <g id="Group" transform="translate(0.000000, 65.746903)" fill="#4527A0" fill-rule="nonzero">
                                <path d="M20.6615359,20.6526842 C20.3457741,20.9680668 19.8330679,20.9680668 19.517306,20.6526842 L0.35674526,1.51676278 C0.0409833851,1.20138017 0.0409833851,0.687664155 0.35674526,0.37228154 C0.672507135,0.0585246089 1.18521327,0.0585246089 1.50097515,0.37228154 L20.6615359,19.5098287 C20.9772978,19.8252113 20.9772978,20.3373016 20.6615359,20.6526842" id="Path"></path>
                            </g>
                            <g id="Group" transform="translate(68.550336, 34.406937) scale(-1, 1) rotate(23.690177) translate(-68.550336, -34.406937) translate(62.050336, 27.406937)" fill="#FFF3E0">
                                <rect id="Rectangle" x="0.254473689" y="0.755807284" width="11.989192" height="12.4332349"></rect>
                            </g>
                            <g id="Group" transform="translate(60.222626, 25.472869)" fill="#C3C2CB" fill-rule="nonzero">
                                <path d="M3.34183433,11.8203453 L0.555317161,5.52082144 L11.5337391,0.710423725 L11.979712,1.71997323 L6.63454707,9.44522161 C5.45450914,10.2060415 4.31678981,11.0107549 3.34183433,11.8203453" id="Path"></path>
                            </g>
                            <g id="Group" transform="translate(42.991109, 7.774507)" fill="#FFF3E0" fill-rule="nonzero">
                                <path d="M29.3170252,19.694539 L15.7002013,30.8239688 C12.7086016,32.2675758 9.10663758,31.1409771 7.47086086,28.2521374 L5.9604123,25.5827649 L4.12931895,26.2850602 C3.36595648,26.579309 2.52772264,26.0785984 2.42518141,25.269008 L1.67484005,19.3661509 C1.59834104,18.7581453 1.70739282,18.1420112 1.99060192,17.6006585 L3.17552277,15.3344556 L0.865903698,10.0769949 C0.64291722,9.57140733 0.838233843,6.48098284 1.3476847,6.25826419 L20.7768058,0.259491778 L29.3170252,19.694539 Z" id="Path"></path>
                            </g>
                            <g id="Group" transform="translate(29.145294, 222.170178)" fill="#FFF3E0" fill-rule="nonzero">
                                <polygon id="Path" points="17.9637407 8.95589085 0.0971525115 8.95589085 6.57189859 4.4755069 8.01073105 0.333265134 17.9637407 0.333265134"></polygon>
                            </g>
                            <g id="Group" transform="translate(86.264842, 213.819021)" fill="#FFF3E0" fill-rule="nonzero">
                                <polygon id="Path" points="16.0357872 9.07946264 0.503232728 16.8160908 3.59900121 9.58342455 2.61102463 5.30950241 11.0373093 0.0227794032"></polygon>
                            </g>
                            <g id="Group" transform="translate(52.756940, 121.116203)" fill="#0445A2" fill-rule="nonzero">
                                <path d="M17.4906037,0.039036239 C17.4906037,0.039036239 18.6901732,40.6583662 17.4906037,43.0611265 C17.4906037,43.0611265 36.8367152,66.6107789 46.1874986,94.302673 L36.2263508,99.748713 L0.704767484,47.8991609 L7.65803929,0.039036239 L17.4906037,0.039036239 Z" id="Path"></path>
                            </g>
                            <g id="Group" transform="translate(56.012217, 124.684124)" fill="#0445A2" fill-rule="nonzero">
                                <path d="M10.2297082,62.8869554 L0.779638856,49.1645603 C0.732437339,48.4541366 0.662448882,47.7859806 0.568045847,47.1665952 C0.568045847,47.1665952 9.19941298,8.12905534 9.44030348,5.25322108 C9.55261054,3.89740097 11.9598879,2.27496876 14.3362402,0.146948951 C14.3541442,0.868752461 14.3753035,1.67996857 14.3964628,2.56596612 C13.2359565,3.58201836 12.3814463,4.46476454 12.3179684,5.25322108 C12.0770779,8.12905534 3.44571077,47.1665952 3.44571077,47.1665952 C3.71101585,48.9077023 10.3110901,60.5118317 10.2297082,62.8869554" id="Path"></path>
                            </g>
                            <g id="Group" transform="translate(35.808048, 108.579927)" fill="#0445A2" fill-rule="nonzero">
                                <path d="M6.19671231,7.83904623 L4.16053651,62.6050747 L0.148407528,116.226622 L12.1375929,116.226622 C12.1375929,116.226622 22.930464,77.400421 20.7722154,63.2699793 C20.7722154,63.2699793 29.4035825,24.2324395 29.644473,21.3582309 C29.8837358,18.4840223 40.4340888,14.411685 39.1157016,6.86851313 L31.4413859,0.14956289 L7.8227232,2.67587518 L6.19671231,7.83904623 Z" id="Path"></path>
                            </g>
                            <g id="Group" transform="translate(35.808048, 116.460916)" fill="#0445A2" fill-rule="nonzero">
                                <path d="M3.74711632,108.345308 L0.148407528,108.345308 L4.16053651,54.7253864 L6.17229773,0.664904585 C7.35884622,0.414549313 8.55027762,0.248729588 9.74008139,0.14956289 C9.10204709,2.43852537 9.67660349,5.57284332 9.50081853,7.89757084 C9.15413152,12.4917526 8.33217406,17.0339126 8.11569814,21.660608 C7.96595539,24.8388194 8.36147155,28.283643 7.85039306,31.4179609 C7.4044201,34.1344782 6.69965261,36.4722112 6.74522649,39.3220345 C6.8087044,43.6431014 6.87706521,47.9722968 7.34256983,52.2673528 C7.71855434,55.7544441 8.36147155,59.2447868 8.15150618,62.7432578 C7.98223178,65.5508134 7.2693261,68.2949673 6.56130334,71.019613 C5.92326904,73.4727695 4.83275122,76.1502703 4.57070142,78.6700799 C4.34445966,80.8566243 4.81973011,83.2382508 4.81973011,85.4654373 C4.92389898,88.8940039 4.29237523,92.2461635 4.30214106,95.629211 C4.31516217,99.8722452 4.06450583,104.086017 3.74711632,108.345308" id="Path"></path>
                            </g>
                            <g id="Group" transform="translate(69.033325, 62.363336)" fill="#FFF3E0" fill-rule="nonzero">
                                <path d="M12.2984367,0.652907204 L19.6944262,13.1755478 C20.9444526,15.2889365 20.5456812,17.9908226 18.7373748,19.6555226 L6.48939482,30.9312639 L0.253911611,23.0271903 L12.2984367,0.652907204 Z" id="Path"></path>
                            </g>
                            <g id="Group" transform="translate(40.690963, 115.894365)" fill="url(#linearGradient-7)">
                                <path d="M1.23567007,1.24202226 L1.31379672,0.525095797 L1.28938214,1.23064247 C1.27147811,1.23389384 1.25357409,1.23877089 1.23567007,1.24202226 Z" id="Path"></path>
                            </g>
                            <g id="Group" transform="translate(45.421679, 113.966792)" fill="#0445A2" fill-rule="nonzero">
                                <path d="M27.2005893,6.44908677 C24.6875154,6.44908677 21.0920619,5.46879957 16.8943821,4.48851237 C12.69833,3.50822517 7.89842399,2.52793797 2.97644507,2.52793797 C2.02915945,2.52793797 1.07861855,2.56370301 0.126450005,2.6433615 C0.144354029,2.57995984 0.160630414,2.5149325 0.181789715,2.45315652 L0.632645588,1.01930361 C3.38172707,0.651899116 6.0738412,0.497459176 8.66015882,0.497459176 C16.2058911,0.497459176 22.8564221,1.81588856 27.4398522,3.05628513 C28.2080976,3.26437263 28.9128651,3.46758308 29.5557823,3.66266511 C29.435337,4.59743317 29.1358515,5.47042525 28.7191761,6.28976978 C28.2715755,6.40031626 27.7637523,6.44908677 27.2005893,6.44908677" id="Path"></path>
                            </g>
                            <g id="Group" transform="translate(41.363470, 114.449620)" fill="#0445A2" fill-rule="nonzero">
                                <path d="M0.616875003,2.67587518 L0.641289581,1.9703285 L0.893573553,1.17536923 C2.16638688,0.913634173 3.43594494,0.702295307 4.69085425,0.536475582 L4.23999837,1.9703285 C4.21883907,2.03210448 4.20256269,2.09713182 4.18465866,2.16053348 C2.9948549,2.25970018 1.80342349,2.42714559 0.616875003,2.67587518" id="Path"></path>
                            </g>
                            <g id="Group" transform="translate(37.435686, 33.772309)" fill="#1C98F3" fill-rule="nonzero">
                                <path d="M38.087034,0.125177636 C38.087034,0.125177636 39.0473408,2.28245975 40.4861732,3.48058855 C41.9250057,4.67871735 49.3584309,12.1015886 48.8799051,17.8516314 C48.8799051,17.8516314 50.0778471,21.203791 44.5617801,35.0936315 C44.5617801,35.0936315 37.3676178,64.551018 38.087034,68.1437787 C38.8064503,71.7381651 41.9347715,85.3890301 41.9347715,85.3890301 C41.9347715,85.3890301 21.3630481,76.6477295 0.200491961,83.0155321 C0.200491961,83.0155321 4.93203717,56.4973815 5.23477794,51.6187051 C5.23477794,51.6187051 16.0260214,15.4553738 22.9320917,9.86302229 L38.087034,0.125177636 Z" id="Path"></path>
                            </g>
                            <g id="Group" transform="translate(67.270912, 38.771683) scale(-1, 1) rotate(-77.479197) translate(-67.270912, -38.771683) translate(59.770912, 28.771683)" fill="#0445A2" fill-rule="nonzero">
                                <path d="M9.61607284,0.35069496 L14.0351098,0.35069496 C14.0351098,0.35069496 11.1216379,13.7560769 7.32273098,16.56038 L0.327143133,19.3402979 C0.327143133,19.3402979 9.43214975,7.26147334 9.61607284,0.35069496" id="Path"></path>
                            </g>
                            <g id="Group" transform="translate(69.988457, 218.795259)" fill="#1C98F3" fill-rule="nonzero">
                                <path d="M32.0745373,0.692541206 L35.6097682,7.47164174 C36.3031422,8.79982523 35.6472039,10.4352629 34.2262754,10.9180909 L11.9422763,18.4742682 L1.85905562,18.4742682 C1.85905562,18.4742682 0.779931278,17.5768909 0.420223163,16.1381609 L11.9422763,10.7506455 L17.1458367,3.56674978 L22.0222417,6.97905962 L28.9559819,4.64295231 L32.0745373,0.692541206 Z" id="Path"></path>
                            </g>
                            <g id="Group" transform="translate(69.988457, 224.949089)" fill="#FFFFFF" fill-rule="nonzero">
                                <path d="M35.8880944,0.465953592 L37.0306966,2.4557903 C37.4571379,3.19710201 37.1413761,4.14324985 36.3552266,4.48301772 L14.4504673,13.2178156 L3.6575962,13.2178156 C1.87044909,13.2178156 0.420223163,11.7725829 0.420223163,9.98595665 L15.527964,9.98595665 L35.8880944,0.465953592 Z" id="Path"></path>
                            </g>
                            <g id="Group" transform="translate(10.438338, 222.322992)" fill="#1C98F3" fill-rule="nonzero">
                                <path d="M38.1681235,3.32452292 L38.1681235,11.1814517 C38.1681235,12.6461926 36.9799474,13.8329416 35.5167004,13.8329416 L10.6512665,13.8329416 L0.22135884,12.0349356 C0.828468012,10.5279269 2.08012204,9.37206585 3.62963392,8.88273509 L14.4290156,5.48017935 L22.5216344,0.180450878 L25.5946159,6.64579448 L34.5661595,6.64579448 L38.1681235,3.32452292 Z" id="Path"></path>
                            </g>
                            <g id="Group" transform="translate(26.104233, 227.764469) scale(-1, 1) rotate(-61.170475) translate(-26.104233, -227.764469) translate(24.604233, 226.264469)" fill="#FFFFFF">
                                <rect id="Rectangle" x="0.0517071685" y="0.744937262" width="2.07523838" height="1.79150266"></rect>
                            </g>
                            <g id="Group" transform="translate(28.732826, 226.886212) scale(-1, 1) rotate(-61.119393) translate(-28.732826, -226.886212) translate(27.232826, 225.386212)" fill="#FFFFFF">
                                <rect id="Rectangle" x="0.77611944" y="0.668419798" width="2.07198372" height="1.78987751"></rect>
                            </g>
                            <g id="Group" transform="translate(28.732826, 226.886212) scale(-1, 1) rotate(-61.119393) translate(-28.732826, -226.886212) translate(27.232826, 225.386212)" fill="#FFFFFF">
                                <rect id="Rectangle" x="0.77611944" y="0.668419798" width="2.07198372" height="1.78987751"></rect>
                            </g>
                            <g id="Group" transform="translate(30.902218, 225.176448) scale(-1, 1) rotate(-61.174810) translate(-30.902218, -225.176448) translate(29.402218, 223.676448)" fill="#FFFFFF">
                                <rect id="Rectangle" x="0.543535743" y="0.588456351" width="2.07361197" height="1.78987804"></rect>
                            </g>
                            <g id="Group" transform="translate(85.520346, 226.679403) scale(-1, 1) rotate(-33.925557) translate(-85.520346, -226.679403) translate(84.020346, 225.679403)" fill="#FFFFFF">
                                <rect id="Rectangle" x="0.751533926" y="0.0199779422" width="1.92386777" height="1.79312808"></rect>
                            </g>
                            <g id="Group" transform="translate(87.270756, 223.994774) scale(-1, 1) rotate(-33.889309) translate(-87.270756, -223.994774) translate(86.270756, 222.994774)" fill="#FFFFFF">
                                <rect id="Rectangle" x="0.0426792037" y="0.0826326425" width="1.92386796" height="1.78987689"></rect>
                            </g>
                            <g id="Group" transform="translate(37.435686, 0.000000)" fill="#212121" fill-rule="nonzero">
                                <path d="M5.7230695,6.52650198 L5.77678157,6.50374241 C6.33343395,6.25988988 6.93403256,6.08269037 7.39953718,5.69090062 C7.7804046,5.36901527 8.03919913,4.92845502 8.36472683,4.54967075 C8.94253851,3.87988911 9.82960151,3.40844088 10.4904228,2.88009371 C11.4279425,2.13065358 12.1131784,1.58279821 13.3697153,1.41372712 C14.6474116,1.24140466 15.9527777,1.39096755 17.2304739,1.22677351 C19.4652216,0.935776148 21.7227563,-0.302994742 23.8500798,0.439942655 C25.3898259,0.976418237 26.3973341,2.41677389 27.3006735,3.77421968 C29.1236287,6.51187083 30.9661155,9.27715861 32.2519499,12.3188126 C33.4173391,15.0710949 33.169938,18.3972435 33.4661683,21.3722445 C33.5377844,22.1021764 33.6077728,22.8548679 33.3815311,23.5522861 C33.1113431,24.3765077 32.4375007,25.109691 32.5188826,25.972929 C32.4261072,24.9958932 30.8944994,23.3149363 30.4517817,22.355783 C29.9618625,21.2909603 29.6493559,20.3626949 28.387936,19.9774079 C27.7791992,19.79208 27.0711765,19.7839516 26.618693,19.3385143 C26.343622,19.0686508 26.2199215,18.6849895 26.0945933,18.3192107 C25.8797451,17.6884455 25.6258335,17.0544289 25.1928816,16.5455899 C24.7583021,16.0383766 24.110502,15.6725978 23.4447978,15.7311224 C23.1843757,15.7522563 22.9206982,15.8481716 22.7497962,16.0448794 L22.5154162,16.3667647 C22.2615046,16.6398795 21.831808,16.6366282 21.4981421,16.807325 C20.0348951,17.5502624 21.3386336,19.8262194 21.3532823,20.9999629 C21.3711863,22.2712475 20.7266415,23.7132288 19.481498,23.9798409 C19.1820125,23.0109335 18.8808994,22.032272 18.3779591,21.1527772 C17.3590574,19.3677766 15.6174841,18.1338828 13.9312506,16.9568878 C13.0978997,16.3765188 12.2629211,15.7961498 11.4311978,15.2157807 C10.9347681,14.8695101 10.3976474,14.5102341 9.7954211,14.5199882 C9.01578224,14.5329936 8.38425849,15.1556304 7.97083831,15.815658 C6.68174859,17.8802761 4.0758993,20.2553998 1.58072944,18.1192516 C0.612284509,17.290153 0.192353769,15.9538411 0.200376026,14.6793051 C0.213513069,12.7577472 1.11359718,11.972542 2.07390391,10.5126781 C3.16930464,8.85285519 3.77478617,7.4059968 5.7230695,6.52650198" id="Path"></path>
                            </g>
                            <g id="Group" transform="translate(40.690963, 89.797559)" fill="url(#linearGradient-8)">
                                <path d="M1.13475648,2.09488854 C1.22264896,1.51614519 1.30728616,0.960161401 1.38378517,0.430188554 C1.30728616,0.960161401 1.2242766,1.51614519 1.13638412,2.09488854 L1.13475648,2.09488854 Z" id="Path"></path>
                            </g>
                            <g id="Group" transform="translate(41.363470, 74.699868)" fill="#0445A2" fill-rule="nonzero">
                                <path d="M18.5729833,19.6821511 L0.462249343,17.1932296 C0.551769462,16.6128605 0.634779027,16.0585024 0.711278038,15.5285296 L17.6159318,17.9507981 L29.2958659,0.520218746 L29.3577162,0.557609469 L18.5729833,19.6821511 Z" id="Path"></path>
                            </g>
                            <g id="Group" transform="translate(73.916241, 116.791722)" fill="url(#linearGradient-9)">
                                <path d="M1.11004948,0.853503713 C1.09540073,0.850252346 1.08075198,0.847000979 1.06610324,0.840498245 C1.08075198,0.843749612 1.09540073,0.847000979 1.11004948,0.853503713 Z" id="Path"></path>
                            </g>
                            <g id="Group" transform="translate(74.871372, 101.602298)" fill="#CAC0D4" fill-rule="nonzero">
                                <path d="M1.33821129,16.4171609 C0.970364986,16.2968603 0.576476462,16.1716827 0.154918082,16.041628 C0.576476462,16.1716827 0.973620263,16.2968603 1.33821129,16.4155352 L1.33821129,16.4171609 Z M2.57684422,9.09183068 C1.78418425,5.56897436 0.973620263,1.92744313 0.651347834,0.314765019 C0.973620263,1.92744313 1.78418425,5.56572299 2.57684422,9.09020499 L2.57684422,9.09183068" id="Shape"></path>
                            </g>
                            <g id="Group" transform="translate(73.916241, 116.777091)" fill="#4B337F" fill-rule="nonzero">
                                <path d="M1.06610324,0.855129397 C1.0644756,0.855129397 1.06284796,0.855129397 1.06122032,0.853503713 C1.06284796,0.853503713 1.0644756,0.853503713 1.06610324,0.855129397 Z" id="Path"></path>
                            </g>
                            <g id="Group" transform="translate(72.288602, 116.319611)" fill="#372C6A" fill-rule="nonzero">
                                <path d="M2.68885885,1.31130905 C2.04594163,1.11622703 1.34117415,0.911390894 0.572928763,0.703303395 C1.33791887,0.90976521 2.04431399,1.11297566 2.68885885,1.31130905 Z" id="Path"></path>
                            </g>
                            <g id="Group" transform="translate(68.360818, 34.385159)" fill="#1C98F3" fill-rule="nonzero">
                                <path d="M7.84876542,83.6326743 C7.48417439,83.5139994 7.08703059,83.3888217 6.66547221,83.258767 C6.65082346,83.25389 6.63617471,83.2506386 6.62152597,83.2473873 C6.61989833,83.2457616 6.61827069,83.2457616 6.61664305,83.2457616 C5.97209819,83.0474282 5.26570307,82.8442177 4.50071296,82.6377559 C3.84802991,80.0236567 3.08955035,77.4355685 2.20899791,74.889748 C1.59375054,73.1096244 0.916652915,71.3181211 0.807601133,69.4388309 C0.638326726,66.5337344 1.8411516,63.6936651 1.77441842,60.7836915 C1.69303649,57.1828024 -0.313841815,53.5591537 0.797835302,50.1338384 C1.70931288,47.3214058 4.59837127,45.2145199 4.80833664,42.3224288 L5.7230695,42.8637814 L14.4179145,22.9767941 C16.514313,18.312708 15.8697681,12.8374056 11.2033284,10.7435252 C9.96957842,10.1891671 8.68048871,9.92905772 7.41255829,9.92905772 C4.81973011,9.92905772 2.31479441,11.0198914 0.552061884,12.9528292 C0.669251858,12.4082252 0.88898306,11.8945092 1.24706354,11.4295637 C2.60614171,9.67219972 5.47729608,9.40558761 6.43597517,7.40274544 C7.01866977,6.18185707 6.66221693,4.73662436 6.25693493,3.44745728 C6.01604443,2.67038053 5.75887754,1.85916442 5.68563381,1.05770242 C6.33343395,0.743945485 6.9649577,0.49196453 7.57369451,0.316390703 C7.98548705,1.05282537 8.68374398,2.13715631 9.56104115,2.86871393 C10.9559274,4.02782632 17.9743047,11.0312712 17.9759324,16.6935271 C17.9759324,16.8756037 17.9677942,17.0560545 17.9547731,17.2381311 C17.9547731,17.2381311 18.0638248,17.5437596 18.0638248,18.3582271 C18.0638248,20.2326403 17.4827579,24.7943084 13.636648,34.4801312 C13.636648,34.4801312 7.11470044,61.1884867 7.11144516,66.8442399 C7.11144516,67.1287345 7.12772155,67.3595816 7.16190196,67.5319041 C7.48417439,69.1445822 8.29473838,72.7861134 9.08739834,76.3089697 C8.72443495,78.5182737 8.36309919,80.7292034 8.0001358,82.9401331 C7.96270011,83.1644774 7.91061568,83.3969501 7.84876542,83.6326743" id="Path"></path>
                            </g>
                            <g id="Group" transform="translate(74.792516, 34.774417) scale(-1, 1) rotate(136.329351) translate(-74.792516, -34.774417) translate(73.792516, 33.274417)" fill="#0445A2" fill-rule="nonzero">
                                <path d="M0.921958658,0.500361251 C0.775471184,0.630415943 0.635494264,0.76697337 0.506910814,0.911659216 L0.921958658,2.63650957 C0.921958658,2.63650957 1.25725221,2.49995215 1.77484129,2.33900947 C1.45745176,1.79277976 1.17424264,1.17501997 0.921958658,0.500361251" id="Path"></path>
                            </g>
                            <g id="Group" transform="translate(8.138193, 68.791971)" fill="#FFF3E0" fill-rule="nonzero">
                                <path d="M52.356541,0.625888179 L47.7226541,9.65330911 L16.06834,11.8089655 L15.2366167,10.0678584 C14.5513809,8.63237982 13.1320801,7.68948334 11.5418772,7.61307621 L1.81836466,7.14000229 C1.15754342,7.10748862 0.602518678,7.6342101 0.602518678,8.29423763 C0.602518678,8.89411488 1.06314038,9.39482542 1.66048372,9.44684729 L4.6797532,9.7134594 L4.55930795,10.9115882 L3.35973835,11.1505637 L3.31741975,11.9097579 C3.26859059,12.8038839 3.57458664,13.681753 4.17030234,14.3531603 L4.59186072,14.8294856 C4.9206437,15.2017672 5.12898143,15.6667127 5.18432114,16.1609205 L5.1908317,16.2015626 C5.28360709,17.0144044 5.76376046,17.7313308 6.48480433,18.1263719 L9.16064207,19.5959899 C9.44710645,19.7520555 9.76612361,19.831714 10.0900237,19.831714 L14.0305366,19.831714 L16.9082015,18.994487 L50.8412096,23.8585322 L63.0582644,5.62486519 L52.356541,0.625888179 Z" id="Path"></path>
                            </g>
                            <g id="Group" transform="translate(59.267494, 47.027157)" fill="#0445A2" fill-rule="nonzero">
                                <path d="M13.9016607,29.6801052 L11.4536923,28.2299954 L11.9289628,27.389517 L2.93951519,23.192002 L0.250656334,21.6004578 L8.04867254,2.75065662 C8.46046508,1.8321454 9.00246871,1.01605224 9.64538593,0.312131248 C9.30032657,1.93456346 9.88953171,3.82848483 10.5324489,5.45254273 C12.1112583,9.44034456 13.8495763,13.8605782 12.3326171,17.8711396 C11.9615156,18.8530525 11.3999803,19.7813178 11.2551204,20.8217553 C10.8351897,23.8130131 13.9130542,26.3279456 13.9130542,29.34684 C13.9130542,29.4590122 13.9081712,29.5695587 13.9016607,29.6801052" id="Path"></path>
                            </g>
                            <g id="Group" transform="translate(69.988457, 73.609164)" fill="#302085" fill-rule="nonzero">
                                <polygon id="Path" points="0.732729761 1.64945124 0.670879497 1.61043483 1.20800021 0.807347145"></polygon>
                            </g>
                            <g id="Group" transform="translate(68.360818, 43.870860)" fill="#0445A2" fill-rule="nonzero">
                                <path d="M5.7230695,33.3779177 L4.80833664,32.8365651 C4.8148472,32.7243929 4.81973011,32.6154721 4.81973011,32.5032999 C4.81973011,29.4844055 1.74186565,26.969473 2.16179639,23.9782152 C2.30665622,22.9377777 2.86819151,22.0095124 3.2392931,21.0275995 C4.75625221,17.0170381 3.01793426,12.5951788 1.43912488,8.60900265 C0.796207663,6.98494476 0.207002515,5.09102338 0.552061884,3.46859117 C2.31479441,1.53402771 4.81973011,0.443194022 7.41255829,0.443194022 C8.68048871,0.443194022 9.96957842,0.704929079 11.2033284,1.2576615 C15.8697681,3.35154195 16.514313,8.82684425 14.4179145,13.4909304 L5.7230695,33.3779177 Z" id="Path"></path>
                            </g>
                            <g id="Group" transform="translate(61.850264, 70.045211)" fill="#C3C2CB" fill-rule="nonzero">
                                <polygon id="Path" points="8.80907215 5.17455084 0.35674526 0.173948143 9.34619287 4.37146315"></polygon>
                            </g>
                            <g id="Group" transform="translate(58.594987, 42.967955)" fill="#1C98F3" fill-rule="nonzero">
                                <path d="M14.0516959,32.1245157 L0.203747238,25.6591721 L7.28234721,6.09081879 C9.377118,1.42835827 14.8606322,-0.652516712 19.5286995,1.44298942 C24.1967668,3.53524419 26.2801441,9.01217218 24.1837457,13.6746327 L14.0516959,32.1245157 Z" id="Path"></path>
                            </g>
                        </g>
                    </g>
                </g>
            </g>
        </g>
    </g>
</svg>